Ubuntu-CondensedExtraBold.ufo
<glyph name="exclam" format="2">
  <advance width="282"/>
  <unicode hex="0021"/>
  <outline>
    <contour>
      <point x="105" y="221" type="curve"/>
      <point x="173" y="221" type="line"/>
      <point x="196" y="298"/>
      <point x="212" y="433"/>
      <point x="212" y="515" type="curve"/>
      <point x="212" y="693" type="line"/>
      <point x="66" y="693" type="line"/>
      <point x="66" y="515" type="line" smooth="yes"/>
      <point x="66" y="433.27"/>
      <point x="82" y="298"/>
    </contour>
    <contour>
      <point x="140" y="-14" type="curve" smooth="yes"/>
      <point x="195" y="-14"/>
      <point x="229" y="28"/>
      <point x="229" y="74" type="curve" smooth="yes"/>
      <point x="229" y="121"/>
      <point x="195" y="164"/>
      <point x="140" y="164" type="curve" smooth="yes"/>
      <point x="86" y="164"/>
      <point x="53" y="121"/>
      <point x="53" y="74" type="curve" smooth="yes"/>
      <point x="53" y="28"/>
      <point x="86" y="-14"/>
    </contour>
  </outline>
</glyph>
<glyph name="numbersign" format="2">
  <advance width="598"/>
  <unicode hex="0023"/>
  <outline>
    <contour>
      <point x="97" y="0" type="line"/>
      <point x="210" y="0" type="line"/>
      <point x="234" y="175" type="line"/>
      <point x="317" y="175" type="line"/>
      <point x="293" y="0" type="line"/>
      <point x="406" y="0" type="line"/>
      <point x="430" y="175" type="line"/>
      <point x="546" y="175" type="line"/>
      <point x="546" y="275" type="line"/>
      <point x="444" y="275" type="line"/>
      <point x="463" y="419" type="line"/>
      <point x="546" y="419" type="line"/>
      <point x="546" y="519" type="line"/>
      <point x="477" y="519" type="line"/>
      <point x="501" y="693" type="line"/>
      <point x="388" y="693" type="line"/>
      <point x="364" y="519" type="line"/>
      <point x="281" y="519" type="line"/>
      <point x="305" y="693" type="line"/>
      <point x="192" y="694" type="line"/>
      <point x="168" y="519" type="line"/>
      <point x="52" y="519" type="line"/>
      <point x="52" y="419" type="line"/>
      <point x="154" y="419" type="line"/>
      <point x="135" y="275" type="line"/>
      <point x="52" y="275" type="line"/>
      <point x="52" y="175" type="line"/>
      <point x="121" y="175" type="line"/>
    </contour>
    <contour>
      <point x="248" y="275" type="line"/>
      <point x="267" y="419" type="line"/>
      <point x="350" y="419" type="line"/>
      <point x="331" y="275" type="line"/>
    </contour>
  </outline>
</glyph>
<glyph name="percent" format="2">
  <advance width="692"/>
  <unicode hex="0025"/>
  <outline>
    <contour>
      <point x="151" y="0" type="line"/>
      <point x="264" y="0" type="line"/>
      <point x="541" y="693" type="line"/>
      <point x="428" y="693" type="line"/>
    </contour>
    <contour>
      <point x="168" y="321" type="curve" smooth="yes"/>
      <point x="255" y="321"/>
      <point x="302" y="389"/>
      <point x="302" y="515" type="curve" smooth="yes"/>
      <point x="302" y="640"/>
      <point x="255" y="707"/>
      <point x="168" y="707" type="curve" smooth="yes"/>
      <point x="81" y="707"/>
      <point x="34" y="640"/>
      <point x="34" y="515" type="curve" smooth="yes"/>
      <point x="34" y="389"/>
      <point x="81" y="321"/>
    </contour>
    <contour>
      <point x="168" y="411" type="curve" smooth="yes"/>
      <point x="145" y="411"/>
      <point x="139" y="432"/>
      <point x="139" y="515" type="curve" smooth="yes"/>
      <point x="139" y="596"/>
      <point x="145" y="617"/>
      <point x="168" y="617" type="curve" smooth="yes"/>
      <point x="191" y="617"/>
      <point x="197" y="596"/>
      <point x="197" y="515" type="curve" smooth="yes"/>
      <point x="197" y="432"/>
      <point x="191" y="411"/>
    </contour>
    <contour>
      <point x="524" y="-15" type="curve" smooth="yes"/>
      <point x="611" y="-15"/>
      <point x="658" y="53"/>
      <point x="658" y="179" type="curve" smooth="yes"/>
      <point x="658" y="304"/>
      <point x="611" y="371"/>
      <point x="524" y="371" type="curve" smooth="yes"/>
      <point x="437" y="371"/>
      <point x="390" y="304"/>
      <point x="390" y="179" type="curve" smooth="yes"/>
      <point x="390" y="53"/>
      <point x="437" y="-15"/>
    </contour>
    <contour>
      <point x="524" y="75" type="curve" smooth="yes"/>
      <point x="501" y="75"/>
      <point x="495" y="96"/>
      <point x="495" y="179" type="curve" smooth="yes"/>
      <point x="495" y="260"/>
      <point x="501" y="281"/>
      <point x="524" y="281" type="curve" smooth="yes"/>
      <point x="547" y="281"/>
      <point x="553" y="260"/>
      <point x="553" y="179" type="curve" smooth="yes"/>
      <point x="553" y="96"/>
      <point x="547" y="75"/>
    </contour>
  </outline>
</glyph>
<glyph name="quotesingle" format="2">
  <advance width="235"/>
  <unicode hex="0027"/>
  <outline>
    <contour>
      <point x="81" y="471" type="curve"/>
      <point x="154" y="471" type="line"/>
      <point x="171" y="534"/>
      <point x="185" y="635"/>
      <point x="185" y="689" type="curve"/>
      <point x="185" y="760" type="line"/>
      <point x="50" y="760" type="line"/>
      <point x="50" y="689" type="line" smooth="yes"/>
      <point x="50" y="635"/>
      <point x="64" y="534"/>
    </contour>
  </outline>
</glyph>
<glyph name="parenleft" format="2">
  <advance width="313"/>
  <unicode hex="0028"/>
  <outline>
    <contour>
      <point x="210" y="-187" type="curve"/>
      <point x="310" y="-127" type="line"/>
      <point x="253" y="-27"/>
      <point x="202" y="117"/>
      <point x="202" y="299" type="curve"/>
      <point x="202" y="481"/>
      <point x="253" y="625"/>
      <point x="310" y="725" type="curve"/>
      <point x="210" y="785" type="line"/>
      <point x="133" y="684"/>
      <point x="69" y="498"/>
      <point x="69" y="299" type="curve"/>
      <point x="69" y="100"/>
      <point x="133" y="-86"/>
    </contour>
  </outline>
</glyph>
<glyph name="asterisk" format="2">
  <advance width="417"/>
  <unicode hex="002A"/>
  <outline>
    <contour>
      <point x="166" y="378" type="line"/>
      <point x="177" y="393"/>
      <point x="187" y="413"/>
      <point x="210" y="504" type="curve"/>
      <point x="233" y="414"/>
      <point x="243" y="394"/>
      <point x="253" y="379" type="curve"/>
      <point x="355" y="453" type="line"/>
      <point x="345" y="468"/>
      <point x="329" y="484"/>
      <point x="249" y="534" type="curve"/>
      <point x="342" y="528"/>
      <point x="364" y="531"/>
      <point x="381" y="537" type="curve"/>
      <point x="342" y="657" type="line"/>
      <point x="325" y="651"/>
      <point x="305" y="641"/>
      <point x="233" y="582" type="curve"/>
      <point x="267" y="667"/>
      <point x="271" y="688"/>
      <point x="271" y="707" type="curve"/>
      <point x="145" y="707" type="line"/>
      <point x="145" y="688"/>
      <point x="149" y="667"/>
      <point x="183" y="580" type="curve"/>
      <point x="112" y="639"/>
      <point x="93" y="649"/>
      <point x="75" y="655" type="curve"/>
      <point x="36" y="535" type="line"/>
      <point x="54" y="529"/>
      <point x="75" y="526"/>
      <point x="169" y="532" type="curve"/>
      <point x="90" y="483"/>
      <point x="75" y="467"/>
      <point x="64" y="452" type="curve"/>
    </contour>
  </outline>
</glyph>
<glyph name="plus" format="2">
  <advance width="434"/>
  <unicode hex="002B"/>
  <outline>
    <contour>
      <point x="160" y="121" type="line"/>
      <point x="274" y="121" type="line"/>
      <point x="274" y="246" type="line"/>
      <point x="394" y="246" type="line"/>
      <point x="394" y="356" type="line"/>
      <point x="274" y="356" type="line"/>
      <point x="274" y="481" type="line"/>
      <point x="160" y="481" type="line"/>
      <point x="160" y="356" type="line"/>
      <point x="40" y="356" type="line"/>
      <point x="40" y="246" type="line"/>
      <point x="160" y="246" type="line"/>
    </contour>
  </outline>
</glyph>
<glyph name="period" format="2">
  <advance width="254"/>
  <unicode hex="002E"/>
  <outline>
    <contour>
      <point x="126" y="-14" type="curve" smooth="yes"/>
      <point x="181" y="-14"/>
      <point x="214" y="26"/>
      <point x="214" y="70" type="curve" smooth="yes"/>
      <point x="214" y="115"/>
      <point x="181" y="157"/>
      <point x="126" y="157" type="curve" smooth="yes"/>
      <point x="73" y="157"/>
      <point x="40" y="115"/>
      <point x="40" y="70" type="curve" smooth="yes"/>
      <point x="40" y="26"/>
      <point x="73" y="-14"/>
    </contour>
  </outline>
</glyph>
<glyph name="slash" format="2">
  <advance width="326"/>
  <unicode hex="002F"/>
  <outline>
    <contour>
      <point x="-21" y="-185" type="line"/>
      <point x="104" y="-185" type="line"/>
      <point x="347" y="783" type="line"/>
      <point x="222" y="783" type="line"/>
    </contour>
  </outline>
</glyph>
<glyph name="zero" format="2">
  <advance width="434"/>
  <unicode hex="0030"/>
  <outline>
    <contour>
      <point x="217" y="-14" type="curve" smooth="yes"/>
      <point x="348.593" y="-14"/>
      <point x="404" y="93"/>
      <point x="404" y="347" type="curve"/>
      <point x="404" y="601"/>
      <point x="348.593" y="707"/>
      <point x="217" y="707" type="curve" smooth="yes"/>
      <point x="83.429" y="707"/>
      <point x="30" y="604"/>
      <point x="30" y="347" type="curve"/>
      <point x="30" y="89"/>
      <point x="83.429" y="-14"/>
    </contour>
    <contour>
      <point x="217" y="105" type="curve" smooth="yes"/>
      <point x="182.6" y="105"/>
      <point x="174" y="150.375"/>
      <point x="174" y="347" type="curve"/>
      <point x="174" y="542.623"/>
      <point x="182.6" y="588"/>
      <point x="217" y="588" type="curve" smooth="yes"/>
      <point x="251.4" y="588"/>
      <point x="260" y="542.623"/>
      <point x="260" y="347" type="curve"/>
      <point x="260" y="150.375"/>
      <point x="251.4" y="105"/>
    </contour>
  </outline>
</glyph>
<glyph name="two" format="2">
  <advance width="420"/>
  <unicode hex="0032"/>
  <outline>
    <contour>
      <point x="35" y="0" type="curve"/>
      <point x="391" y="0" type="line"/>
      <point x="391" y="114" type="line"/>
      <point x="190" y="114" type="line"/>
      <point x="200" y="177"/>
      <point x="220" y="217"/>
      <point x="277" y="298" type="curve" smooth="yes"/>
      <point x="341" y="389"/>
      <point x="384" y="454"/>
      <point x="384" y="537" type="curve"/>
      <point x="384" y="638"/>
      <point x="315" y="707"/>
      <point x="204" y="707" type="curve"/>
      <point x="132" y="707"/>
      <point x="70" y="684"/>
      <point x="23" y="645" type="curve"/>
      <point x="85" y="550" type="line"/>
      <point x="113" y="574"/>
      <point x="139" y="588"/>
      <point x="173" y="588" type="curve" smooth="yes"/>
      <point x="212" y="588"/>
      <point x="240" y="571"/>
      <point x="240" y="520" type="curve" smooth="yes"/>
      <point x="240" y="463"/>
      <point x="203" y="410"/>
      <point x="145" y="327" type="curve" smooth="yes"/>
      <point x="87" y="244"/>
      <point x="35" y="146"/>
      <point x="35" y="19" type="curve"/>
      <point x="35" y="13"/>
      <point x="35" y="6"/>
    </contour>
  </outline>
</glyph>
<glyph name="five" format="2">
  <advance width="420"/>
  <unicode hex="0035"/>
  <outline>
    <contour>
      <point x="169" y="-14" type="curve"/>
      <point x="302" y="-14"/>
      <point x="386" y="90"/>
      <point x="386" y="216" type="curve"/>
      <point x="386" y="329"/>
      <point x="324" y="409"/>
      <point x="188" y="436" type="curve"/>
      <point x="192" y="481"/>
      <point x="195" y="528"/>
      <point x="196" y="579" type="curve"/>
      <point x="367" y="579" type="line"/>
      <point x="367" y="693" type="line"/>
      <point x="80" y="693" type="line"/>
      <point x="81" y="605"/>
      <point x="70" y="434"/>
      <point x="59" y="335" type="curve"/>
      <point x="200" y="328"/>
      <point x="242" y="284"/>
      <point x="242" y="215" type="curve"/>
      <point x="242" y="139"/>
      <point x="210" y="105"/>
      <point x="150" y="105" type="curve"/>
      <point x="115" y="105"/>
      <point x="87" y="114"/>
      <point x="63" y="129" type="curve"/>
      <point x="29" y="17" type="line"/>
      <point x="63" y="-3"/>
      <point x="111" y="-14"/>
    </contour>
  </outline>
</glyph>
<glyph name="six" format="2">
  <advance width="420"/>
  <unicode hex="0036"/>
  <outline>
    <contour>
      <point x="212" y="-14" type="curve"/>
      <point x="324" y="-14"/>
      <point x="396" y="80"/>
      <point x="396" y="225" type="curve" smooth="yes"/>
      <point x="396" y="355"/>
      <point x="334" y="435"/>
      <point x="234" y="435" type="curve" smooth="yes"/>
      <point x="213" y="435"/>
      <point x="195" y="432"/>
      <point x="178" y="424" type="curve"/>
      <point x="205" y="531"/>
      <point x="266" y="584"/>
      <point x="367" y="587" type="curve"/>
      <point x="353" y="698" type="line"/>
      <point x="153" y="698"/>
      <point x="22" y="533"/>
      <point x="22" y="282" type="curve"/>
      <point x="22" y="81"/>
      <point x="80" y="-14"/>
    </contour>
    <contour>
      <point x="210" y="105" type="curve"/>
      <point x="175" y="105"/>
      <point x="163" y="144"/>
      <point x="163" y="259" type="curve" smooth="yes"/>
      <point x="163" y="271"/>
      <point x="164" y="292"/>
      <point x="167" y="319" type="curve"/>
      <point x="176" y="323"/>
      <point x="186" y="325"/>
      <point x="199" y="325" type="curve"/>
      <point x="242" y="325"/>
      <point x="256" y="299"/>
      <point x="256" y="221" type="curve" smooth="yes"/>
      <point x="256" y="137"/>
      <point x="244" y="105"/>
    </contour>
  </outline>
</glyph>
<glyph name="seven" format="2">
  <advance width="434"/>
  <unicode hex="0037"/>
  <outline>
    <contour>
      <point x="91" y="0" type="curve"/>
      <point x="231" y="0" type="line"/>
      <point x="248" y="197"/>
      <point x="311" y="430"/>
      <point x="402" y="597" type="curve"/>
      <point x="402" y="693" type="line"/>
      <point x="33" y="693" type="line"/>
      <point x="33" y="574" type="line"/>
      <point x="260" y="574" type="line"/>
      <point x="187" y="443"/>
      <point x="103" y="174"/>
    </contour>
  </outline>
</glyph>
<glyph name="eight" format="2">
  <advance width="434"/>
  <unicode hex="0038"/>
  <outline>
    <contour>
      <point x="214" y="-15" type="curve" smooth="yes"/>
      <point x="340" y="-15"/>
      <point x="402" y="69"/>
      <point x="402" y="177" type="curve"/>
      <point x="402" y="251"/>
      <point x="378" y="300"/>
      <point x="307" y="363" type="curve"/>
      <point x="361" y="422"/>
      <point x="385" y="478"/>
      <point x="385" y="540" type="curve" smooth="yes"/>
      <point x="385" y="639"/>
      <point x="314" y="707"/>
      <point x="210" y="707" type="curve" smooth="yes"/>
      <point x="114" y="707"/>
      <point x="40" y="630"/>
      <point x="40" y="529" type="curve" smooth="yes"/>
      <point x="40" y="465"/>
      <point x="60" y="416"/>
      <point x="118" y="357" type="curve"/>
      <point x="63" y="297"/>
      <point x="32" y="242"/>
      <point x="32" y="165" type="curve"/>
      <point x="32" y="70"/>
      <point x="96" y="-15"/>
    </contour>
    <contour>
      <point x="218" y="92" type="curve"/>
      <point x="184" y="92"/>
      <point x="172" y="127"/>
      <point x="172" y="176" type="curve"/>
      <point x="172" y="219"/>
      <point x="177" y="250"/>
      <point x="194" y="289" type="curve"/>
      <point x="245" y="243"/>
      <point x="262" y="210"/>
      <point x="262" y="168" type="curve" smooth="yes"/>
      <point x="262" y="114"/>
      <point x="244" y="92"/>
    </contour>
    <contour>
      <point x="234" y="424" type="curve"/>
      <point x="181" y="474"/>
      <point x="170" y="504"/>
      <point x="170" y="542" type="curve"/>
      <point x="170" y="580"/>
      <point x="183" y="600"/>
      <point x="211" y="600" type="curve" smooth="yes"/>
      <point x="240" y="600"/>
      <point x="255" y="576"/>
      <point x="255" y="534" type="curve" smooth="yes"/>
      <point x="255" y="487"/>
      <point x="250" y="454"/>
    </contour>
  </outline>
</glyph>
<glyph name="equal" format="2">
  <advance width="434"/>
  <unicode hex="003D"/>
  <outline>
    <contour>
      <point x="40" y="347" type="line"/>
      <point x="394" y="347" type="line"/>
      <point x="394" y="457" type="line"/>
      <point x="40" y="457" type="line"/>
    </contour>
    <contour>
      <point x="40" y="141" type="line"/>
      <point x="394" y="141" type="line"/>
      <point x="394" y="251" type="line"/>
      <point x="40" y="251" type="line"/>
    </contour>
  </outline>
</glyph>
<glyph name="greater" format="2">
  <advance width="434"/>
  <unicode hex="003E"/>
  <outline>
    <contour>
      <point x="92" y="67" type="line"/>
      <point x="394" y="249" type="line"/>
      <point x="394" y="351" type="line"/>
      <point x="92" y="533" type="line"/>
      <point x="40" y="429" type="line"/>
      <point x="264" y="300" type="line"/>
      <point x="40" y="171" type="line"/>
    </contour>
  </outline>
</glyph>
<glyph name="question" format="2">
  <advance width="386"/>
  <unicode hex="003F"/>
  <outline>
    <contour>
      <point x="106" y="221" type="curve"/>
      <point x="231" y="221" type="line"/>
      <point x="230" y="228"/>
      <point x="230" y="241"/>
      <point x="230" y="242" type="curve"/>
      <point x="230" y="364"/>
      <point x="365" y="400"/>
      <point x="365" y="541" type="curve"/>
      <point x="365" y="630"/>
      <point x="296" y="707"/>
      <point x="185" y="707" type="curve" smooth="yes"/>
      <point x="118" y="707"/>
      <point x="66" y="688"/>
      <point x="21" y="655" type="curve"/>
      <point x="67" y="552" type="line"/>
      <point x="105" y="580"/>
      <point x="131" y="588"/>
      <point x="159" y="588" type="curve" smooth="yes"/>
      <point x="199" y="588"/>
      <point x="220" y="566"/>
      <point x="220" y="526" type="curve"/>
      <point x="220" y="430"/>
      <point x="103" y="400"/>
      <point x="103" y="262" type="curve" smooth="yes"/>
      <point x="103" y="250"/>
      <point x="104" y="234"/>
    </contour>
    <contour>
      <point x="166" y="-14" type="curve" smooth="yes"/>
      <point x="221" y="-14"/>
      <point x="255" y="28"/>
      <point x="255" y="74" type="curve" smooth="yes"/>
      <point x="255" y="121"/>
      <point x="221" y="164"/>
      <point x="166" y="164" type="curve" smooth="yes"/>
      <point x="112" y="164"/>
      <point x="79" y="121"/>
      <point x="79" y="74" type="curve" smooth="yes"/>
      <point x="79" y="28"/>
      <point x="112" y="-14"/>
    </contour>
  </outline>
</glyph>
<glyph name="D" format="2">
  <advance width="592"/>
  <unicode hex="0044"/>
  <anchor x="298" y="0" name="bottom"/>
  <anchor x="298" y="347" name="center"/>
  <anchor x="277" y="683" name="top"/>
  <outline>
    <contour>
      <point x="251" y="-10" type="curve"/>
      <point x="436" y="-10"/>
      <point x="543" y="119.364"/>
      <point x="543" y="347" type="curve" smooth="yes"/>
      <point x="543" y="585"/>
      <point x="446" y="703"/>
      <point x="251" y="703" type="curve"/>
      <point x="186" y="703"/>
      <point x="133" y="697"/>
      <point x="78" y="682" type="curve"/>
      <point x="78" y="11" type="line"/>
      <point x="133" y="-4"/>
      <point x="186" y="-10"/>
    </contour>
    <contour>
      <point x="264" y="112" type="curve"/>
      <point x="247" y="112"/>
      <point x="233" y="113"/>
      <point x="220" y="116" type="curve"/>
      <point x="220" y="577" type="line"/>
      <point x="233" y="580"/>
      <point x="247" y="581"/>
      <point x="264" y="581" type="curve"/>
      <point x="353" y="581"/>
      <point x="393" y="509"/>
      <point x="393" y="347" type="curve" smooth="yes"/>
      <point x="393" y="191"/>
      <point x="350" y="112"/>
    </contour>
  </outline>
</glyph>
<glyph name="E" format="2">
  <advance width="491"/>
  <unicode hex="0045"/>
  <anchor x="246" y="0" name="bottom"/>
  <anchor x="433" y="10" name="ogonek"/>
  <anchor x="246" y="693" name="top"/>
  <anchor x="21" y="693" name="topleft"/>
  <outline>
    <contour>
      <point x="78" y="0" type="line"/>
      <point x="449" y="0" type="line"/>
      <point x="449" y="119" type="line"/>
      <point x="220" y="119" type="line"/>
      <point x="220" y="306" type="line"/>
      <point x="412" y="306" type="line"/>
      <point x="412" y="421" type="line"/>
      <point x="220" y="421" type="line"/>
      <point x="220" y="574" type="line"/>
      <point x="428" y="574" type="line"/>
      <point x="428" y="693" type="line"/>
      <point x="78" y="693" type="line"/>
    </contour>
  </outline>
</glyph>
<glyph name="F" format="2">
  <advance width="451"/>
  <unicode hex="0046"/>
  <anchor x="229" y="0" name="bottom"/>
  <anchor x="229" y="693" name="top"/>
  <outline>
    <contour>
      <point x="78" y="0" type="line"/>
      <point x="220" y="0" type="line"/>
      <point x="220" y="300" type="line"/>
      <point x="407" y="300" type="line"/>
      <point x="407" y="415" type="line"/>
      <point x="220" y="415" type="line"/>
      <point x="220" y="574" type="line"/>
      <point x="423" y="574" type="line"/>
      <point x="423" y="693" type="line"/>
      <point x="78" y="693" type="line"/>
    </contour>
  </outline>
</glyph>
<glyph name="G" format="2">
  <advance width="555"/>
  <unicode hex="0047"/>
  <anchor x="280" y="0" name="bottom"/>
  <anchor x="307" y="683" name="top"/>
  <outline>
    <contour>
      <point x="323" y="-14" type="curve"/>
      <point x="420" y="-14"/>
      <point x="483" y="10"/>
      <point x="487" y="14" type="curve"/>
      <point x="487" y="366" type="line"/>
      <point x="345" y="366" type="line"/>
      <point x="345" y="111" type="line"/>
      <point x="339" y="110"/>
      <point x="334" y="110"/>
      <point x="329" y="110" type="curve"/>
      <point x="234" y="110"/>
      <point x="199" y="174"/>
      <point x="199" y="348" type="curve" smooth="yes"/>
      <point x="199" y="522"/>
      <point x="233" y="583"/>
      <point x="330" y="583" type="curve"/>
      <point x="374" y="583"/>
      <point x="411" y="573"/>
      <point x="440" y="553" type="curve"/>
      <point x="481" y="672" type="line"/>
      <point x="444" y="694"/>
      <point x="388" y="707"/>
      <point x="331" y="707" type="curve"/>
      <point x="143" y="707"/>
      <point x="49" y="588"/>
      <point x="49" y="348" type="curve" smooth="yes"/>
      <point x="49" y="110"/>
      <point x="142" y="-14"/>
    </contour>
  </outline>
</glyph>
<glyph name="H" format="2">
  <advance width="598"/>
  <unicode hex="0048"/>
  <anchor x="299" y="0" name="bottom"/>
  <anchor x="299" y="347" name="center"/>
  <anchor x="299" y="693" name="top"/>
  <anchor x="20" y="693" name="topleft"/>
  <outline>
    <contour>
      <point x="78" y="0" type="line"/>
      <point x="220" y="0" type="line"/>
      <point x="220" y="300" type="line"/>
      <point x="378" y="300" type="line"/>
      <point x="378" y="0" type="line"/>
      <point x="520" y="0" type="line"/>
      <point x="520" y="693" type="line"/>
      <point x="378" y="693" type="line"/>
      <point x="378" y="420" type="line"/>
      <point x="220" y="420" type="line"/>
      <point x="220" y="693" type="line"/>
      <point x="78" y="693" type="line"/>
    </contour>
  </outline>
</glyph>
<glyph name="I" format="2">
  <advance width="298"/>
  <unicode hex="0049"/>
  <anchor x="149" y="0" name="bottom"/>
  <anchor x="266" y="10" name="ogonek"/>
  <anchor x="149" y="693" name="top"/>
  <anchor x="20" y="693" name="topleft"/>
  <outline>
    <contour>
      <point x="78" y="0" type="line"/>
      <point x="220" y="0" type="line"/>
      <point x="220" y="693" type="line"/>
      <point x="78" y="693" type="line"/>
    </contour>
  </outline>
</glyph>
<glyph name="J" format="2">
  <advance width="420"/>
  <unicode hex="004A"/>
  <anchor x="211" y="0" name="bottom"/>
  <anchor x="211" y="693" name="top"/>
  <outline>
    <contour>
      <point x="154" y="-14" type="curve" smooth="yes"/>
      <point x="287" y="-14"/>
      <point x="351" y="56.35"/>
      <point x="351" y="196" type="curve" smooth="yes"/>
      <point x="351" y="693" type="line"/>
      <point x="209" y="693" type="line"/>
      <point x="209" y="201" type="line" smooth="yes"/>
      <point x="209" y="136"/>
      <point x="185" y="110"/>
      <point x="147" y="110" type="curve"/>
      <point x="114" y="110"/>
      <point x="80" y="122"/>
      <point x="53" y="142" type="curve"/>
      <point x="7" y="31" type="line"/>
      <point x="36" y="4"/>
      <point x="95" y="-14"/>
    </contour>
  </outline>
</glyph>
<glyph name="K" format="2">
  <advance width="545"/>
  <unicode hex="004B"/>
  <anchor x="267" y="0" name="bottom"/>
  <anchor x="283" y="683" name="top"/>
  <outline>
    <contour>
      <point x="78" y="0" type="line"/>
      <point x="220" y="0" type="line"/>
      <point x="220" y="296" type="line"/>
      <point x="283" y="233"/>
      <point x="351" y="110"/>
      <point x="384" y="0" type="curve"/>
      <point x="535" y="0" type="line"/>
      <point x="487" y="134"/>
      <point x="413" y="271"/>
      <point x="342" y="359" type="curve"/>
      <point x="406" y="469"/>
      <point x="472" y="598"/>
      <point x="513" y="693" type="curve"/>
      <point x="371" y="693" type="line"/>
      <point x="337" y="611"/>
      <point x="276" y="489"/>
      <point x="220" y="395" type="curve"/>
      <point x="220" y="693" type="line"/>
      <point x="78" y="693" type="line"/>
    </contour>
  </outline>
</glyph>
<glyph name="L" format="2">
  <advance width="455"/>
  <unicode hex="004C"/>
  <anchor x="228" y="0" name="bottom"/>
  <anchor x="228" y="347" name="center"/>
  <anchor x="228" y="693" name="top"/>
  <anchor x="428" y="693" name="topright"/>
  <outline>
    <contour>
      <point x="78" y="0" type="line"/>
      <point x="431" y="0" type="line"/>
      <point x="431" y="119" type="line"/>
      <point x="220" y="119" type="line"/>
      <point x="220" y="693" type="line"/>
      <point x="78" y="693" type="line"/>
    </contour>
  </outline>
</glyph>
<glyph name="P" format="2">
  <advance width="519"/>
  <unicode hex="0050"/>
  <anchor x="257" y="0" name="bottom"/>
  <anchor x="257" y="693" name="top"/>
  <outline>
    <contour>
      <point x="78" y="0" type="line"/>
      <point x="220" y="0" type="line"/>
      <point x="220" y="239" type="line"/>
      <point x="247" y="239" type="line" smooth="yes"/>
      <point x="396" y="239"/>
      <point x="492" y="331"/>
      <point x="492" y="472" type="curve" smooth="yes"/>
      <point x="492" y="619"/>
      <point x="401" y="703"/>
      <point x="242" y="703" type="curve"/>
      <point x="186" y="703"/>
      <point x="136" y="697"/>
      <point x="78" y="683" type="curve"/>
    </contour>
    <contour>
      <point x="220" y="359" type="line"/>
      <point x="220" y="577" type="line"/>
      <point x="227" y="580"/>
      <point x="239" y="581"/>
      <point x="248" y="581" type="curve" smooth="yes"/>
      <point x="313" y="581"/>
      <point x="344" y="546"/>
      <point x="344" y="472" type="curve" smooth="yes"/>
      <point x="344" y="393"/>
      <point x="314" y="359"/>
      <point x="245" y="359" type="curve" smooth="yes"/>
    </contour>
  </outline>
</glyph>
<glyph name="Q" format="2">
  <advance width="618"/>
  <unicode hex="0051"/>
  <anchor x="319" y="0" name="bottom"/>
  <anchor x="319" y="693" name="top"/>
  <outline>
    <contour>
      <point x="521" y="-188" type="curve"/>
      <point x="552" y="-82" type="line"/>
      <point x="448" y="-66"/>
      <point x="410" y="-44"/>
      <point x="396" y="0" type="curve"/>
      <point x="507" y="40"/>
      <point x="569" y="161"/>
      <point x="569" y="346" type="curve" smooth="yes"/>
      <point x="569" y="576"/>
      <point x="475" y="707"/>
      <point x="309" y="707" type="curve" smooth="yes"/>
      <point x="144" y="707"/>
      <point x="49" y="576"/>
      <point x="49" y="348" type="curve" smooth="yes"/>
      <point x="49" y="141"/>
      <point x="126" y="13"/>
      <point x="262" y="-10" type="curve"/>
      <point x="292" y="-120"/>
      <point x="349" y="-170"/>
    </contour>
    <contour>
      <point x="309" y="110" type="curve" smooth="yes"/>
      <point x="233" y="110"/>
      <point x="199" y="184"/>
      <point x="199" y="348" type="curve" smooth="yes"/>
      <point x="199" y="511"/>
      <point x="232" y="583"/>
      <point x="309" y="583" type="curve" smooth="yes"/>
      <point x="386" y="583"/>
      <point x="419" y="511"/>
      <point x="419" y="346" type="curve" smooth="yes"/>
      <point x="419" y="182"/>
      <point x="386" y="110"/>
    </contour>
  </outline>
</glyph>
<glyph name="S" format="2">
  <advance width="431"/>
  <unicode hex="0053"/>
  <anchor x="215" y="0" name="bottom"/>
  <anchor x="224" y="693" name="top"/>
  <outline>
    <contour>
      <point x="184" y="-14" type="curve" smooth="yes"/>
      <point x="321" y="-14"/>
      <point x="404" y="83"/>
      <point x="404" y="201" type="curve"/>
      <point x="404" y="268"/>
      <point x="374" y="338"/>
      <point x="283" y="399" type="curve" smooth="yes"/>
      <point x="192" y="460"/>
      <point x="172" y="479"/>
      <point x="172" y="521" type="curve" smooth="yes"/>
      <point x="172" y="563"/>
      <point x="198" y="587"/>
      <point x="245" y="587" type="curve" smooth="yes"/>
      <point x="281" y="587"/>
      <point x="319" y="575"/>
      <point x="346" y="556" type="curve"/>
      <point x="389" y="666" type="line"/>
      <point x="343" y="693"/>
      <point x="292" y="707"/>
      <point x="235" y="707" type="curve" smooth="yes"/>
      <point x="110" y="707"/>
      <point x="27" y="618"/>
      <point x="27" y="507" type="curve" smooth="yes"/>
      <point x="27" y="431"/>
      <point x="65" y="372"/>
      <point x="148" y="317" type="curve" smooth="yes"/>
      <point x="231" y="262"/>
      <point x="259" y="229"/>
      <point x="259" y="177" type="curve" smooth="yes"/>
      <point x="259" y="133"/>
      <point x="227" y="106"/>
      <point x="178" y="106" type="curve" smooth="yes"/>
      <point x="142" y="106"/>
      <point x="96" y="123"/>
      <point x="61" y="151" type="curve"/>
      <point x="18" y="34" type="line"/>
      <point x="56" y="6"/>
      <point x="124" y="-14"/>
    </contour>
  </outline>
</glyph>
<glyph name="T" format="2">
  <advance width="464"/>
  <unicode hex="0054"/>
  <anchor x="232" y="0" name="bottom"/>
  <anchor x="232" y="347" name="center"/>
  <anchor x="232" y="693" name="top"/>
  <outline>
    <contour>
      <point x="161" y="0" type="line"/>
      <point x="303" y="0" type="line"/>
      <point x="303" y="574" type="line"/>
      <point x="448" y="574" type="line"/>
      <point x="448" y="693" type="line"/>
      <point x="16" y="693" type="line"/>
      <point x="16" y="574" type="line"/>
      <point x="161" y="574" type="line"/>
    </contour>
  </outline>
</glyph>
<glyph name="U" format="2">
  <advance width="570"/>
  <unicode hex="0055"/>
  <anchor x="285" y="0" name="bottom"/>
  <anchor x="515" y="10" name="ogonek"/>
  <anchor x="285" y="693" name="top"/>
  <anchor x="554" y="693" name="topright"/>
  <outline>
    <contour>
      <point x="285" y="-14" type="curve" smooth="yes"/>
      <point x="429" y="-14"/>
      <point x="502" y="67"/>
      <point x="502" y="211" type="curve" smooth="yes"/>
      <point x="502" y="693" type="line"/>
      <point x="360" y="693" type="line"/>
      <point x="360" y="222" type="line" smooth="yes"/>
      <point x="360" y="143"/>
      <point x="338" y="110"/>
      <point x="285" y="110" type="curve" smooth="yes"/>
      <point x="232" y="110"/>
      <point x="210" y="143"/>
      <point x="210" y="222" type="curve" smooth="yes"/>
      <point x="210" y="693" type="line"/>
      <point x="68" y="693" type="line"/>
      <point x="68" y="211" type="line" smooth="yes"/>
      <point x="68" y="67"/>
      <point x="141" y="-14"/>
    </contour>
  </outline>
</glyph>
<glyph name="bracketleft" format="2">
  <advance width="320"/>
  <unicode hex="005B"/>
  <outline>
    <contour>
      <point x="88" y="-185" type="line"/>
      <point x="313" y="-185" type="line"/>
      <point x="313" y="-84" type="line"/>
      <point x="214" y="-84" type="line"/>
      <point x="214" y="681" type="line"/>
      <point x="313" y="681" type="line"/>
      <point x="313" y="783" type="line"/>
      <point x="88" y="783" type="line"/>
    </contour>
  </outline>
</glyph>
<glyph name="backslash" format="2">
  <advance width="317"/>
  <unicode hex="005C"/>
  <outline>
    <contour>
      <point x="222" y="-185" type="line"/>
      <point x="347" y="-185" type="line"/>
      <point x="104" y="783" type="line"/>
      <point x="-21" y="783" type="line"/>
    </contour>
  </outline>
</glyph>
<glyph name="bracketright" format="2">
  <advance width="320"/>
  <unicode hex="005D"/>
  <outline>
    <contour>
      <point x="7" y="-185" type="line"/>
      <point x="232" y="-185" type="line"/>
      <point x="232" y="783" type="line"/>
      <point x="7" y="783" type="line"/>
      <point x="7" y="681" type="line"/>
      <point x="106" y="681" type="line"/>
      <point x="106" y="-84" type="line"/>
      <point x="7" y="-84" type="line"/>
    </contour>
  </outline>
</glyph>
<glyph name="underscore" format="2">
  <advance width="370"/>
  <unicode hex="005F"/>
  <outline>
    <contour>
      <point x="0" y="-185" type="line"/>
      <point x="370" y="-185" type="line"/>
      <point x="370" y="-68" type="line"/>
      <point x="0" y="-68" type="line"/>
    </contour>
  </outline>
</glyph>
<glyph name="grave" format="2">
  <advance width="267"/>
  <unicode hex="0060"/>
  <outline>
    <contour>
      <point x="140" y="578" type="line"/>
      <point x="208" y="639" type="line"/>
      <point x="98" y="785" type="line"/>
      <point x="7" y="707" type="line"/>
    </contour>
  </outline>
</glyph>
<glyph name="a" format="2">
  <advance width="452"/>
  <unicode hex="0061"/>
  <anchor x="226" y="0" name="bottom"/>
  <anchor x="409" y="10" name="ogonek"/>
  <anchor x="226" y="527" name="top"/>
  <outline>
    <contour>
      <point x="221" y="-10" type="curve" smooth="yes"/>
      <point x="272" y="-10"/>
      <point x="333" y="-3"/>
      <point x="389" y="13" type="curve"/>
      <point x="389" y="339" type="line" smooth="yes"/>
      <point x="389" y="483.699"/>
      <point x="308" y="546"/>
      <point x="191" y="546" type="curve" smooth="yes"/>
      <point x="150" y="546"/>
      <point x="100" y="536"/>
      <point x="69" y="525" type="curve"/>
      <point x="88" y="415" type="line"/>
      <point x="118" y="425"/>
      <point x="143" y="429"/>
      <point x="166" y="429" type="curve" smooth="yes"/>
      <point x="227" y="429"/>
      <point x="255" y="407"/>
      <point x="255" y="345" type="curve" smooth="yes"/>
      <point x="255" y="321" type="line"/>
      <point x="240" y="323"/>
      <point x="220" y="324"/>
      <point x="204" y="324" type="curve"/>
      <point x="102" y="324"/>
      <point x="34" y="266"/>
      <point x="34" y="159" type="curve" smooth="yes"/>
      <point x="34" y="50"/>
      <point x="100.447" y="-10"/>
    </contour>
    <contour>
      <point x="227" y="93" type="curve" smooth="yes"/>
      <point x="188" y="93"/>
      <point x="169" y="113"/>
      <point x="169" y="159" type="curve" smooth="yes"/>
      <point x="169" y="205"/>
      <point x="187" y="228"/>
      <point x="226" y="228" type="curve" smooth="yes"/>
      <point x="237" y="228"/>
      <point x="247" y="227"/>
      <point x="255" y="224" type="curve"/>
      <point x="255" y="96" type="line"/>
      <point x="249" y="94"/>
      <point x="239" y="93"/>
    </contour>
  </outline>
</glyph>
<glyph name="c" format="2">
  <advance width="383"/>
  <unicode hex="0063"/>
  <anchor x="205" y="0" name="bottom"/>
  <anchor x="231" y="532" name="top"/>
  <outline>
    <contour>
      <point x="251" y="-14" type="curve" smooth="yes"/>
      <point x="300" y="-14"/>
      <point x="335" y="-8"/>
      <point x="363" y="5" type="curve"/>
      <point x="345" y="118" type="line"/>
      <point x="328" y="110"/>
      <point x="312" y="106"/>
      <point x="286" y="106" type="curve"/>
      <point x="230.439" y="106"/>
      <point x="187" y="145.245"/>
      <point x="187" y="266" type="curve" smooth="yes"/>
      <point x="187" y="387.761"/>
      <point x="219.372" y="426"/>
      <point x="274" y="426" type="curve"/>
      <point x="296" y="426"/>
      <point x="316" y="420"/>
      <point x="336" y="408" type="curve"/>
      <point x="363" y="522" type="line"/>
      <point x="330" y="538"/>
      <point x="295" y="546"/>
      <point x="253" y="546" type="curve" smooth="yes"/>
      <point x="122" y="546"/>
      <point x="43" y="441"/>
      <point x="43" y="266" type="curve" smooth="yes"/>
      <point x="43" y="84"/>
      <point x="118" y="-14"/>
    </contour>
  </outline>
</glyph>
<glyph name="e" format="2">
  <advance width="462"/>
  <unicode hex="0065"/>
  <anchor x="231" y="0" name="bottom"/>
  <anchor x="404" y="10" name="ogonek"/>
  <anchor x="236" y="532" name="top"/>
  <outline>
    <contour>
      <point x="265" y="-14" type="curve" smooth="yes"/>
      <point x="315" y="-14"/>
      <point x="359" y="-7"/>
      <point x="397" y="11" type="curve"/>
      <point x="381" y="119" type="line"/>
      <point x="359" y="109"/>
      <point x="325" y="106"/>
      <point x="290" y="106" type="curve" smooth="yes"/>
      <point x="222" y="106"/>
      <point x="186" y="145"/>
      <point x="185" y="215" type="curve"/>
      <point x="417" y="215" type="line"/>
      <point x="418" y="233"/>
      <point x="419" y="251"/>
      <point x="419" y="272" type="curve"/>
      <point x="419" y="439"/>
      <point x="357" y="546"/>
      <point x="238" y="546" type="curve" smooth="yes"/>
      <point x="119" y="546"/>
      <point x="43" y="440"/>
      <point x="43" y="259" type="curve" smooth="yes"/>
      <point x="43" y="85"/>
      <point x="124" y="-14"/>
    </contour>
    <contour>
      <point x="184" y="312" type="line"/>
      <point x="186" y="400"/>
      <point x="200" y="435"/>
      <point x="234" y="435" type="curve"/>
      <point x="268" y="435"/>
      <point x="285" y="402"/>
      <point x="287" y="312" type="curve"/>
    </contour>
  </outline>
</glyph>
<glyph name="g" format="2">
  <advance width="497"/>
  <unicode hex="0067"/>
  <anchor x="248" y="-185" name="bottom"/>
  <anchor x="252" y="532" name="top"/>
  <outline>
    <contour>
      <point x="227" y="-188" type="curve" smooth="yes"/>
      <point x="367" y="-188"/>
      <point x="428" y="-93"/>
      <point x="428" y="48" type="curve" smooth="yes"/>
      <point x="428" y="521" type="line"/>
      <point x="369" y="535"/>
      <point x="316" y="542"/>
      <point x="258" y="542" type="curve"/>
      <point x="118" y="542"/>
      <point x="43" y="453"/>
      <point x="43" y="288" type="curve" smooth="yes"/>
      <point x="43" y="108"/>
      <point x="103.375" y="20"/>
      <point x="227" y="20" type="curve"/>
      <point x="248.764" y="20"/>
      <point x="270.952" y="23.036"/>
      <point x="290" y="32" type="curve"/>
      <point x="290" y="15" type="line"/>
      <point x="290" y="-38"/>
      <point x="258" y="-71"/>
      <point x="205" y="-72" type="curve"/>
      <point x="170" y="-72"/>
      <point x="135" y="-64"/>
      <point x="101" y="-48" type="curve"/>
      <point x="76" y="-163" type="line"/>
      <point x="116" y="-180"/>
      <point x="165" y="-188"/>
    </contour>
    <contour>
      <point x="255" y="137" type="curve"/>
      <point x="206" y="137"/>
      <point x="187" y="168"/>
      <point x="187" y="288" type="curve" smooth="yes"/>
      <point x="187" y="397"/>
      <point x="215" y="425"/>
      <point x="256" y="425" type="curve"/>
      <point x="271" y="425"/>
      <point x="280" y="424"/>
      <point x="290" y="421" type="curve"/>
      <point x="290" y="144" type="line"/>
      <point x="282" y="139"/>
      <point x="271" y="137"/>
    </contour>
  </outline>
</glyph>
<glyph name="h" format="2">
  <advance width="505"/>
  <unicode hex="0068"/>
  <anchor x="252" y="0" name="bottom"/>
  <anchor x="252" y="388" name="center"/>
  <anchor x="252" y="776" name="top"/>
  <outline>
    <contour>
      <point x="69" y="0" type="line"/>
      <point x="207" y="0" type="line"/>
      <point x="207" y="421" type="line"/>
      <point x="216" y="424"/>
      <point x="225" y="425"/>
      <point x="234" y="425" type="curve" smooth="yes"/>
      <point x="286" y="425"/>
      <point x="304" y="394"/>
      <point x="304" y="307" type="curve" smooth="yes"/>
      <point x="304" y="0" type="line"/>
      <point x="442" y="0" type="line"/>
      <point x="442" y="313" type="line" smooth="yes"/>
      <point x="442" y="454"/>
      <point x="371" y="542"/>
      <point x="258" y="542" type="curve"/>
      <point x="239" y="542"/>
      <point x="222" y="540"/>
      <point x="207" y="535" type="curve"/>
      <point x="207" y="776" type="line"/>
      <point x="69" y="754" type="line"/>
    </contour>
  </outline>
</glyph>
<glyph name="k" format="2">
  <advance width="458"/>
  <unicode hex="006B"/>
  <anchor x="234" y="0" name="bottom"/>
  <anchor x="242" y="776" name="top"/>
  <outline>
    <contour>
      <point x="69" y="0" type="line"/>
      <point x="207" y="0" type="line"/>
      <point x="207" y="234" type="line"/>
      <point x="250" y="177"/>
      <point x="287.09" y="83.656"/>
      <point x="309" y="0" type="curve"/>
      <point x="455" y="0" type="line"/>
      <point x="425" y="104"/>
      <point x="368" y="217"/>
      <point x="315" y="282" type="curve"/>
      <point x="358" y="352"/>
      <point x="413.363" y="451.794"/>
      <point x="450" y="532" type="curve"/>
      <point x="304" y="532" type="line"/>
      <point x="281.203" y="473.521"/>
      <point x="238" y="376"/>
      <point x="207" y="317" type="curve"/>
      <point x="207" y="776" type="line"/>
      <point x="69" y="754" type="line"/>
    </contour>
  </outline>
</glyph>
<glyph name="l" format="2">
  <advance width="285"/>
  <unicode hex="006C"/>
  <anchor x="142" y="0" name="bottom"/>
  <anchor x="142" y="388" name="center"/>
  <anchor x="142" y="776" name="top"/>
  <anchor x="263" y="776" name="topright"/>
  <outline>
    <contour>
      <point x="256" y="-14" type="curve"/>
      <point x="272" y="98" type="line"/>
      <point x="223" y="101"/>
      <point x="207" y="117"/>
      <point x="207" y="160" type="curve" smooth="yes"/>
      <point x="207" y="776" type="line"/>
      <point x="69" y="754" type="line"/>
      <point x="69" y="158" type="line" smooth="yes"/>
      <point x="69" y="44"/>
      <point x="130" y="-10"/>
    </contour>
  </outline>
</glyph>
<glyph name="m" format="2">
  <advance width="730"/>
  <unicode hex="006D"/>
  <anchor x="380" y="0" name="bottom"/>
  <anchor x="380" y="527" name="top"/>
  <outline>
    <contour>
      <point x="69" y="0" type="line"/>
      <point x="207" y="0" type="line"/>
      <point x="207" y="422" type="line"/>
      <point x="217" y="424"/>
      <point x="226" y="425"/>
      <point x="234" y="425" type="curve" smooth="yes"/>
      <point x="286" y="425"/>
      <point x="299" y="402"/>
      <point x="299" y="307" type="curve" smooth="yes"/>
      <point x="299" y="0" type="line"/>
      <point x="437" y="0" type="line"/>
      <point x="437" y="313" type="line" smooth="yes"/>
      <point x="437" y="351"/>
      <point x="433" y="384"/>
      <point x="425" y="413" type="curve"/>
      <point x="440" y="421"/>
      <point x="452" y="425"/>
      <point x="467" y="425" type="curve"/>
      <point x="514" y="425"/>
      <point x="529" y="397"/>
      <point x="529" y="307" type="curve" smooth="yes"/>
      <point x="529" y="0" type="line"/>
      <point x="667" y="0" type="line"/>
      <point x="667" y="313" type="line" smooth="yes"/>
      <point x="667" y="467"/>
      <point x="607" y="542"/>
      <point x="483" y="542" type="curve"/>
      <point x="441" y="542"/>
      <point x="402" y="529"/>
      <point x="367" y="505" type="curve"/>
      <point x="335" y="530"/>
      <point x="292" y="542"/>
      <point x="238" y="542" type="curve" smooth="yes"/>
      <point x="179" y="542"/>
      <point x="125" y="535"/>
      <point x="69" y="521" type="curve"/>
    </contour>
  </outline>
</glyph>
<glyph name="n" format="2">
  <advance width="505"/>
  <unicode hex="006E"/>
  <anchor x="252" y="0" name="bottom"/>
  <anchor x="252" y="527" name="top"/>
  <outline>
    <contour>
      <point x="69" y="0" type="line"/>
      <point x="207" y="0" type="line"/>
      <point x="207" y="422" type="line"/>
      <point x="217" y="424"/>
      <point x="226" y="425"/>
      <point x="234" y="425" type="curve" smooth="yes"/>
      <point x="286" y="425"/>
      <point x="304" y="394"/>
      <point x="304" y="307" type="curve" smooth="yes"/>
      <point x="304" y="0" type="line"/>
      <point x="442" y="0" type="line"/>
      <point x="442" y="313" type="line" smooth="yes"/>
      <point x="442" y="467"/>
      <point x="375" y="542"/>
      <point x="238" y="542" type="curve" smooth="yes"/>
      <point x="179" y="542"/>
      <point x="125" y="535"/>
      <point x="69" y="521" type="curve"/>
    </contour>
  </outline>
</glyph>
<glyph name="o" format="2">
  <advance width="486"/>
  <unicode hex="006F"/>
  <anchor x="243" y="0" name="bottom"/>
  <anchor x="243" y="263" name="center"/>
  <anchor x="433" y="10" name="ogonek"/>
  <anchor x="243" y="532" name="top"/>
  <anchor x="460" y="527" name="topright"/>
  <outline>
    <contour>
      <point x="243" y="-14" type="curve" smooth="yes"/>
      <point x="370" y="-14"/>
      <point x="443" y="88"/>
      <point x="443" y="266" type="curve" smooth="yes"/>
      <point x="443" y="444"/>
      <point x="370" y="546"/>
      <point x="243" y="546" type="curve" smooth="yes"/>
      <point x="116" y="546"/>
      <point x="43" y="444"/>
      <point x="43" y="266" type="curve" smooth="yes"/>
      <point x="43" y="88"/>
      <point x="116" y="-14"/>
    </contour>
    <contour>
      <point x="243" y="105" type="curve" smooth="yes"/>
      <point x="203" y="105"/>
      <point x="187" y="150"/>
      <point x="187" y="266" type="curve" smooth="yes"/>
      <point x="187" y="382"/>
      <point x="203" y="427"/>
      <point x="243" y="427" type="curve" smooth="yes"/>
      <point x="283" y="427"/>
      <point x="299" y="382"/>
      <point x="299" y="266" type="curve" smooth="yes"/>
      <point x="299" y="149"/>
      <point x="284" y="105"/>
    </contour>
  </outline>
</glyph>
<glyph name="q" format="2">
  <advance width="497"/>
  <unicode hex="0071"/>
  <anchor x="230" y="0" name="bottom"/>
  <anchor x="230" y="527" name="top"/>
  <outline>
    <contour>
      <point x="290" y="-185" type="line"/>
      <point x="428" y="-185" type="line"/>
      <point x="428" y="521" type="line"/>
      <point x="371" y="535"/>
      <point x="318" y="542"/>
      <point x="258" y="542" type="curve"/>
      <point x="118" y="542"/>
      <point x="43" y="448"/>
      <point x="43" y="275" type="curve" smooth="yes"/>
      <point x="43" y="84"/>
      <point x="104" y="-10"/>
      <point x="229" y="-10" type="curve"/>
      <point x="250" y="-10"/>
      <point x="273" y="-6"/>
      <point x="290" y="2" type="curve"/>
    </contour>
    <contour>
      <point x="255" y="107" type="curve"/>
      <point x="208" y="107"/>
      <point x="187" y="140"/>
      <point x="187" y="275" type="curve" smooth="yes"/>
      <point x="187" y="399"/>
      <point x="209" y="425"/>
      <point x="261" y="425" type="curve"/>
      <point x="272" y="425"/>
      <point x="281" y="424"/>
      <point x="290" y="422" type="curve"/>
      <point x="290" y="114" type="line"/>
      <point x="281" y="109"/>
      <point x="268" y="107"/>
    </contour>
  </outline>
</glyph>
<glyph name="r" format="2">
  <advance width="363"/>
  <unicode hex="0072"/>
  <anchor x="136" y="0" name="bottom"/>
  <anchor x="212" y="532" name="top"/>
  <outline>
    <contour>
      <point x="69" y="0" type="line"/>
      <point x="207" y="0" type="line"/>
      <point x="207" y="417" type="line"/>
      <point x="223" y="423"/>
      <point x="242" y="425"/>
      <point x="267" y="425" type="curve"/>
      <point x="289" y="425"/>
      <point x="311" y="421"/>
      <point x="331" y="414" type="curve"/>
      <point x="356" y="527" type="line"/>
      <point x="334" y="536"/>
      <point x="293" y="542"/>
      <point x="250" y="542" type="curve"/>
      <point x="184" y="542"/>
      <point x="109" y="527"/>
      <point x="69" y="507" type="curve"/>
    </contour>
  </outline>
</glyph>
<glyph name="s" format="2">
  <advance width="376"/>
  <unicode hex="0073"/>
  <anchor x="173" y="0" name="bottom"/>
  <anchor x="196" y="532" name="top"/>
  <outline>
    <contour>
      <point x="165" y="-14" type="curve" smooth="yes"/>
      <point x="275" y="-14"/>
      <point x="348" y="52"/>
      <point x="348" y="154" type="curve" smooth="yes"/>
      <point x="348" y="219"/>
      <point x="313" y="267"/>
      <point x="254" y="307" type="curve" smooth="yes"/>
      <point x="195" y="347"/>
      <point x="175" y="361"/>
      <point x="175" y="393" type="curve"/>
      <point x="175" y="420.333"/>
      <point x="194" y="434"/>
      <point x="230" y="434" type="curve" smooth="yes"/>
      <point x="254" y="434"/>
      <point x="278" y="430"/>
      <point x="308" y="418" type="curve"/>
      <point x="330" y="524" type="line"/>
      <point x="312" y="533"/>
      <point x="269" y="546"/>
      <point x="218" y="546" type="curve" smooth="yes"/>
      <point x="111" y="546"/>
      <point x="41" y="475"/>
      <point x="41" y="379" type="curve" smooth="yes"/>
      <point x="41" y="310"/>
      <point x="67" y="270"/>
      <point x="129" y="231" type="curve" smooth="yes"/>
      <point x="191" y="192"/>
      <point x="210" y="175"/>
      <point x="210" y="142" type="curve"/>
      <point x="210" y="116"/>
      <point x="194" y="98"/>
      <point x="153" y="98" type="curve"/>
      <point x="126" y="98"/>
      <point x="90" y="108"/>
      <point x="62" y="124" type="curve"/>
      <point x="36" y="17" type="line"/>
      <point x="60" y="3"/>
      <point x="110" y="-14"/>
    </contour>
  </outline>
</glyph>
<glyph name="t" format="2">
  <advance width="363"/>
  <unicode hex="0074"/>
  <anchor x="182" y="0" name="bottom"/>
  <anchor x="182" y="263" name="center"/>
  <anchor x="182" y="527" name="top"/>
  <anchor x="330" y="776" name="topright"/>
  <outline>
    <contour>
      <point x="230" y="-14" type="curve" smooth="yes"/>
      <point x="268" y="-14"/>
      <point x="315" y="-2"/>
      <point x="338" y="15" type="curve"/>
      <point x="317" y="121" type="line"/>
      <point x="298.291" y="110.168"/>
      <point x="281" y="106"/>
      <point x="257" y="106" type="curve"/>
      <point x="220" y="106"/>
      <point x="201" y="131"/>
      <point x="201" y="192" type="curve" smooth="yes"/>
      <point x="201" y="419" type="line"/>
      <point x="328" y="419" type="line"/>
      <point x="328" y="532" type="line"/>
      <point x="201" y="532" type="line"/>
      <point x="201" y="681" type="line"/>
      <point x="63" y="659" type="line"/>
      <point x="63" y="200" type="line" smooth="yes"/>
      <point x="63" y="59"/>
      <point x="112" y="-14"/>
    </contour>
  </outline>
</glyph>
<glyph name="w" format="2">
  <advance width="593"/>
  <unicode hex="0077"/>
  <anchor x="296" y="0" name="bottom"/>
  <anchor x="296" y="527" name="top"/>
  <outline>
    <contour>
      <point x="101" y="0" type="curve"/>
      <point x="234" y="0" type="line"/>
      <point x="254" y="80"/>
      <point x="276" y="166"/>
      <point x="296" y="283" type="curve"/>
      <point x="317" y="166"/>
      <point x="339" y="80"/>
      <point x="359" y="0" type="curve"/>
      <point x="492" y="0" type="line"/>
      <point x="519" y="106"/>
      <point x="560" y="344"/>
      <point x="584" y="532" type="curve"/>
      <point x="448" y="532" type="line"/>
      <point x="441" y="430"/>
      <point x="427" y="301"/>
      <point x="407" y="160" type="curve"/>
      <point x="381" y="301"/>
      <point x="367" y="432"/>
      <point x="361" y="532" type="curve"/>
      <point x="236" y="532" type="line"/>
      <point x="229" y="432"/>
      <point x="213" y="300"/>
      <point x="185" y="160" type="curve"/>
      <point x="167" y="301"/>
      <point x="156" y="430"/>
      <point x="151" y="532" type="curve"/>
      <point x="9" y="532" type="line"/>
      <point x="33" y="344"/>
      <point x="74" y="106"/>
    </contour>
  </outline>
</glyph>
<glyph name="x" format="2">
  <advance width="413"/>
  <unicode hex="0078"/>
  <anchor x="202" y="0" name="bottom"/>
  <anchor x="202" y="527" name="top"/>
  <outline>
    <contour>
      <point x="5" y="0" type="curve"/>
      <point x="141" y="0" type="line"/>
      <point x="156" y="56"/>
      <point x="173" y="102"/>
      <point x="203" y="167" type="curve"/>
      <point x="234" y="99"/>
      <point x="251" y="52"/>
      <point x="265" y="0" type="curve"/>
      <point x="408" y="0" type="line"/>
      <point x="377" y="85"/>
      <point x="348" y="154"/>
      <point x="294" y="265" type="curve"/>
      <point x="406" y="532" type="line"/>
      <point x="269" y="532" type="line"/>
      <point x="211" y="362" type="line"/>
      <point x="150" y="532" type="line"/>
      <point x="7" y="532" type="line"/>
      <point x="119" y="265" type="line"/>
      <point x="65" y="154"/>
      <point x="36" y="85"/>
    </contour>
  </outline>
</glyph>
<glyph name="z" format="2">
  <advance width="369"/>
  <unicode hex="007A"/>
  <anchor x="185" y="0" name="bottom"/>
  <anchor x="185" y="266" name="center"/>
  <anchor x="185" y="532" name="top"/>
  <outline>
    <contour>
      <point x="32" y="0" type="line"/>
      <point x="344" y="0" type="line"/>
      <point x="344" y="113" type="line"/>
      <point x="178" y="113" type="line"/>
      <point x="230" y="230"/>
      <point x="293" y="355"/>
      <point x="336" y="426" type="curve"/>
      <point x="336" y="532" type="line"/>
      <point x="44" y="532" type="line"/>
      <point x="44" y="419" type="line"/>
      <point x="189" y="419" type="line"/>
      <point x="131" y="314"/>
      <point x="68" y="183"/>
      <point x="32" y="94" type="curve"/>
    </contour>
  </outline>
</glyph>
<glyph name="bar" format="2">
  <advance width="302"/>
  <unicode hex="007C"/>
  <outline>
    <contour>
      <point x="88" y="-185" type="line"/>
      <point x="214" y="-185" type="line"/>
      <point x="214" y="783" type="line"/>
      <point x="88" y="783" type="line"/>
    </contour>
  </outline>
</glyph>
<glyph name="asciitilde" format="2">
  <advance width="420"/>
  <unicode hex="007E"/>
  <outline>
    <contour>
      <point x="282" y="207" type="curve"/>
      <point x="363" y="207"/>
      <point x="395" y="278"/>
      <point x="415" y="371" type="curve"/>
      <point x="326" y="398" type="line"/>
      <point x="314" y="340"/>
      <point x="299" y="330"/>
      <point x="279" y="330" type="curve"/>
      <point x="243" y="330"/>
      <point x="201" y="398"/>
      <point x="138" y="398" type="curve"/>
      <point x="57" y="398"/>
      <point x="25" y="327"/>
      <point x="5" y="234" type="curve"/>
      <point x="94" y="207" type="line"/>
      <point x="106" y="265"/>
      <point x="121" y="275"/>
      <point x="142" y="275" type="curve" smooth="yes"/>
      <point x="178" y="275"/>
      <point x="220" y="207"/>
    </contour>
  </outline>
</glyph>
<glyph name="exclamdown" format="2">
  <advance width="282"/>
  <unicode hex="00A1"/>
  <outline>
    <contour>
      <point x="70" y="-175" type="line"/>
      <point x="216" y="-175" type="line"/>
      <point x="216" y="3" type="line" smooth="yes"/>
      <point x="216" y="85"/>
      <point x="200" y="220"/>
      <point x="177" y="297" type="curve"/>
      <point x="109" y="297" type="line"/>
      <point x="86" y="220"/>
      <point x="70" y="85"/>
      <point x="70" y="3" type="curve"/>
    </contour>
    <contour>
      <point x="142" y="354" type="curve" smooth="yes"/>
      <point x="196" y="354"/>
      <point x="229" y="397"/>
      <point x="229" y="444" type="curve" smooth="yes"/>
      <point x="229" y="490"/>
      <point x="196" y="532"/>
      <point x="142" y="532" type="curve" smooth="yes"/>
      <point x="87" y="532"/>
      <point x="53" y="490"/>
      <point x="53" y="444" type="curve" smooth="yes"/>
      <point x="53" y="397"/>
      <point x="87" y="354"/>
    </contour>
  </outline>
</glyph>
<glyph name="cent" format="2">
  <advance width="434"/>
  <unicode hex="00A2"/>
  <outline>
    <contour>
      <point x="184" y="-101" type="line"/>
      <point x="306" y="-101" type="line"/>
      <point x="306" y="33" type="line"/>
      <point x="333" y="36"/>
      <point x="355" y="41"/>
      <point x="374" y="50" type="curve"/>
      <point x="356" y="163" type="line"/>
      <point x="339" y="155"/>
      <point x="323" y="151"/>
      <point x="297" y="151" type="curve"/>
      <point x="241" y="151"/>
      <point x="198" y="188"/>
      <point x="198" y="301" type="curve" smooth="yes"/>
      <point x="198" y="415"/>
      <point x="230" y="451"/>
      <point x="285" y="451" type="curve"/>
      <point x="307" y="451"/>
      <point x="327" y="445"/>
      <point x="347" y="433" type="curve"/>
      <point x="374" y="547" type="line"/>
      <point x="353" y="557"/>
      <point x="330" y="564"/>
      <point x="306" y="568" type="curve"/>
      <point x="306" y="685" type="line"/>
      <point x="184" y="685" type="line"/>
      <point x="184" y="556" type="line"/>
      <point x="102" y="522"/>
      <point x="54" y="432"/>
      <point x="54" y="301" type="curve" smooth="yes"/>
      <point x="54" y="164"/>
      <point x="100" y="76"/>
      <point x="184" y="44" type="curve"/>
    </contour>
  </outline>
</glyph>
<glyph name="sterling" format="2">
  <advance width="434"/>
  <unicode hex="00A3"/>
  <outline>
    <contour>
      <point x="57" y="0" type="curve"/>
      <point x="406" y="0" type="line"/>
      <point x="406" y="114" type="line"/>
      <point x="212" y="114" type="line"/>
      <point x="220" y="161"/>
      <point x="225" y="227"/>
      <point x="225" y="274" type="curve" smooth="yes"/>
      <point x="225" y="282" type="line"/>
      <point x="343" y="282" type="line"/>
      <point x="343" y="392" type="line"/>
      <point x="225" y="392" type="line"/>
      <point x="225" y="505" type="line" smooth="yes"/>
      <point x="225" y="558"/>
      <point x="255" y="592"/>
      <point x="295" y="592" type="curve"/>
      <point x="326" y="592"/>
      <point x="348" y="586"/>
      <point x="368" y="572" type="curve"/>
      <point x="399" y="679" type="line"/>
      <point x="367" y="696"/>
      <point x="328" y="706"/>
      <point x="286" y="706" type="curve" smooth="yes"/>
      <point x="171" y="706"/>
      <point x="87" y="634"/>
      <point x="87" y="504" type="curve" smooth="yes"/>
      <point x="87" y="392" type="line"/>
      <point x="21" y="392" type="line"/>
      <point x="21" y="282" type="line"/>
      <point x="87" y="282" type="line"/>
      <point x="87" y="270" type="line" smooth="yes"/>
      <point x="87" y="187"/>
      <point x="72" y="68"/>
    </contour>
  </outline>
</glyph>
<glyph name="currency" format="2">
  <advance width="434"/>
  <unicode hex="00A4"/>
  <outline>
    <contour>
      <point x="98" y="103" type="line"/>
      <point x="153" y="165" type="line"/>
      <point x="172" y="157"/>
      <point x="194" y="152"/>
      <point x="217" y="152" type="curve" smooth="yes"/>
      <point x="240" y="152"/>
      <point x="262" y="157"/>
      <point x="281" y="165" type="curve"/>
      <point x="336" y="103" type="line"/>
      <point x="419" y="177" type="line"/>
      <point x="360" y="243" type="line"/>
      <point x="374" y="272"/>
      <point x="382" y="307"/>
      <point x="382" y="347" type="curve" smooth="yes"/>
      <point x="382" y="387"/>
      <point x="374" y="423"/>
      <point x="359" y="452" type="curve"/>
      <point x="419" y="518" type="line"/>
      <point x="336" y="592" type="line"/>
      <point x="281" y="530" type="line"/>
      <point x="262" y="538"/>
      <point x="240" y="543"/>
      <point x="217" y="543" type="curve" smooth="yes"/>
      <point x="194" y="543"/>
      <point x="172" y="538"/>
      <point x="153" y="530" type="curve"/>
      <point x="98" y="592" type="line"/>
      <point x="15" y="518" type="line"/>
      <point x="75" y="452" type="line"/>
      <point x="60" y="423"/>
      <point x="52" y="387"/>
      <point x="52" y="347" type="curve" smooth="yes"/>
      <point x="52" y="307"/>
      <point x="60" y="272"/>
      <point x="74" y="243" type="curve"/>
      <point x="15" y="177" type="line"/>
    </contour>
    <contour>
      <point x="217" y="253" type="curve" smooth="yes"/>
      <point x="183" y="253"/>
      <point x="163" y="284"/>
      <point x="163" y="348" type="curve" smooth="yes"/>
      <point x="163" y="411"/>
      <point x="183" y="443"/>
      <point x="217" y="443" type="curve" smooth="yes"/>
      <point x="252" y="443"/>
      <point x="272" y="411"/>
      <point x="272" y="348" type="curve" smooth="yes"/>
      <point x="272" y="284"/>
      <point x="252" y="253"/>
    </contour>
  </outline>
</glyph>
<glyph name="yen" format="2">
  <advance width="420"/>
  <unicode hex="00A5"/>
  <outline>
    <contour>
      <point x="141" y="0" type="line"/>
      <point x="279" y="0" type="line"/>
      <point x="279" y="118" type="line"/>
      <point x="393" y="118" type="line"/>
      <point x="393" y="211" type="line"/>
      <point x="279" y="211" type="line"/>
      <point x="279" y="274" type="line"/>
      <point x="393" y="274" type="line"/>
      <point x="393" y="367" type="line"/>
      <point x="320" y="367" type="line"/>
      <point x="363" y="480"/>
      <point x="401" y="589"/>
      <point x="432" y="693" type="curve"/>
      <point x="292" y="693" type="line"/>
      <point x="267" y="598"/>
      <point x="236" y="487"/>
      <point x="210" y="404" type="curve"/>
      <point x="184" y="487"/>
      <point x="153" y="598"/>
      <point x="128" y="693" type="curve"/>
      <point x="-12" y="693" type="line"/>
      <point x="19" y="589"/>
      <point x="57" y="480"/>
      <point x="100" y="367" type="curve"/>
      <point x="27" y="367" type="line"/>
      <point x="27" y="274" type="line"/>
      <point x="141" y="274" type="line"/>
      <point x="141" y="211" type="line"/>
      <point x="27" y="211" type="line"/>
      <point x="27" y="118" type="line"/>
      <point x="141" y="118" type="line"/>
    </contour>
  </outline>
</glyph>
<glyph name="section" format="2">
  <advance width="415"/>
  <unicode hex="00A7"/>
  <outline>
    <contour>
      <point x="186" y="-109" type="curve"/>
      <point x="297" y="-109"/>
      <point x="377" y="-45"/>
      <point x="377" y="49" type="curve" smooth="yes"/>
      <point x="377" y="91"/>
      <point x="359" y="126"/>
      <point x="324" y="159" type="curve"/>
      <point x="362" y="198"/>
      <point x="389" y="236"/>
      <point x="389" y="301" type="curve" smooth="yes"/>
      <point x="389" y="372"/>
      <point x="357" y="418"/>
      <point x="289" y="457" type="curve" smooth="yes"/>
      <point x="221" y="496"/>
      <point x="184" y="507"/>
      <point x="184" y="550" type="curve"/>
      <point x="184" y="579"/>
      <point x="203" y="594"/>
      <point x="242" y="594" type="curve" smooth="yes"/>
      <point x="279" y="594"/>
      <point x="314" y="585"/>
      <point x="350" y="567" type="curve"/>
      <point x="384" y="673" type="line"/>
      <point x="345" y="694"/>
      <point x="292" y="710"/>
      <point x="236" y="710" type="curve" smooth="yes"/>
      <point x="132" y="710"/>
      <point x="51" y="656"/>
      <point x="51" y="555" type="curve" smooth="yes"/>
      <point x="51" y="519"/>
      <point x="63" y="484"/>
      <point x="97" y="448" type="curve"/>
      <point x="52" y="410"/>
      <point x="29" y="365"/>
      <point x="29" y="307" type="curve" smooth="yes"/>
      <point x="29" y="238"/>
      <point x="59" y="189"/>
      <point x="133" y="146" type="curve" smooth="yes"/>
      <point x="207" y="103"/>
      <point x="244" y="92"/>
      <point x="244" y="53" type="curve" smooth="yes"/>
      <point x="244" y="24"/>
      <point x="223" y="6"/>
      <point x="186" y="6" type="curve"/>
      <point x="147" y="6"/>
      <point x="104" y="14"/>
      <point x="52" y="37" type="curve"/>
      <point x="22" y="-70" type="line"/>
      <point x="65" y="-93"/>
      <point x="127" y="-109"/>
    </contour>
    <contour>
      <point x="241" y="218" type="curve"/>
      <point x="235" y="222"/>
      <point x="230" y="225"/>
      <point x="225" y="228" type="curve" smooth="yes"/>
      <point x="167" y="266"/>
      <point x="151" y="288"/>
      <point x="151" y="325" type="curve"/>
      <point x="151" y="351"/>
      <point x="161" y="372"/>
      <point x="178" y="387" type="curve"/>
      <point x="183" y="384"/>
      <point x="187" y="381"/>
      <point x="191" y="379" type="curve" smooth="yes"/>
      <point x="254" y="339"/>
      <point x="265" y="320"/>
      <point x="265" y="285" type="curve" smooth="yes"/>
      <point x="265" y="259"/>
      <point x="257" y="238"/>
    </contour>
  </outline>
</glyph>
<glyph name="ordfeminine" format="2">
  <advance width="324"/>
  <unicode hex="00AA"/>
  <outline>
    <contour>
      <point x="163" y="305" type="curve" smooth="yes"/>
      <point x="228" y="305"/>
      <point x="268" y="317"/>
      <point x="294" y="324" type="curve"/>
      <point x="294" y="562" type="line" smooth="yes"/>
      <point x="294" y="642"/>
      <point x="262" y="698"/>
      <point x="158" y="698" type="curve" smooth="yes"/>
      <point x="121" y="698"/>
      <point x="74" y="688"/>
      <point x="51" y="678" type="curve"/>
      <point x="65" y="595" type="line"/>
      <point x="84" y="604"/>
      <point x="115" y="612"/>
      <point x="141" y="612" type="curve" smooth="yes"/>
      <point x="175" y="612"/>
      <point x="199" y="603"/>
      <point x="199" y="571" type="curve" smooth="yes"/>
      <point x="199" y="539" type="line"/>
      <point x="189" y="542"/>
      <point x="172" y="544"/>
      <point x="152" y="544" type="curve" smooth="yes"/>
      <point x="85" y="544"/>
      <point x="23" y="514"/>
      <point x="23" y="428" type="curve" smooth="yes"/>
      <point x="23" y="340"/>
      <point x="76" y="305"/>
    </contour>
    <contour>
      <point x="170" y="384" type="curve" smooth="yes"/>
      <point x="147" y="384"/>
      <point x="122" y="392"/>
      <point x="122" y="428" type="curve" smooth="yes"/>
      <point x="122" y="463"/>
      <point x="147" y="471"/>
      <point x="167" y="471" type="curve" smooth="yes"/>
      <point x="178" y="471"/>
      <point x="190" y="470"/>
      <point x="199" y="467" type="curve"/>
      <point x="199" y="388" type="line"/>
      <point x="189" y="385"/>
      <point x="181" y="384"/>
    </contour>
  </outline>
</glyph>
<glyph name="registered" format="2">
  <advance width="686"/>
  <unicode hex="00AE"/>
  <outline>
    <contour>
      <point x="343" y="-15" type="curve" smooth="yes"/>
      <point x="528" y="-15"/>
      <point x="646" y="127"/>
      <point x="646" y="348" type="curve"/>
      <point x="646" y="569"/>
      <point x="528" y="710"/>
      <point x="343" y="710" type="curve"/>
      <point x="158" y="710"/>
      <point x="40" y="569"/>
      <point x="40" y="348" type="curve" smooth="yes"/>
      <point x="40" y="127"/>
      <point x="158" y="-15"/>
    </contour>
    <contour>
      <point x="343" y="73" type="curve" smooth="yes"/>
      <point x="215" y="73"/>
      <point x="133" y="180"/>
      <point x="133" y="348" type="curve"/>
      <point x="133" y="515"/>
      <point x="215" y="622"/>
      <point x="343" y="622" type="curve" smooth="yes"/>
      <point x="471" y="622"/>
      <point x="553" y="515"/>
      <point x="553" y="348" type="curve"/>
      <point x="553" y="180"/>
      <point x="471" y="73"/>
    </contour>
    <contour>
      <point x="233" y="167" type="line"/>
      <point x="323" y="167" type="line"/>
      <point x="323" y="293" type="line"/>
      <point x="336" y="293" type="line"/>
      <point x="338" y="293"/>
      <point x="339" y="293"/>
      <point x="340" y="293" type="curve"/>
      <point x="355" y="264"/>
      <point x="369" y="222"/>
      <point x="387" y="167" type="curve"/>
      <point x="480" y="167" type="line"/>
      <point x="461" y="228"/>
      <point x="448" y="268"/>
      <point x="419" y="320" type="curve"/>
      <point x="449" y="342"/>
      <point x="466" y="374"/>
      <point x="466" y="416" type="curve" smooth="yes"/>
      <point x="466" y="499"/>
      <point x="421" y="540"/>
      <point x="332" y="540" type="curve" smooth="yes"/>
      <point x="308" y="540"/>
      <point x="273" y="535"/>
      <point x="233" y="524" type="curve"/>
    </contour>
    <contour>
      <point x="323" y="367" type="line"/>
      <point x="323" y="459" type="line"/>
      <point x="329" y="460"/>
      <point x="335" y="461"/>
      <point x="340" y="461" type="curve" smooth="yes"/>
      <point x="364" y="461"/>
      <point x="375" y="449"/>
      <point x="375" y="416" type="curve" smooth="yes"/>
      <point x="375" y="377"/>
      <point x="359" y="367"/>
      <point x="331" y="367" type="curve" smooth="yes"/>
    </contour>
  </outline>
</glyph>
<glyph name="macron" format="2">
  <advance width="316"/>
  <unicode hex="00AF"/>
  <outline>
    <contour>
      <point x="33" y="625" type="line"/>
      <point x="283" y="625" type="line"/>
      <point x="283" y="728" type="line"/>
      <point x="33" y="728" type="line"/>
    </contour>
  </outline>
</glyph>
<glyph name="plusminus" format="2">
  <advance width="434"/>
  <unicode hex="00B1"/>
  <outline>
    <contour>
      <point x="160" y="165" type="line"/>
      <point x="274" y="165" type="line"/>
      <point x="274" y="290" type="line"/>
      <point x="394" y="290" type="line"/>
      <point x="394" y="400" type="line"/>
      <point x="274" y="400" type="line"/>
      <point x="274" y="525" type="line"/>
      <point x="160" y="525" type="line"/>
      <point x="160" y="400" type="line"/>
      <point x="40" y="400" type="line"/>
      <point x="40" y="290" type="line"/>
      <point x="160" y="290" type="line"/>
    </contour>
    <contour>
      <point x="40" y="0" type="line"/>
      <point x="394" y="0" type="line"/>
      <point x="394" y="110" type="line"/>
      <point x="40" y="110" type="line"/>
    </contour>
  </outline>
</glyph>
<glyph name="threesuperior" format="2">
  <advance width="290"/>
  <unicode hex="00B3"/>
  <outline>
    <contour>
      <point x="122" y="291" type="curve" smooth="yes"/>
      <point x="222" y="291"/>
      <point x="267" y="349"/>
      <point x="267" y="417" type="curve" smooth="yes"/>
      <point x="267" y="448"/>
      <point x="255" y="484"/>
      <point x="211" y="508" type="curve"/>
      <point x="246" y="531"/>
      <point x="257" y="566"/>
      <point x="257" y="594" type="curve" smooth="yes"/>
      <point x="257" y="645"/>
      <point x="222" y="700"/>
      <point x="132" y="700" type="curve" smooth="yes"/>
      <point x="100" y="700"/>
      <point x="60" y="689"/>
      <point x="22" y="665" type="curve"/>
      <point x="56" y="588" type="line"/>
      <point x="80" y="603"/>
      <point x="99" y="610"/>
      <point x="120" y="610" type="curve"/>
      <point x="146" y="610"/>
      <point x="157" y="597"/>
      <point x="157" y="576" type="curve"/>
      <point x="157" y="552"/>
      <point x="142" y="542"/>
      <point x="116" y="542" type="curve" smooth="yes"/>
      <point x="80" y="542" type="line"/>
      <point x="80" y="462" type="line"/>
      <point x="117" y="462" type="line"/>
      <point x="143" y="462"/>
      <point x="167" y="450"/>
      <point x="167" y="418" type="curve"/>
      <point x="167" y="394"/>
      <point x="148" y="381"/>
      <point x="118" y="381" type="curve"/>
      <point x="99" y="381"/>
      <point x="79" y="384"/>
      <point x="41" y="404" type="curve"/>
      <point x="16" y="319" type="line"/>
      <point x="48" y="301"/>
      <point x="94" y="291"/>
    </contour>
  </outline>
</glyph>
<glyph name="mu" format="2">
  <advance width="511"/>
  <unicode hex="00B5"/>
  <outline>
    <contour>
      <point x="69" y="-185" type="line"/>
      <point x="204" y="-185" type="line"/>
      <point x="204" y="-136" type="line" smooth="yes"/>
      <point x="204" y="-82"/>
      <point x="198" y="-29"/>
      <point x="191" y="10" type="curve"/>
      <point x="211" y="-3"/>
      <point x="249" y="-10"/>
      <point x="289" y="-10" type="curve"/>
      <point x="336" y="-10"/>
      <point x="390" y="-2"/>
      <point x="442" y="11" type="curve"/>
      <point x="442" y="532" type="line"/>
      <point x="304" y="532" type="line"/>
      <point x="304" y="110" type="line"/>
      <point x="294" y="108"/>
      <point x="285" y="107"/>
      <point x="277" y="107" type="curve" smooth="yes"/>
      <point x="225" y="107"/>
      <point x="207" y="138"/>
      <point x="207" y="225" type="curve" smooth="yes"/>
      <point x="207" y="532" type="line"/>
      <point x="69" y="532" type="line"/>
    </contour>
  </outline>
</glyph>
<glyph name="questiondown" format="2">
  <advance width="386"/>
  <unicode hex="00BF"/>
  <outline>
    <contour>
      <point x="201" y="-189" type="curve" smooth="yes"/>
      <point x="268" y="-189"/>
      <point x="320" y="-170"/>
      <point x="365" y="-137" type="curve"/>
      <point x="319" y="-34" type="line"/>
      <point x="281" y="-62"/>
      <point x="255" y="-70"/>
      <point x="227" y="-70" type="curve" smooth="yes"/>
      <point x="187" y="-70"/>
      <point x="166" y="-48"/>
      <point x="166" y="-8" type="curve"/>
      <point x="166" y="88"/>
      <point x="283" y="118"/>
      <point x="283" y="256" type="curve" smooth="yes"/>
      <point x="283" y="268"/>
      <point x="282" y="284"/>
      <point x="280" y="297" type="curve"/>
      <point x="155" y="297" type="line"/>
      <point x="156" y="290"/>
      <point x="156" y="277"/>
      <point x="156" y="276" type="curve"/>
      <point x="156" y="154"/>
      <point x="21" y="118"/>
      <point x="21" y="-23" type="curve"/>
      <point x="21" y="-112"/>
      <point x="90" y="-189"/>
    </contour>
    <contour>
      <point x="220" y="354" type="curve" smooth="yes"/>
      <point x="274" y="354"/>
      <point x="307" y="397"/>
      <point x="307" y="444" type="curve" smooth="yes"/>
      <point x="307" y="490"/>
      <point x="274" y="532"/>
      <point x="220" y="532" type="curve" smooth="yes"/>
      <point x="165" y="532"/>
      <point x="131" y="490"/>
      <point x="131" y="444" type="curve" smooth="yes"/>
      <point x="131" y="397"/>
      <point x="165" y="354"/>
    </contour>
  </outline>
</glyph>
<glyph name="AE" format="2">
  <advance width="786"/>
  <unicode hex="00C6"/>
  <anchor x="393" y="0" name="bottom"/>
  <anchor x="393" y="693" name="top"/>
  <outline>
    <contour>
      <point x="5" y="0" type="curve"/>
      <point x="152" y="0" type="line"/>
      <point x="168" y="47"/>
      <point x="187" y="98"/>
      <point x="208" y="151" type="curve"/>
      <point x="383" y="151" type="line"/>
      <point x="383" y="0" type="line"/>
      <point x="744" y="0" type="line"/>
      <point x="744" y="119" type="line"/>
      <point x="525" y="119" type="line"/>
      <point x="525" y="306" type="line"/>
      <point x="707" y="306" type="line"/>
      <point x="707" y="421" type="line"/>
      <point x="525" y="421" type="line"/>
      <point x="525" y="574" type="line"/>
      <point x="723" y="574" type="line"/>
      <point x="723" y="693" type="line"/>
      <point x="327" y="693" type="line"/>
      <point x="225" y="509"/>
      <point x="102" y="240"/>
    </contour>
    <contour>
      <point x="254" y="266" type="line"/>
      <point x="297" y="371"/>
      <point x="343" y="475"/>
      <point x="383" y="556" type="curve"/>
      <point x="383" y="266" type="line"/>
    </contour>
  </outline>
</glyph>
<glyph name="Ccedilla" format="2">
  <advance width="494"/>
  <unicode hex="00C7"/>
  <outline>
    <contour>
      <point x="261" y="-210" type="curve" smooth="yes"/>
      <point x="338" y="-210"/>
      <point x="389" y="-173"/>
      <point x="389" y="-116" type="curve" smooth="yes"/>
      <point x="389" y="-79"/>
      <point x="375" y="-58"/>
      <point x="339" y="-42" type="curve"/>
      <point x="342" y="-33"/>
      <point x="347" y="-23"/>
      <point x="351" y="-13" type="curve"/>
      <point x="352" y="-13"/>
      <point x="352" y="-13"/>
      <point x="353" y="-13" type="curve" smooth="yes"/>
      <point x="405" y="-10"/>
      <point x="448" y="1"/>
      <point x="481" y="21" type="curve"/>
      <point x="444" y="135" type="line"/>
      <point x="414" y="118"/>
      <point x="381" y="110"/>
      <point x="340" y="110" type="curve"/>
      <point x="237" y="110"/>
      <point x="199" y="174"/>
      <point x="199" y="348" type="curve" smooth="yes"/>
      <point x="199" y="522"/>
      <point x="230" y="583"/>
      <point x="319" y="583" type="curve"/>
      <point x="363" y="583"/>
      <point x="399" y="573"/>
      <point x="428" y="553" type="curve"/>
      <point x="469" y="672" type="line"/>
      <point x="432" y="694"/>
      <point x="377" y="707"/>
      <point x="320" y="707" type="curve"/>
      <point x="139" y="707"/>
      <point x="49" y="588"/>
      <point x="49" y="348" type="curve" smooth="yes"/>
      <point x="49" y="139"/>
      <point x="121" y="18"/>
      <point x="261" y="-8" type="curve"/>
      <point x="252" y="-28"/>
      <point x="242" y="-53"/>
      <point x="236" y="-71" type="curve"/>
      <point x="270" y="-75"/>
      <point x="287" y="-85"/>
      <point x="287" y="-101" type="curve" smooth="yes"/>
      <point x="287" y="-116"/>
      <point x="271" y="-126"/>
      <point x="246" y="-126" type="curve" smooth="yes"/>
      <point x="231" y="-126"/>
      <point x="213" y="-123"/>
      <point x="199" y="-117" type="curve"/>
      <point x="183" y="-198" type="line"/>
      <point x="210" y="-206"/>
      <point x="237" y="-210"/>
    </contour>
  </outline>
</glyph>
<glyph name="Eth" format="2">
  <advance width="597"/>
  <unicode hex="00D0"/>
  <outline>
    <contour>
      <point x="256" y="-10" type="curve"/>
      <point x="441" y="-10"/>
      <point x="548" y="119"/>
      <point x="548" y="347" type="curve" smooth="yes"/>
      <point x="548" y="585"/>
      <point x="451" y="703"/>
      <point x="256" y="703" type="curve"/>
      <point x="191" y="703"/>
      <point x="138" y="697"/>
      <point x="83" y="682" type="curve"/>
      <point x="83" y="398" type="line"/>
      <point x="15" y="398" type="line"/>
      <point x="15" y="297" type="line"/>
      <point x="83" y="297" type="line"/>
      <point x="83" y="11" type="line"/>
      <point x="138" y="-4"/>
      <point x="191" y="-10"/>
    </contour>
    <contour>
      <point x="269" y="112" type="curve"/>
      <point x="252" y="112"/>
      <point x="238" y="113"/>
      <point x="225" y="116" type="curve"/>
      <point x="225" y="297" type="line"/>
      <point x="323" y="297" type="line"/>
      <point x="323" y="398" type="line"/>
      <point x="225" y="398" type="line"/>
      <point x="225" y="577" type="line"/>
      <point x="238" y="580"/>
      <point x="252" y="581"/>
      <point x="269" y="581" type="curve"/>
      <point x="358" y="581"/>
      <point x="398" y="509"/>
      <point x="398" y="347" type="curve" smooth="yes"/>
      <point x="398" y="191"/>
      <point x="355" y="112"/>
    </contour>
  </outline>
</glyph>
<glyph name="multiply" format="2">
  <advance width="434"/>
  <unicode hex="00D7"/>
  <outline>
    <contour>
      <point x="113" y="120" type="line"/>
      <point x="217" y="224" type="line"/>
      <point x="321" y="120" type="line"/>
      <point x="401" y="200" type="line"/>
      <point x="297" y="304" type="line"/>
      <point x="401" y="409" type="line"/>
      <point x="321" y="489" type="line"/>
      <point x="217" y="385" type="line"/>
      <point x="113" y="489" type="line"/>
      <point x="33" y="409" type="line"/>
      <point x="137" y="304" type="line"/>
      <point x="33" y="200" type="line"/>
    </contour>
  </outline>
</glyph>
<glyph name="Oslash" format="2">
  <advance width="618"/>
  <unicode hex="00D8"/>
  <anchor x="309" y="0" name="bottom"/>
  <anchor x="309" y="683" name="top"/>
  <outline>
    <contour>
      <point x="139" y="-38" type="line"/>
      <point x="175" y="24" type="line"/>
      <point x="212" y="-1"/>
      <point x="257" y="-14"/>
      <point x="309" y="-14" type="curve" smooth="yes"/>
      <point x="474" y="-14"/>
      <point x="569" y="117"/>
      <point x="569" y="346" type="curve" smooth="yes"/>
      <point x="569" y="453"/>
      <point x="549" y="538"/>
      <point x="510" y="599" type="curve"/>
      <point x="557" y="679" type="line"/>
      <point x="479" y="727" type="line"/>
      <point x="445" y="668" type="line"/>
      <point x="407" y="694"/>
      <point x="362" y="707"/>
      <point x="309" y="707" type="curve" smooth="yes"/>
      <point x="144" y="707"/>
      <point x="49" y="576"/>
      <point x="49" y="348" type="curve" smooth="yes"/>
      <point x="49" y="240"/>
      <point x="70" y="154"/>
      <point x="109" y="93" type="curve"/>
      <point x="61" y="10" type="line"/>
    </contour>
    <contour>
      <point x="204" y="255" type="line"/>
      <point x="201" y="282"/>
      <point x="199" y="313"/>
      <point x="199" y="348" type="curve" smooth="yes"/>
      <point x="199" y="511"/>
      <point x="232" y="583"/>
      <point x="309" y="583" type="curve" smooth="yes"/>
      <point x="338" y="583"/>
      <point x="360" y="573"/>
      <point x="377" y="552" type="curve"/>
    </contour>
    <contour>
      <point x="309" y="110" type="curve" smooth="yes"/>
      <point x="282" y="110"/>
      <point x="260" y="120"/>
      <point x="243" y="140" type="curve"/>
      <point x="415" y="435" type="line"/>
      <point x="418" y="409"/>
      <point x="419" y="380"/>
      <point x="419" y="346" type="curve" smooth="yes"/>
      <point x="419" y="182"/>
      <point x="386" y="110"/>
    </contour>
  </outline>
</glyph>
<glyph name="ae" format="2">
  <advance width="667"/>
  <unicode hex="00E6"/>
  <anchor x="334" y="0" name="bottom"/>
  <anchor x="335" y="532" name="top"/>
  <outline>
    <contour>
      <point x="221" y="-10" type="curve" smooth="yes"/>
      <point x="266" y="-10"/>
      <point x="309" y="0"/>
      <point x="347" y="22" type="curve"/>
      <point x="397" y="-5"/>
      <point x="430" y="-13"/>
      <point x="470" y="-13" type="curve" smooth="yes"/>
      <point x="520" y="-13"/>
      <point x="564" y="-6"/>
      <point x="602" y="12" type="curve"/>
      <point x="586" y="120" type="line"/>
      <point x="564" y="110"/>
      <point x="530" y="107"/>
      <point x="495" y="107" type="curve" smooth="yes"/>
      <point x="427" y="107"/>
      <point x="391" y="146"/>
      <point x="390" y="216" type="curve"/>
      <point x="622" y="216" type="line"/>
      <point x="623" y="234"/>
      <point x="624" y="252"/>
      <point x="624" y="273" type="curve"/>
      <point x="624" y="440"/>
      <point x="562" y="547"/>
      <point x="443" y="547" type="curve" smooth="yes"/>
      <point x="395" y="547"/>
      <point x="349" y="523"/>
      <point x="326" y="484" type="curve"/>
      <point x="301" y="526"/>
      <point x="258" y="546"/>
      <point x="193" y="546" type="curve"/>
      <point x="151" y="546"/>
      <point x="100" y="536"/>
      <point x="69" y="525" type="curve"/>
      <point x="88" y="415" type="line"/>
      <point x="118" y="425"/>
      <point x="143" y="429"/>
      <point x="166" y="429" type="curve" smooth="yes"/>
      <point x="227" y="429"/>
      <point x="255" y="407"/>
      <point x="255" y="345" type="curve" smooth="yes"/>
      <point x="255" y="321" type="line"/>
      <point x="240" y="323"/>
      <point x="220" y="324"/>
      <point x="204" y="324" type="curve"/>
      <point x="102" y="324"/>
      <point x="34" y="266"/>
      <point x="34" y="159" type="curve" smooth="yes"/>
      <point x="34" y="50"/>
      <point x="100" y="-10"/>
    </contour>
    <contour>
      <point x="232" y="93" type="curve"/>
      <point x="190" y="93"/>
      <point x="169" y="113"/>
      <point x="169" y="159" type="curve" smooth="yes"/>
      <point x="169" y="205"/>
      <point x="187" y="228"/>
      <point x="229" y="228" type="curve"/>
      <point x="240" y="228"/>
      <point x="248" y="227"/>
      <point x="256" y="225" type="curve"/>
      <point x="259" y="177"/>
      <point x="269" y="136"/>
      <point x="285" y="102" type="curve"/>
      <point x="270" y="96"/>
      <point x="254" y="93"/>
    </contour>
    <contour>
      <point x="389" y="313" type="line"/>
      <point x="391" y="401"/>
      <point x="405" y="436"/>
      <point x="439" y="436" type="curve"/>
      <point x="473" y="436"/>
      <point x="490" y="403"/>
      <point x="492" y="313" type="curve"/>
    </contour>
  </outline>
</glyph>
<glyph name="eth" format="2">
  <advance width="487"/>
  <unicode hex="00F0"/>
  <anchor x="237" y="0" name="bottom"/>
  <anchor x="244" y="776" name="top"/>
  <outline>
    <contour>
      <point x="248" y="-14" type="curve" smooth="yes"/>
      <point x="375" y="-14"/>
      <point x="444" y="92"/>
      <point x="444" y="286" type="curve" smooth="yes"/>
      <point x="444" y="416"/>
      <point x="413" y="531"/>
      <point x="367" y="624" type="curve"/>
      <point x="443" y="660" type="line"/>
      <point x="410" y="738" type="line"/>
      <point x="325" y="699" type="line"/>
      <point x="306" y="727"/>
      <point x="286" y="753"/>
      <point x="265" y="776" type="curve"/>
      <point x="163" y="716" type="line"/>
      <point x="182" y="695"/>
      <point x="200" y="672"/>
      <point x="216" y="648" type="curve"/>
      <point x="148" y="616" type="line"/>
      <point x="182" y="537" type="line"/>
      <point x="257" y="572" type="line"/>
      <point x="270" y="543"/>
      <point x="280" y="513"/>
      <point x="287" y="481" type="curve"/>
      <point x="272" y="486"/>
      <point x="255" y="489"/>
      <point x="239" y="489" type="curve"/>
      <point x="113" y="489"/>
      <point x="43" y="397"/>
      <point x="43" y="230" type="curve" smooth="yes"/>
      <point x="43" y="72"/>
      <point x="115" y="-14"/>
    </contour>
    <contour>
      <point x="246" y="105" type="curve" smooth="yes"/>
      <point x="205" y="105"/>
      <point x="187" y="142"/>
      <point x="187" y="230" type="curve" smooth="yes"/>
      <point x="187" y="334"/>
      <point x="205" y="379"/>
      <point x="248" y="379" type="curve" smooth="yes"/>
      <point x="267" y="379"/>
      <point x="281" y="377"/>
      <point x="294" y="373" type="curve"/>
      <point x="298" y="339"/>
      <point x="300" y="312"/>
      <point x="300" y="282" type="curve" smooth="yes"/>
      <point x="300" y="162"/>
      <point x="283" y="105"/>
    </contour>
  </outline>
</glyph>
<glyph name="oslash" format="2">
  <advance width="486"/>
  <unicode hex="00F8"/>
  <anchor x="243" y="532" name="top"/>
  <outline>
    <contour>
      <point x="121" y="-39" type="line"/>
      <point x="149" y="10" type="line"/>
      <point x="176" y="-6"/>
      <point x="207" y="-14"/>
      <point x="243" y="-14" type="curve" smooth="yes"/>
      <point x="370" y="-14"/>
      <point x="443" y="88"/>
      <point x="443" y="266" type="curve" smooth="yes"/>
      <point x="443" y="342"/>
      <point x="430" y="405"/>
      <point x="404" y="451" type="curve"/>
      <point x="443" y="518" type="line"/>
      <point x="367" y="570" type="line"/>
      <point x="338" y="521" type="line"/>
      <point x="311" y="538"/>
      <point x="279" y="546"/>
      <point x="243" y="546" type="curve" smooth="yes"/>
      <point x="116" y="546"/>
      <point x="43" y="444"/>
      <point x="43" y="266" type="curve" smooth="yes"/>
      <point x="43" y="190"/>
      <point x="56" y="127"/>
      <point x="82" y="81" type="curve"/>
      <point x="43" y="14" type="line"/>
    </contour>
    <contour>
      <point x="243" y="95" type="curve" smooth="yes"/>
      <point x="225" y="95"/>
      <point x="211" y="102"/>
      <point x="201" y="118" type="curve"/>
      <point x="308" y="304" type="line"/>
      <point x="309" y="292"/>
      <point x="309" y="280"/>
      <point x="309" y="266" type="curve" smooth="yes"/>
      <point x="309" y="142"/>
      <point x="291" y="95"/>
    </contour>
    <contour>
      <point x="178" y="232" type="line"/>
      <point x="177" y="242"/>
      <point x="177" y="254"/>
      <point x="177" y="266" type="curve" smooth="yes"/>
      <point x="177" y="389"/>
      <point x="196" y="437"/>
      <point x="243" y="437" type="curve" smooth="yes"/>
      <point x="261" y="437"/>
      <point x="274" y="430"/>
      <point x="285" y="415" type="curve"/>
    </contour>
  </outline>
</glyph>
<glyph name="dcroat" format="2">
  <advance width="497"/>
  <unicode hex="0111"/>
  <outline>
    <contour>
      <point x="258" y="-10" type="curve"/>
      <point x="318" y="-10"/>
      <point x="371" y="-3"/>
      <point x="428" y="11" type="curve"/>
      <point x="428" y="595" type="line"/>
      <point x="487" y="595" type="line"/>
      <point x="487" y="688" type="line"/>
      <point x="428" y="688" type="line"/>
      <point x="428" y="776" type="line"/>
      <point x="290" y="754" type="line"/>
      <point x="290" y="688" type="line"/>
      <point x="190" y="688" type="line"/>
      <point x="190" y="595" type="line"/>
      <point x="290" y="595" type="line"/>
      <point x="290" y="510" type="line"/>
      <point x="273" y="518"/>
      <point x="250" y="522"/>
      <point x="229" y="522" type="curve"/>
      <point x="104" y="522"/>
      <point x="43" y="431"/>
      <point x="43" y="247" type="curve" smooth="yes"/>
      <point x="43" y="80"/>
      <point x="118" y="-10"/>
    </contour>
    <contour>
      <point x="261" y="107" type="curve"/>
      <point x="209" y="107"/>
      <point x="187" y="131"/>
      <point x="187" y="247" type="curve" smooth="yes"/>
      <point x="187" y="374"/>
      <point x="208" y="405"/>
      <point x="255" y="405" type="curve"/>
      <point x="268" y="405"/>
      <point x="281" y="403"/>
      <point x="290" y="398" type="curve"/>
      <point x="290" y="110" type="line"/>
      <point x="281" y="108"/>
      <point x="272" y="107"/>
    </contour>
  </outline>
</glyph>
<glyph name="eogonek" format="2">
  <advance width="462"/>
  <unicode hex="0119"/>
  <anchor x="231" y="532" name="top"/>
  <outline>
    <contour>
      <point x="312" y="-208" type="curve" smooth="yes"/>
      <point x="341" y="-208"/>
      <point x="374" y="-204"/>
      <point x="401" y="-193" type="curve"/>
      <point x="392" y="-100" type="line"/>
      <point x="373" y="-107"/>
      <point x="360" y="-108"/>
      <point x="348" y="-108" type="curve" smooth="yes"/>
      <point x="324" y="-108"/>
      <point x="312" y="-97"/>
      <point x="312" y="-75" type="curve"/>
      <point x="312" y="-53"/>
      <point x="329" y="-29"/>
      <point x="397" y="11" type="curve"/>
      <point x="381" y="119" type="line"/>
      <point x="359" y="109"/>
      <point x="325" y="106"/>
      <point x="290" y="106" type="curve" smooth="yes"/>
      <point x="222" y="106"/>
      <point x="186" y="145"/>
      <point x="185" y="215" type="curve"/>
      <point x="417" y="215" type="line"/>
      <point x="418" y="233"/>
      <point x="419" y="251"/>
      <point x="419" y="272" type="curve"/>
      <point x="419" y="439"/>
      <point x="357" y="546"/>
      <point x="238" y="546" type="curve" smooth="yes"/>
      <point x="119" y="546"/>
      <point x="43" y="440"/>
      <point x="43" y="259" type="curve" smooth="yes"/>
      <point x="43" y="93"/>
      <point x="117" y="-14"/>
      <point x="250" y="-14" type="curve" smooth="yes"/>
      <point x="251" y="-14"/>
      <point x="252" y="-14"/>
      <point x="253" y="-14" type="curve"/>
      <point x="219" y="-44"/>
      <point x="196" y="-75"/>
      <point x="196" y="-113" type="curve" smooth="yes"/>
      <point x="196" y="-172"/>
      <point x="242" y="-208"/>
    </contour>
    <contour>
      <point x="184" y="312" type="line"/>
      <point x="186" y="400"/>
      <point x="200" y="435"/>
      <point x="234" y="435" type="curve"/>
      <point x="268" y="435"/>
      <point x="285" y="402"/>
      <point x="287" y="312" type="curve"/>
    </contour>
  </outline>
</glyph>
<glyph name="idotless" format="2">
  <advance width="276"/>
  <unicode hex="0131"/>
  <anchor x="138" y="0" name="bottom"/>
  <anchor x="248" y="10" name="ogonek"/>
  <anchor x="138" y="532" name="top"/>
  <outline>
    <contour>
      <point x="69" y="0" type="line"/>
      <point x="207" y="0" type="line"/>
      <point x="207" y="532" type="line"/>
      <point x="69" y="532" type="line"/>
    </contour>
  </outline>
</glyph>
<glyph name="kgreenlandic" format="2">
  <advance width="458"/>
  <unicode hex="0138"/>
  <anchor x="229" y="0" name="bottom"/>
  <anchor x="229" y="532" name="top"/>
  <outline>
    <contour>
      <point x="69" y="0" type="line"/>
      <point x="207" y="0" type="line"/>
      <point x="207" y="228" type="line"/>
      <point x="258" y="155"/>
      <point x="290" y="75"/>
      <point x="309" y="0" type="curve"/>
      <point x="455" y="0" type="line"/>
      <point x="429" y="94"/>
      <point x="378" y="194"/>
      <point x="315" y="277" type="curve"/>
      <point x="368" y="367"/>
      <point x="416" y="458"/>
      <point x="450" y="532" type="curve"/>
      <point x="304" y="532" type="line"/>
      <point x="283" y="479"/>
      <point x="247" y="393"/>
      <point x="207" y="313" type="curve"/>
      <point x="207" y="532" type="line"/>
      <point x="69" y="532" type="line"/>
    </contour>
  </outline>
</glyph>
<glyph name="Eng" format="2">
  <advance width="607"/>
  <unicode hex="014A"/>
  <anchor x="299" y="0" name="bottom"/>
  <anchor x="299" y="693" name="top"/>
  <outline>
    <contour>
      <point x="373" y="-188" type="curve" smooth="yes"/>
      <point x="481" y="-188"/>
      <point x="529" y="-124"/>
      <point x="529" y="-18" type="curve" smooth="yes"/>
      <point x="529" y="693" type="line"/>
      <point x="396" y="693" type="line"/>
      <point x="396" y="310" type="line"/>
      <point x="339" y="437"/>
      <point x="263" y="575"/>
      <point x="193" y="693" type="curve"/>
      <point x="78" y="693" type="line"/>
      <point x="78" y="0" type="line"/>
      <point x="211" y="0" type="line"/>
      <point x="211" y="429" type="line"/>
      <point x="288" y="286"/>
      <point x="354" y="151"/>
      <point x="396" y="48" type="curve"/>
      <point x="396" y="-18" type="line"/>
      <point x="396" y="-54"/>
      <point x="386" y="-68"/>
      <point x="356" y="-68" type="curve"/>
      <point x="345" y="-68"/>
      <point x="332" y="-66"/>
      <point x="322" y="-63" type="curve"/>
      <point x="303" y="-176" type="line"/>
      <point x="325" y="-185"/>
      <point x="349" y="-188"/>
    </contour>
  </outline>
</glyph>
<glyph name="eng" format="2">
  <advance width="505"/>
  <unicode hex="014B"/>
  <anchor x="252" y="0" name="bottom"/>
  <anchor x="252" y="527" name="top"/>
  <outline>
    <contour>
      <point x="275" y="-188" type="curve" smooth="yes"/>
      <point x="391" y="-188"/>
      <point x="442" y="-124"/>
      <point x="442" y="-1" type="curve" smooth="yes"/>
      <point x="442" y="313" type="line" smooth="yes"/>
      <point x="442" y="467"/>
      <point x="375" y="542"/>
      <point x="238" y="542" type="curve" smooth="yes"/>
      <point x="179" y="542"/>
      <point x="125" y="535"/>
      <point x="69" y="521" type="curve"/>
      <point x="69" y="0" type="line"/>
      <point x="207" y="0" type="line"/>
      <point x="207" y="422" type="line"/>
      <point x="217" y="424"/>
      <point x="226" y="425"/>
      <point x="234" y="425" type="curve" smooth="yes"/>
      <point x="286" y="425"/>
      <point x="304" y="394"/>
      <point x="304" y="307" type="curve" smooth="yes"/>
      <point x="304" y="-29" type="line" smooth="yes"/>
      <point x="304" y="-65"/>
      <point x="293" y="-79"/>
      <point x="262" y="-79" type="curve"/>
      <point x="249" y="-79"/>
      <point x="238" y="-77"/>
      <point x="225" y="-73" type="curve"/>
      <point x="206" y="-175" type="line"/>
      <point x="228" y="-183"/>
      <point x="252" y="-188"/>
    </contour>
  </outline>
</glyph>
<glyph name="OE" format="2">
  <advance width="800"/>
  <unicode hex="0152"/>
  <anchor x="400" y="0" name="bottom"/>
  <anchor x="400" y="693" name="top"/>
  <outline>
    <contour>
      <point x="339" y="-5" type="curve" smooth="yes"/>
      <point x="360" y="-5"/>
      <point x="380" y="-3"/>
      <point x="399" y="0" type="curve"/>
      <point x="758" y="0" type="line"/>
      <point x="758" y="119" type="line"/>
      <point x="535" y="119" type="line"/>
      <point x="535" y="306" type="line"/>
      <point x="721" y="306" type="line"/>
      <point x="721" y="421" type="line"/>
      <point x="535" y="421" type="line"/>
      <point x="535" y="574" type="line"/>
      <point x="737" y="574" type="line"/>
      <point x="737" y="693" type="line"/>
      <point x="399" y="693" type="line"/>
      <point x="380" y="696"/>
      <point x="360" y="698"/>
      <point x="339" y="698" type="curve" smooth="yes"/>
      <point x="155" y="698"/>
      <point x="49" y="570"/>
      <point x="49" y="348" type="curve" smooth="yes"/>
      <point x="49" y="124"/>
      <point x="155" y="-5"/>
    </contour>
    <contour>
      <point x="339" y="119" type="curve" smooth="yes"/>
      <point x="242" y="119"/>
      <point x="199" y="190"/>
      <point x="199" y="348" type="curve" smooth="yes"/>
      <point x="199" y="505"/>
      <point x="241" y="574"/>
      <point x="339" y="574" type="curve" smooth="yes"/>
      <point x="360" y="574"/>
      <point x="377" y="571"/>
      <point x="393" y="565" type="curve"/>
      <point x="393" y="128" type="line"/>
      <point x="377" y="122"/>
      <point x="359" y="119"/>
    </contour>
  </outline>
</glyph>
<glyph name="oe" format="2">
  <advance width="709"/>
  <unicode hex="0153"/>
  <anchor x="354" y="0" name="bottom"/>
  <anchor x="354" y="527" name="top"/>
  <outline>
    <contour>
      <point x="243" y="-14" type="curve" smooth="yes"/>
      <point x="296" y="-14"/>
      <point x="338" y="8"/>
      <point x="369" y="50" type="curve"/>
      <point x="403" y="8"/>
      <point x="451" y="-14"/>
      <point x="512" y="-14" type="curve" smooth="yes"/>
      <point x="562" y="-14"/>
      <point x="606" y="-7"/>
      <point x="644" y="11" type="curve"/>
      <point x="628" y="119" type="line"/>
      <point x="606" y="109"/>
      <point x="572" y="106"/>
      <point x="537" y="106" type="curve" smooth="yes"/>
      <point x="469" y="106"/>
      <point x="433" y="145"/>
      <point x="432" y="215" type="curve"/>
      <point x="664" y="215" type="line"/>
      <point x="665" y="233"/>
      <point x="666" y="251"/>
      <point x="666" y="272" type="curve"/>
      <point x="666" y="439"/>
      <point x="604" y="546"/>
      <point x="485" y="546" type="curve" smooth="yes"/>
      <point x="437" y="546"/>
      <point x="397" y="525"/>
      <point x="367" y="484" type="curve"/>
      <point x="337" y="525"/>
      <point x="295" y="546"/>
      <point x="243" y="546" type="curve" smooth="yes"/>
      <point x="116" y="546"/>
      <point x="43" y="444"/>
      <point x="43" y="266" type="curve" smooth="yes"/>
      <point x="43" y="88"/>
      <point x="116" y="-14"/>
    </contour>
    <contour>
      <point x="243" y="105" type="curve" smooth="yes"/>
      <point x="203" y="105"/>
      <point x="187" y="150"/>
      <point x="187" y="266" type="curve" smooth="yes"/>
      <point x="187" y="382"/>
      <point x="203" y="427"/>
      <point x="243" y="427" type="curve" smooth="yes"/>
      <point x="283" y="427"/>
      <point x="299" y="382"/>
      <point x="299" y="266" type="curve" smooth="yes"/>
      <point x="299" y="149"/>
      <point x="284" y="105"/>
    </contour>
    <contour>
      <point x="431" y="312" type="line"/>
      <point x="433" y="400"/>
      <point x="447" y="435"/>
      <point x="481" y="435" type="curve"/>
      <point x="515" y="435"/>
      <point x="532" y="402"/>
      <point x="534" y="312" type="curve"/>
    </contour>
  </outline>
</glyph>
<glyph name="scedilla" format="2">
  <advance width="376"/>
  <unicode hex="015F"/>
  <outline>
    <contour>
      <point x="146" y="-210" type="curve" smooth="yes"/>
      <point x="223" y="-210"/>
      <point x="274" y="-173"/>
      <point x="274" y="-116" type="curve" smooth="yes"/>
      <point x="274" y="-79"/>
      <point x="260" y="-58"/>
      <point x="224" y="-42" type="curve"/>
      <point x="229" y="-30"/>
      <point x="236" y="-15"/>
      <point x="242" y="-1" type="curve"/>
      <point x="308" y="22"/>
      <point x="348" y="78"/>
      <point x="348" y="154" type="curve" smooth="yes"/>
      <point x="348" y="219"/>
      <point x="313" y="267"/>
      <point x="254" y="307" type="curve" smooth="yes"/>
      <point x="195" y="347"/>
      <point x="175" y="361"/>
      <point x="175" y="393" type="curve"/>
      <point x="175" y="420"/>
      <point x="194" y="434"/>
      <point x="230" y="434" type="curve" smooth="yes"/>
      <point x="254" y="434"/>
      <point x="278" y="430"/>
      <point x="308" y="418" type="curve"/>
      <point x="330" y="524" type="line"/>
      <point x="312" y="533"/>
      <point x="269" y="546"/>
      <point x="218" y="546" type="curve" smooth="yes"/>
      <point x="111" y="546"/>
      <point x="41" y="475"/>
      <point x="41" y="379" type="curve" smooth="yes"/>
      <point x="41" y="310"/>
      <point x="67" y="270"/>
      <point x="129" y="231" type="curve" smooth="yes"/>
      <point x="191" y="192"/>
      <point x="210" y="175"/>
      <point x="210" y="142" type="curve"/>
      <point x="210" y="116"/>
      <point x="194" y="98"/>
      <point x="153" y="98" type="curve"/>
      <point x="126" y="98"/>
      <point x="90" y="108"/>
      <point x="62" y="124" type="curve"/>
      <point x="36" y="17" type="line"/>
      <point x="57" y="5"/>
      <point x="97" y="-10"/>
      <point x="144" y="-13" type="curve"/>
      <point x="135" y="-32"/>
      <point x="126" y="-54"/>
      <point x="121" y="-71" type="curve"/>
      <point x="155" y="-75"/>
      <point x="172" y="-85"/>
      <point x="172" y="-101" type="curve" smooth="yes"/>
      <point x="172" y="-116"/>
      <point x="156" y="-126"/>
      <point x="131" y="-126" type="curve" smooth="yes"/>
      <point x="116" y="-126"/>
      <point x="98" y="-123"/>
      <point x="84" y="-117" type="curve"/>
      <point x="68" y="-198" type="line"/>
      <point x="95" y="-206"/>
      <point x="122" y="-210"/>
    </contour>
  </outline>
</glyph>
<glyph name="Tcedilla" format="2">
  <advance width="464"/>
  <unicode hex="0162"/>
  <outline>
    <contour>
      <point x="186" y="-210" type="curve" smooth="yes"/>
      <point x="263" y="-210"/>
      <point x="314" y="-173"/>
      <point x="314" y="-116" type="curve" smooth="yes"/>
      <point x="314" y="-79"/>
      <point x="300" y="-58"/>
      <point x="264" y="-42" type="curve"/>
      <point x="269" y="-29"/>
      <point x="276" y="-13"/>
      <point x="283" y="0" type="curve"/>
      <point x="303" y="0" type="line"/>
      <point x="303" y="574" type="line"/>
      <point x="448" y="574" type="line"/>
      <point x="448" y="693" type="line"/>
      <point x="16" y="693" type="line"/>
      <point x="16" y="574" type="line"/>
      <point x="161" y="574" type="line"/>
      <point x="161" y="0" type="line"/>
      <point x="190" y="0" type="line"/>
      <point x="179" y="-21"/>
      <point x="167" y="-50"/>
      <point x="161" y="-71" type="curve"/>
      <point x="195" y="-75"/>
      <point x="212" y="-85"/>
      <point x="212" y="-101" type="curve" smooth="yes"/>
      <point x="212" y="-116"/>
      <point x="196" y="-126"/>
      <point x="171" y="-126" type="curve" smooth="yes"/>
      <point x="156" y="-126"/>
      <point x="138" y="-123"/>
      <point x="124" y="-117" type="curve"/>
      <point x="108" y="-198" type="line"/>
      <point x="135" y="-206"/>
      <point x="162" y="-210"/>
    </contour>
  </outline>
</glyph>
<glyph name="uni0163" format="2">
  <advance width="363"/>
  <unicode hex="0163"/>
  <outline>
    <contour>
      <point x="165" y="-210" type="curve" smooth="yes"/>
      <point x="242" y="-210"/>
      <point x="293" y="-173"/>
      <point x="293" y="-116" type="curve" smooth="yes"/>
      <point x="293" y="-79"/>
      <point x="279" y="-58"/>
      <point x="243" y="-42" type="curve"/>
      <point x="247" y="-33"/>
      <point x="251" y="-23"/>
      <point x="256" y="-12" type="curve"/>
      <point x="287" y="-9"/>
      <point x="320" y="2"/>
      <point x="338" y="15" type="curve"/>
      <point x="317" y="121" type="line"/>
      <point x="298" y="110"/>
      <point x="281" y="106"/>
      <point x="257" y="106" type="curve"/>
      <point x="220" y="106"/>
      <point x="201" y="131"/>
      <point x="201" y="192" type="curve" smooth="yes"/>
      <point x="201" y="419" type="line"/>
      <point x="328" y="419" type="line"/>
      <point x="328" y="532" type="line"/>
      <point x="201" y="532" type="line"/>
      <point x="201" y="681" type="line"/>
      <point x="63" y="659" type="line"/>
      <point x="63" y="200" type="line" smooth="yes"/>
      <point x="63" y="88"/>
      <point x="94" y="18"/>
      <point x="166" y="-5" type="curve"/>
      <point x="157" y="-25"/>
      <point x="146" y="-52"/>
      <point x="140" y="-71" type="curve"/>
      <point x="174" y="-75"/>
      <point x="191" y="-85"/>
      <point x="191" y="-101" type="curve" smooth="yes"/>
      <point x="191" y="-116"/>
      <point x="175" y="-126"/>
      <point x="150" y="-126" type="curve" smooth="yes"/>
      <point x="135" y="-126"/>
      <point x="117" y="-123"/>
      <point x="103" y="-117" type="curve"/>
      <point x="87" y="-198" type="line"/>
      <point x="114" y="-206"/>
      <point x="141" y="-210"/>
    </contour>
  </outline>
</glyph>
<glyph name="Tbar" format="2">
  <advance width="464"/>
  <unicode hex="0166"/>
  <outline>
    <contour>
      <point x="161" y="0" type="line"/>
      <point x="303" y="0" type="line"/>
      <point x="303" y="298" type="line"/>
      <point x="393" y="298" type="line"/>
      <point x="393" y="397" type="line"/>
      <point x="303" y="397" type="line"/>
      <point x="303" y="574" type="line"/>
      <point x="448" y="574" type="line"/>
      <point x="448" y="693" type="line"/>
      <point x="16" y="693" type="line"/>
      <point x="16" y="574" type="line"/>
      <point x="161" y="574" type="line"/>
      <point x="161" y="397" type="line"/>
      <point x="71" y="397" type="line"/>
      <point x="71" y="298" type="line"/>
      <point x="161" y="298" type="line"/>
    </contour>
  </outline>
</glyph>
<glyph name="tbar" format="2">
  <advance width="363"/>
  <unicode hex="0167"/>
  <outline>
    <contour>
      <point x="230" y="-14" type="curve" smooth="yes"/>
      <point x="268" y="-14"/>
      <point x="315" y="-2"/>
      <point x="338" y="15" type="curve"/>
      <point x="317" y="121" type="line"/>
      <point x="298" y="110"/>
      <point x="281" y="106"/>
      <point x="257" y="106" type="curve"/>
      <point x="220" y="106"/>
      <point x="201" y="131"/>
      <point x="201" y="192" type="curve" smooth="yes"/>
      <point x="201" y="226" type="line"/>
      <point x="327" y="226" type="line"/>
      <point x="327" y="315" type="line"/>
      <point x="201" y="315" type="line"/>
      <point x="201" y="419" type="line"/>
      <point x="328" y="419" type="line"/>
      <point x="328" y="532" type="line"/>
      <point x="201" y="532" type="line"/>
      <point x="201" y="681" type="line"/>
      <point x="63" y="659" type="line"/>
      <point x="63" y="200" type="line" smooth="yes"/>
      <point x="63" y="59"/>
      <point x="112" y="-14"/>
    </contour>
  </outline>
</glyph>
<glyph name="uogonek" format="2">
  <advance width="505"/>
  <unicode hex="0173"/>
  <outline>
    <contour>
      <point x="353" y="-208" type="curve" smooth="yes"/>
      <point x="382" y="-208"/>
      <point x="415" y="-204"/>
      <point x="442" y="-193" type="curve"/>
      <point x="433" y="-100" type="line"/>
      <point x="414" y="-107"/>
      <point x="401" y="-108"/>
      <point x="389" y="-108" type="curve" smooth="yes"/>
      <point x="365" y="-108"/>
      <point x="353" y="-97"/>
      <point x="353" y="-75" type="curve"/>
      <point x="353" y="-53"/>
      <point x="368" y="-28"/>
      <point x="436" y="12" type="curve"/>
      <point x="436" y="532" type="line"/>
      <point x="298" y="532" type="line"/>
      <point x="298" y="110" type="line"/>
      <point x="288" y="108"/>
      <point x="279" y="107"/>
      <point x="271" y="107" type="curve" smooth="yes"/>
      <point x="219" y="107"/>
      <point x="201" y="138"/>
      <point x="201" y="225" type="curve" smooth="yes"/>
      <point x="201" y="532" type="line"/>
      <point x="63" y="532" type="line"/>
      <point x="63" y="219" type="line" smooth="yes"/>
      <point x="63" y="65"/>
      <point x="130" y="-10"/>
      <point x="267" y="-10" type="curve" smooth="yes"/>
      <point x="276" y="-10"/>
      <point x="286" y="-10"/>
      <point x="295" y="-9" type="curve"/>
      <point x="259" y="-41"/>
      <point x="237" y="-73"/>
      <point x="237" y="-113" type="curve" smooth="yes"/>
      <point x="237" y="-172"/>
      <point x="283" y="-208"/>
    </contour>
  </outline>
</glyph>
<glyph name="longs" format="2">
  <advance width="291"/>
  <unicode hex="017F"/>
  <anchor x="146" y="0" name="bottom"/>
  <anchor x="146" y="532" name="top"/>
  <outline>
    <contour>
      <point x="69" y="0" type="line"/>
      <point x="207" y="0" type="line"/>
      <point x="207" y="588" type="line" smooth="yes"/>
      <point x="207" y="639"/>
      <point x="226" y="659"/>
      <point x="271" y="659" type="curve"/>
      <point x="289" y="659"/>
      <point x="311" y="654"/>
      <point x="325" y="647" type="curve"/>
      <point x="351" y="758" type="line"/>
      <point x="329" y="768"/>
      <point x="290" y="776"/>
      <point x="250" y="776" type="curve"/>
      <point x="131" y="776"/>
      <point x="69" y="711"/>
      <point x="69" y="578" type="curve" smooth="yes"/>
    </contour>
  </outline>
</glyph>
<glyph name="uni0182" format="2">
  <advance width="534"/>
  <unicode hex="0182"/>
  <outline>
    <contour>
      <point x="240" y="-10" type="curve"/>
      <point x="397" y="-10"/>
      <point x="494" y="75"/>
      <point x="494" y="220" type="curve" smooth="yes"/>
      <point x="494" y="365"/>
      <point x="405" y="447"/>
      <point x="241" y="447" type="curve" smooth="yes"/>
      <point x="220" y="447" type="line"/>
      <point x="220" y="574" type="line"/>
      <point x="428" y="574" type="line"/>
      <point x="428" y="693" type="line"/>
      <point x="78" y="693" type="line"/>
      <point x="78" y="11" type="line"/>
      <point x="129" y="-2"/>
      <point x="192" y="-10"/>
    </contour>
    <contour>
      <point x="249" y="112" type="curve"/>
      <point x="240" y="112"/>
      <point x="229" y="113"/>
      <point x="220" y="115" type="curve"/>
      <point x="220" y="328" type="line"/>
      <point x="237" y="328" type="line" smooth="yes"/>
      <point x="309" y="328"/>
      <point x="346" y="292"/>
      <point x="346" y="220" type="curve" smooth="yes"/>
      <point x="346" y="145"/>
      <point x="316" y="112"/>
    </contour>
  </outline>
</glyph>
<glyph name="Tonesix" format="2">
  <advance width="497"/>
  <unicode hex="0184"/>
  <outline>
    <contour>
      <point x="239" y="-10" type="curve"/>
      <point x="379" y="-10"/>
      <point x="454" y="84"/>
      <point x="454" y="257" type="curve" smooth="yes"/>
      <point x="454" y="448"/>
      <point x="393" y="542"/>
      <point x="268" y="542" type="curve"/>
      <point x="247" y="542"/>
      <point x="224" y="538"/>
      <point x="207" y="530" type="curve"/>
      <point x="207" y="776" type="line"/>
      <point x="124" y="754"/>
      <point x="61" y="725"/>
      <point x="-5" y="686" type="curve"/>
      <point x="69" y="599" type="line"/>
      <point x="69" y="11" type="line"/>
      <point x="126" y="-3"/>
      <point x="179" y="-10"/>
    </contour>
    <contour>
      <point x="236" y="107" type="curve"/>
      <point x="225" y="107"/>
      <point x="216" y="108"/>
      <point x="207" y="110" type="curve"/>
      <point x="207" y="418" type="line"/>
      <point x="216" y="423"/>
      <point x="229" y="425"/>
      <point x="242" y="425" type="curve"/>
      <point x="289" y="425"/>
      <point x="310" y="392"/>
      <point x="310" y="257" type="curve" smooth="yes"/>
      <point x="310" y="133"/>
      <point x="288" y="107"/>
    </contour>
  </outline>
</glyph>
<glyph name="uni0184" format="2">
  <advance width="497"/>
  <unicode hex="0184"/>
  <outline>
    <contour>
      <point x="239" y="-10" type="curve"/>
      <point x="379" y="-10"/>
      <point x="454" y="84"/>
      <point x="454" y="257" type="curve" smooth="yes"/>
      <point x="454" y="448"/>
      <point x="393" y="542"/>
      <point x="268" y="542" type="curve"/>
      <point x="247" y="542"/>
      <point x="224" y="538"/>
      <point x="207" y="530" type="curve"/>
      <point x="207" y="776" type="line"/>
      <point x="124" y="754"/>
      <point x="61" y="725"/>
      <point x="-5" y="686" type="curve"/>
      <point x="69" y="599" type="line"/>
      <point x="69" y="11" type="line"/>
      <point x="126" y="-3"/>
      <point x="179" y="-10"/>
    </contour>
    <contour>
      <point x="236" y="107" type="curve"/>
      <point x="225" y="107"/>
      <point x="216" y="108"/>
      <point x="207" y="110" type="curve"/>
      <point x="207" y="418" type="line"/>
      <point x="216" y="423"/>
      <point x="229" y="425"/>
      <point x="242" y="425" type="curve"/>
      <point x="289" y="425"/>
      <point x="310" y="392"/>
      <point x="310" y="257" type="curve" smooth="yes"/>
      <point x="310" y="133"/>
      <point x="288" y="107"/>
    </contour>
  </outline>
</glyph>
<glyph name="Oopen" format="2">
  <advance width="487"/>
  <unicode hex="0186"/>
  <unicode hex="0254"/>
  <anchor x="244" y="0" name="bottom"/>
  <anchor x="244" y="693" name="top"/>
  <outline>
    <contour>
      <point x="167" y="-14" type="curve"/>
      <point x="348" y="-14"/>
      <point x="438" y="105"/>
      <point x="438" y="345" type="curve" smooth="yes"/>
      <point x="438" y="583"/>
      <point x="344" y="707"/>
      <point x="163" y="707" type="curve"/>
      <point x="100" y="707"/>
      <point x="47" y="695"/>
      <point x="10" y="672" type="curve"/>
      <point x="47" y="558" type="line"/>
      <point x="76" y="575"/>
      <point x="108" y="583"/>
      <point x="147" y="583" type="curve"/>
      <point x="250" y="583"/>
      <point x="288" y="519"/>
      <point x="288" y="345" type="curve" smooth="yes"/>
      <point x="288" y="171"/>
      <point x="257" y="110"/>
      <point x="168" y="110" type="curve"/>
      <point x="124" y="110"/>
      <point x="87" y="120"/>
      <point x="58" y="140" type="curve"/>
      <point x="17" y="21" type="line"/>
      <point x="54" y="-1"/>
      <point x="110" y="-14"/>
    </contour>
  </outline>
</glyph>
<glyph name="uni0186" format="2">
  <advance width="487"/>
  <unicode hex="0186"/>
  <anchor x="244" y="0" name="bottom"/>
  <anchor x="244" y="693" name="top"/>
  <outline>
    <contour>
      <point x="167" y="-14" type="curve"/>
      <point x="348" y="-14"/>
      <point x="438" y="105"/>
      <point x="438" y="345" type="curve" smooth="yes"/>
      <point x="438" y="583"/>
      <point x="344" y="707"/>
      <point x="163" y="707" type="curve"/>
      <point x="100" y="707"/>
      <point x="47" y="695"/>
      <point x="10" y="672" type="curve"/>
      <point x="47" y="558" type="line"/>
      <point x="76" y="575"/>
      <point x="108" y="583"/>
      <point x="147" y="583" type="curve"/>
      <point x="250" y="583"/>
      <point x="288" y="519"/>
      <point x="288" y="345" type="curve" smooth="yes"/>
      <point x="288" y="171"/>
      <point x="257" y="110"/>
      <point x="168" y="110" type="curve"/>
      <point x="124" y="110"/>
      <point x="87" y="120"/>
      <point x="58" y="140" type="curve"/>
      <point x="17" y="21" type="line"/>
      <point x="54" y="-1"/>
      <point x="110" y="-14"/>
    </contour>
  </outline>
</glyph>
<glyph name="uni0187" format="2">
  <advance width="537"/>
  <unicode hex="0187"/>
  <anchor x="269" y="0" name="bottom"/>
  <anchor x="269" y="693" name="top"/>
  <outline>
    <contour>
      <point x="324" y="-14" type="curve"/>
      <point x="389" y="-14"/>
      <point x="443" y="-2"/>
      <point x="481" y="21" type="curve"/>
      <point x="444" y="135" type="line"/>
      <point x="414" y="118"/>
      <point x="381" y="110"/>
      <point x="340" y="110" type="curve"/>
      <point x="237" y="110"/>
      <point x="199" y="174"/>
      <point x="199" y="348" type="curve" smooth="yes"/>
      <point x="199" y="522"/>
      <point x="230" y="583"/>
      <point x="319" y="583" type="curve"/>
      <point x="363" y="583"/>
      <point x="399" y="573"/>
      <point x="428" y="553" type="curve"/>
      <point x="436" y="583" type="line" smooth="yes"/>
      <point x="455" y="655"/>
      <point x="476" y="670"/>
      <point x="506" y="670" type="curve"/>
      <point x="525" y="670"/>
      <point x="545" y="663"/>
      <point x="558" y="654" type="curve"/>
      <point x="577" y="768" type="line"/>
      <point x="558" y="779"/>
      <point x="531" y="786"/>
      <point x="500" y="786" type="curve" smooth="yes"/>
      <point x="448" y="786"/>
      <point x="413" y="756"/>
      <point x="388" y="701" type="curve"/>
      <point x="367" y="705"/>
      <point x="344" y="707"/>
      <point x="320" y="707" type="curve"/>
      <point x="139" y="707"/>
      <point x="49" y="588"/>
      <point x="49" y="348" type="curve" smooth="yes"/>
      <point x="49" y="110"/>
      <point x="143" y="-14"/>
    </contour>
  </outline>
</glyph>
<glyph name="uni0188" format="2">
  <advance width="434"/>
  <unicode hex="0188"/>
  <anchor x="217" y="0" name="bottom"/>
  <anchor x="217" y="532" name="top"/>
  <outline>
    <contour>
      <point x="251" y="-14" type="curve" smooth="yes"/>
      <point x="300" y="-14"/>
      <point x="335" y="-8"/>
      <point x="363" y="5" type="curve"/>
      <point x="345" y="118" type="line"/>
      <point x="328" y="110"/>
      <point x="312" y="106"/>
      <point x="286" y="106" type="curve"/>
      <point x="230" y="106"/>
      <point x="187" y="145"/>
      <point x="187" y="266" type="curve" smooth="yes"/>
      <point x="187" y="388"/>
      <point x="219" y="426"/>
      <point x="274" y="426" type="curve"/>
      <point x="296" y="426"/>
      <point x="316" y="420"/>
      <point x="336" y="408" type="curve"/>
      <point x="349" y="466" type="line" smooth="yes"/>
      <point x="358" y="508"/>
      <point x="375" y="518"/>
      <point x="397" y="518" type="curve" smooth="yes"/>
      <point x="410" y="518"/>
      <point x="424" y="516"/>
      <point x="444" y="506" type="curve"/>
      <point x="469" y="609" type="line"/>
      <point x="450" y="619"/>
      <point x="423" y="628"/>
      <point x="392" y="628" type="curve" smooth="yes"/>
      <point x="344" y="628"/>
      <point x="306" y="606"/>
      <point x="278" y="545" type="curve"/>
      <point x="270" y="546"/>
      <point x="261" y="546"/>
      <point x="253" y="546" type="curve" smooth="yes"/>
      <point x="122" y="546"/>
      <point x="43" y="441"/>
      <point x="43" y="266" type="curve" smooth="yes"/>
      <point x="43" y="84"/>
      <point x="118" y="-14"/>
    </contour>
  </outline>
</glyph>
<glyph name="Dhook" format="2">
  <advance width="696"/>
  <unicode hex="018A"/>
  <unicode hex="0257"/>
  <anchor x="348" y="0" name="bottom"/>
  <anchor x="348" y="693" name="top"/>
  <outline>
    <contour>
      <point x="355" y="-10" type="curve"/>
      <point x="540" y="-10"/>
      <point x="647" y="119"/>
      <point x="647" y="347" type="curve" smooth="yes"/>
      <point x="647" y="585"/>
      <point x="557" y="703"/>
      <point x="331" y="703" type="curve"/>
      <point x="78" y="703"/>
      <point x="5" y="614"/>
      <point x="5" y="529" type="curve" smooth="yes"/>
      <point x="5" y="506"/>
      <point x="8" y="482"/>
      <point x="12" y="461" type="curve"/>
      <point x="120" y="475" type="line"/>
      <point x="117" y="489"/>
      <point x="115" y="501"/>
      <point x="115" y="513" type="curve" smooth="yes"/>
      <point x="115" y="550"/>
      <point x="132" y="575"/>
      <point x="182" y="582" type="curve"/>
      <point x="182" y="11" type="line"/>
      <point x="237" y="-4"/>
      <point x="290" y="-10"/>
    </contour>
    <contour>
      <point x="368" y="112" type="curve"/>
      <point x="351" y="112"/>
      <point x="337" y="113"/>
      <point x="324" y="116" type="curve"/>
      <point x="324" y="577" type="line"/>
      <point x="337" y="580"/>
      <point x="351" y="581"/>
      <point x="368" y="581" type="curve"/>
      <point x="457" y="581"/>
      <point x="497" y="509"/>
      <point x="497" y="347" type="curve" smooth="yes"/>
      <point x="497" y="191"/>
      <point x="454" y="112"/>
    </contour>
  </outline>
</glyph>
<glyph name="Dtopbar" format="2">
  <advance width="534"/>
  <unicode hex="018B"/>
  <anchor x="267" y="0" name="bottom"/>
  <anchor x="267" y="693" name="top"/>
  <outline>
    <contour>
      <point x="294" y="-10" type="curve"/>
      <point x="342" y="-10"/>
      <point x="405" y="-2"/>
      <point x="456" y="11" type="curve"/>
      <point x="456" y="693" type="line"/>
      <point x="106" y="693" type="line"/>
      <point x="106" y="574" type="line"/>
      <point x="314" y="574" type="line"/>
      <point x="314" y="447" type="line"/>
      <point x="293" y="447" type="line" smooth="yes"/>
      <point x="129" y="447"/>
      <point x="40" y="365"/>
      <point x="40" y="220" type="curve" smooth="yes"/>
      <point x="40" y="75"/>
      <point x="137" y="-10"/>
    </contour>
    <contour>
      <point x="285" y="112" type="curve"/>
      <point x="218" y="112"/>
      <point x="188" y="145"/>
      <point x="188" y="220" type="curve" smooth="yes"/>
      <point x="188" y="292"/>
      <point x="225" y="328"/>
      <point x="297" y="328" type="curve" smooth="yes"/>
      <point x="314" y="328" type="line"/>
      <point x="314" y="115" type="line"/>
      <point x="305" y="113"/>
      <point x="294" y="112"/>
    </contour>
  </outline>
</glyph>
<glyph name="dtopbar" format="2">
  <advance width="490"/>
  <unicode hex="018C"/>
  <anchor x="245" y="0" name="bottom"/>
  <anchor x="245" y="532" name="top"/>
  <outline>
    <contour>
      <point x="251" y="-10" type="curve"/>
      <point x="311" y="-10"/>
      <point x="364" y="-3"/>
      <point x="421" y="11" type="curve"/>
      <point x="421" y="770" type="line"/>
      <point x="99" y="770" type="line"/>
      <point x="99" y="657" type="line"/>
      <point x="283" y="657" type="line"/>
      <point x="283" y="530" type="line"/>
      <point x="266" y="538"/>
      <point x="243" y="542"/>
      <point x="222" y="542" type="curve"/>
      <point x="97" y="542"/>
      <point x="36" y="448"/>
      <point x="36" y="257" type="curve" smooth="yes"/>
      <point x="36" y="84"/>
      <point x="111" y="-10"/>
    </contour>
    <contour>
      <point x="254" y="107" type="curve"/>
      <point x="202" y="107"/>
      <point x="180" y="133"/>
      <point x="180" y="257" type="curve" smooth="yes"/>
      <point x="180" y="392"/>
      <point x="201" y="425"/>
      <point x="248" y="425" type="curve"/>
      <point x="261" y="425"/>
      <point x="274" y="423"/>
      <point x="283" y="418" type="curve"/>
      <point x="283" y="110" type="line"/>
      <point x="274" y="108"/>
      <point x="265" y="107"/>
    </contour>
  </outline>
</glyph>
<glyph name="Ereversed" format="2">
  <advance width="491"/>
  <unicode hex="018E"/>
  <anchor x="246" y="0" name="bottom"/>
  <anchor x="246" y="693" name="top"/>
  <outline>
    <contour>
      <point x="42" y="0" type="line"/>
      <point x="413" y="0" type="line"/>
      <point x="413" y="693" type="line"/>
      <point x="63" y="693" type="line"/>
      <point x="63" y="574" type="line"/>
      <point x="271" y="574" type="line"/>
      <point x="271" y="421" type="line"/>
      <point x="79" y="421" type="line"/>
      <point x="79" y="306" type="line"/>
      <point x="271" y="306" type="line"/>
      <point x="271" y="119" type="line"/>
      <point x="42" y="119" type="line"/>
    </contour>
  </outline>
</glyph>
<glyph name="Schwa" format="2">
  <advance width="572"/>
  <unicode hex="018F"/>
  <unicode hex="0259"/>
  <anchor x="286" y="0" name="bottom"/>
  <anchor x="280" y="683" name="top"/>
  <outline>
    <contour>
      <point x="285" y="-14" type="curve" smooth="yes"/>
      <point x="426" y="-14"/>
      <point x="523" y="118"/>
      <point x="523" y="339" type="curve"/>
      <point x="523" y="541"/>
      <point x="453" y="707"/>
      <point x="250" y="707" type="curve"/>
      <point x="185" y="707"/>
      <point x="119" y="685"/>
      <point x="76" y="656" type="curve"/>
      <point x="112" y="546" type="line"/>
      <point x="146" y="569"/>
      <point x="188" y="583"/>
      <point x="237" y="583" type="curve"/>
      <point x="322" y="583"/>
      <point x="364" y="536"/>
      <point x="372" y="393" type="curve"/>
      <point x="54" y="393" type="line"/>
      <point x="51" y="368"/>
      <point x="49" y="338"/>
      <point x="49" y="315" type="curve" smooth="yes"/>
      <point x="49" y="113"/>
      <point x="126" y="-14"/>
    </contour>
    <contour>
      <point x="283" y="108" type="curve" smooth="yes"/>
      <point x="233" y="108"/>
      <point x="198" y="157"/>
      <point x="198" y="278" type="curve"/>
      <point x="371" y="278" type="line"/>
      <point x="364" y="160"/>
      <point x="333" y="108"/>
    </contour>
  </outline>
</glyph>
<glyph name="uni018F" format="2">
  <advance width="572"/>
  <unicode hex="018F"/>
  <anchor x="286" y="0" name="bottom"/>
  <anchor x="280" y="683" name="top"/>
  <outline>
    <contour>
      <point x="285" y="-14" type="curve" smooth="yes"/>
      <point x="426" y="-14"/>
      <point x="523" y="118"/>
      <point x="523" y="339" type="curve"/>
      <point x="523" y="541"/>
      <point x="453" y="707"/>
      <point x="250" y="707" type="curve"/>
      <point x="185" y="707"/>
      <point x="119" y="685"/>
      <point x="76" y="656" type="curve"/>
      <point x="112" y="546" type="line"/>
      <point x="146" y="569"/>
      <point x="188" y="583"/>
      <point x="237" y="583" type="curve"/>
      <point x="322" y="583"/>
      <point x="364" y="536"/>
      <point x="372" y="393" type="curve"/>
      <point x="54" y="393" type="line"/>
      <point x="51" y="368"/>
      <point x="49" y="338"/>
      <point x="49" y="315" type="curve" smooth="yes"/>
      <point x="49" y="113"/>
      <point x="126" y="-14"/>
    </contour>
    <contour>
      <point x="283" y="108" type="curve" smooth="yes"/>
      <point x="233" y="108"/>
      <point x="198" y="157"/>
      <point x="198" y="278" type="curve"/>
      <point x="371" y="278" type="line"/>
      <point x="364" y="160"/>
      <point x="333" y="108"/>
    </contour>
  </outline>
</glyph>
<glyph name="Eopen" format="2">
  <advance width="472"/>
  <unicode hex="0190"/>
  <unicode hex="025B"/>
  <anchor x="236" y="0" name="bottom"/>
  <anchor x="236" y="693" name="top"/>
  <outline>
    <contour>
      <point x="279.421" y="-15" type="curve" smooth="yes"/>
      <point x="338" y="-15"/>
      <point x="399" y="0"/>
      <point x="447.428" y="26.873" type="curve"/>
      <point x="414.351" y="134.415" type="line"/>
      <point x="376" y="115"/>
      <point x="333" y="105"/>
      <point x="292" y="105" type="curve" smooth="yes"/>
      <point x="225" y="105"/>
      <point x="185" y="142"/>
      <point x="185" y="202" type="curve"/>
      <point x="185" y="268"/>
      <point x="230" y="306"/>
      <point x="307.927" y="305.716" type="curve" smooth="yes"/>
      <point x="370.649" y="305.716" type="line"/>
      <point x="371" y="420" type="line"/>
      <point x="312" y="420" type="line" smooth="yes"/>
      <point x="236" y="420"/>
      <point x="204" y="447"/>
      <point x="204" y="509" type="curve" smooth="yes"/>
      <point x="204" y="555"/>
      <point x="237" y="588"/>
      <point x="285" y="588" type="curve"/>
      <point x="328" y="588"/>
      <point x="366" y="575"/>
      <point x="396.954" y="549.402" type="curve"/>
      <point x="435.972" y="660.402" type="line"/>
      <point x="388" y="693"/>
      <point x="335" y="708"/>
      <point x="266.826" y="708" type="curve" smooth="yes"/>
      <point x="145" y="708"/>
      <point x="61" y="630"/>
      <point x="61" y="515" type="curve" smooth="yes"/>
      <point x="61" y="454"/>
      <point x="93" y="399"/>
      <point x="146" y="370" type="curve"/>
      <point x="76" y="333"/>
      <point x="39" y="275"/>
      <point x="39" y="201" type="curve" smooth="yes"/>
      <point x="39" y="64"/>
      <point x="127" y="-15"/>
    </contour>
  </outline>
</glyph>
<glyph name="Ghook" format="2">
  <advance width="549"/>
  <unicode hex="0193"/>
  <unicode hex="0260"/>
  <anchor x="275" y="0" name="bottom"/>
  <anchor x="275" y="693" name="top"/>
  <outline>
    <contour>
      <point x="323" y="-14" type="curve"/>
      <point x="420" y="-14"/>
      <point x="483" y="10"/>
      <point x="487" y="14" type="curve"/>
      <point x="487" y="366" type="line"/>
      <point x="345" y="366" type="line"/>
      <point x="345" y="111" type="line"/>
      <point x="339" y="110"/>
      <point x="334" y="110"/>
      <point x="329" y="110" type="curve"/>
      <point x="234" y="110"/>
      <point x="199" y="174"/>
      <point x="199" y="348" type="curve" smooth="yes"/>
      <point x="199" y="522"/>
      <point x="233" y="583"/>
      <point x="330" y="583" type="curve"/>
      <point x="374" y="583"/>
      <point x="411" y="573"/>
      <point x="440" y="553" type="curve"/>
      <point x="448" y="583" type="line" smooth="yes"/>
      <point x="468" y="656"/>
      <point x="488" y="670"/>
      <point x="518" y="670" type="curve"/>
      <point x="537" y="670"/>
      <point x="557" y="663"/>
      <point x="570" y="654" type="curve"/>
      <point x="589" y="768" type="line"/>
      <point x="570" y="779"/>
      <point x="543" y="786"/>
      <point x="512" y="786" type="curve" smooth="yes"/>
      <point x="460" y="786"/>
      <point x="425" y="755"/>
      <point x="400" y="700" type="curve"/>
      <point x="379" y="705"/>
      <point x="355" y="707"/>
      <point x="331" y="707" type="curve"/>
      <point x="143" y="707"/>
      <point x="49" y="588"/>
      <point x="49" y="348" type="curve" smooth="yes"/>
      <point x="49" y="110"/>
      <point x="142" y="-14"/>
    </contour>
  </outline>
</glyph>
<glyph name="Gamma-latin" format="2">
  <advance width="512"/>
  <unicode hex="0194"/>
  <unicode hex="0263"/>
  <anchor x="256" y="0" name="bottom"/>
  <anchor x="256" y="693" name="top"/>
  <outline>
    <contour>
      <point x="255.5" y="-185" type="curve"/>
      <point x="341.5" y="-185"/>
      <point x="401.5" y="-125"/>
      <point x="401.5" y="-29" type="curve"/>
      <point x="401.5" y="30"/>
      <point x="387.5" y="80"/>
      <point x="347.5" y="172" type="curve" smooth="yes"/>
      <point x="328.5" y="216" type="line"/>
      <point x="396" y="384"/>
      <point x="450" y="529"/>
      <point x="504" y="693" type="curve"/>
      <point x="356" y="693" type="line"/>
      <point x="326" y="570"/>
      <point x="295" y="464"/>
      <point x="255.5" y="342" type="curve"/>
      <point x="216" y="464"/>
      <point x="186" y="570"/>
      <point x="156" y="693" type="curve"/>
      <point x="8" y="693" type="line"/>
      <point x="62" y="529"/>
      <point x="116" y="384"/>
      <point x="183" y="216" type="curve"/>
      <point x="164" y="172" type="line" smooth="yes"/>
      <point x="124" y="80"/>
      <point x="110" y="30"/>
      <point x="110" y="-29" type="curve"/>
      <point x="110" y="-125"/>
      <point x="169.5" y="-185"/>
    </contour>
    <contour>
      <point x="255.5" y="-74" type="curve"/>
      <point x="238.5" y="-74"/>
      <point x="226" y="-56"/>
      <point x="226" y="-27" type="curve"/>
      <point x="226" y="11"/>
      <point x="232" y="41"/>
      <point x="255.5" y="116" type="curve"/>
      <point x="279.5" y="41"/>
      <point x="285.5" y="11"/>
      <point x="285.5" y="-27" type="curve"/>
      <point x="285.5" y="-56"/>
      <point x="272.5" y="-74"/>
    </contour>
  </outline>
</glyph>
<glyph name="uni0194" format="2">
  <advance width="512"/>
  <unicode hex="0194"/>
  <anchor x="256" y="0" name="bottom"/>
  <anchor x="256" y="693" name="top"/>
  <outline>
    <contour>
      <point x="255.5" y="-185" type="curve"/>
      <point x="341.5" y="-185"/>
      <point x="401.5" y="-125"/>
      <point x="401.5" y="-29" type="curve"/>
      <point x="401.5" y="30"/>
      <point x="387.5" y="80"/>
      <point x="347.5" y="172" type="curve" smooth="yes"/>
      <point x="328.5" y="216" type="line"/>
      <point x="396" y="384"/>
      <point x="450" y="529"/>
      <point x="504" y="693" type="curve"/>
      <point x="356" y="693" type="line"/>
      <point x="326" y="570"/>
      <point x="295" y="464"/>
      <point x="255.5" y="342" type="curve"/>
      <point x="216" y="464"/>
      <point x="186" y="570"/>
      <point x="156" y="693" type="curve"/>
      <point x="8" y="693" type="line"/>
      <point x="62" y="529"/>
      <point x="116" y="384"/>
      <point x="183" y="216" type="curve"/>
      <point x="164" y="172" type="line" smooth="yes"/>
      <point x="124" y="80"/>
      <point x="110" y="30"/>
      <point x="110" y="-29" type="curve"/>
      <point x="110" y="-125"/>
      <point x="169.5" y="-185"/>
    </contour>
    <contour>
      <point x="255.5" y="-74" type="curve"/>
      <point x="238.5" y="-74"/>
      <point x="226" y="-56"/>
      <point x="226" y="-27" type="curve"/>
      <point x="226" y="11"/>
      <point x="232" y="41"/>
      <point x="255.5" y="116" type="curve"/>
      <point x="279.5" y="41"/>
      <point x="285.5" y="11"/>
      <point x="285.5" y="-27" type="curve"/>
      <point x="285.5" y="-56"/>
      <point x="272.5" y="-74"/>
    </contour>
  </outline>
</glyph>
<glyph name="hv" format="2">
  <advance width="734"/>
  <unicode hex="0195"/>
  <outline>
    <contour>
      <point x="482" y="-10" type="curve"/>
      <point x="609" y="-10"/>
      <point x="671" y="58"/>
      <point x="671" y="199" type="curve" smooth="yes"/>
      <point x="671" y="532" type="line"/>
      <point x="533" y="532" type="line"/>
      <point x="533" y="205" type="line" smooth="yes"/>
      <point x="533" y="130"/>
      <point x="519" y="107"/>
      <point x="482" y="107" type="curve"/>
      <point x="448" y="107"/>
      <point x="436" y="130"/>
      <point x="436" y="205" type="curve" smooth="yes"/>
      <point x="436" y="313" type="line" smooth="yes"/>
      <point x="436" y="454"/>
      <point x="367" y="542"/>
      <point x="258" y="542" type="curve"/>
      <point x="239" y="542"/>
      <point x="222" y="540"/>
      <point x="207" y="535" type="curve"/>
      <point x="207" y="776" type="line"/>
      <point x="69" y="754" type="line"/>
      <point x="69" y="0" type="line"/>
      <point x="207" y="0" type="line"/>
      <point x="207" y="421" type="line"/>
      <point x="216" y="424"/>
      <point x="225" y="425"/>
      <point x="234" y="425" type="curve" smooth="yes"/>
      <point x="281" y="425"/>
      <point x="298" y="394"/>
      <point x="298" y="307" type="curve" smooth="yes"/>
      <point x="298" y="199" type="line" smooth="yes"/>
      <point x="298" y="58"/>
      <point x="358" y="-10"/>
    </contour>
  </outline>
</glyph>
<glyph name="uni0196" format="2">
  <advance width="363"/>
  <unicode hex="0196"/>
  <anchor x="182" y="0" name="bottom"/>
  <anchor x="182" y="693" name="top"/>
  <outline>
    <contour>
      <point x="248" y="-14" type="curve"/>
      <point x="286" y="-14"/>
      <point x="320" y="-8"/>
      <point x="346" y="4" type="curve"/>
      <point x="327" y="111" type="line"/>
      <point x="313" y="106"/>
      <point x="297" y="103"/>
      <point x="279" y="103" type="curve" smooth="yes"/>
      <point x="238" y="103"/>
      <point x="220" y="128"/>
      <point x="220" y="185" type="curve" smooth="yes"/>
      <point x="220" y="693" type="line"/>
      <point x="78" y="693" type="line"/>
      <point x="78" y="181" type="line"/>
      <point x="78" y="48"/>
      <point x="132" y="-14"/>
    </contour>
  </outline>
</glyph>
<glyph name="Khook" format="2">
  <advance width="559"/>
  <unicode hex="0198"/>
  <anchor x="280" y="0" name="bottom"/>
  <anchor x="280" y="693" name="top"/>
  <outline>
    <contour>
      <point x="78" y="0" type="line"/>
      <point x="220" y="0" type="line"/>
      <point x="220" y="296" type="line"/>
      <point x="283" y="233"/>
      <point x="351" y="110"/>
      <point x="384" y="0" type="curve"/>
      <point x="535" y="0" type="line"/>
      <point x="487" y="134"/>
      <point x="411" y="272"/>
      <point x="340" y="360" type="curve"/>
      <point x="376" y="421"/>
      <point x="400" y="464"/>
      <point x="425" y="517" type="curve" smooth="yes"/>
      <point x="449" y="568"/>
      <point x="460" y="575"/>
      <point x="477" y="575" type="curve"/>
      <point x="492" y="575"/>
      <point x="503" y="570"/>
      <point x="512" y="562" type="curve"/>
      <point x="554" y="666" type="line"/>
      <point x="528" y="690"/>
      <point x="488" y="700"/>
      <point x="455" y="700" type="curve"/>
      <point x="404" y="700"/>
      <point x="369" y="676"/>
      <point x="336" y="609" type="curve" smooth="yes"/>
      <point x="305" y="547"/>
      <point x="269" y="481"/>
      <point x="220" y="395" type="curve"/>
      <point x="220" y="693" type="line"/>
      <point x="78" y="693" type="line"/>
    </contour>
  </outline>
</glyph>
<glyph name="khook" format="2">
  <advance width="458"/>
  <unicode hex="0199"/>
  <anchor x="229" y="0" name="bottom"/>
  <anchor x="229" y="532" name="top"/>
  <outline>
    <contour>
      <point x="69" y="0" type="line"/>
      <point x="207" y="0" type="line"/>
      <point x="207" y="234" type="line"/>
      <point x="250" y="177"/>
      <point x="287" y="84"/>
      <point x="309" y="0" type="curve"/>
      <point x="455" y="0" type="line"/>
      <point x="425" y="104"/>
      <point x="368" y="217"/>
      <point x="315" y="282" type="curve"/>
      <point x="358" y="352"/>
      <point x="413" y="452"/>
      <point x="450" y="532" type="curve"/>
      <point x="304" y="532" type="line"/>
      <point x="281" y="474"/>
      <point x="238" y="376"/>
      <point x="207" y="317" type="curve"/>
      <point x="207" y="592" type="line"/>
      <point x="207" y="651"/>
      <point x="228" y="666"/>
      <point x="259" y="666" type="curve"/>
      <point x="268" y="666"/>
      <point x="282" y="664"/>
      <point x="293" y="660" type="curve"/>
      <point x="311" y="764" type="line"/>
      <point x="283" y="775"/>
      <point x="255" y="776"/>
      <point x="238" y="776" type="curve" smooth="yes"/>
      <point x="139" y="776"/>
      <point x="69" y="733"/>
      <point x="69" y="599" type="curve"/>
    </contour>
  </outline>
</glyph>
<glyph name="uni0199" format="2">
  <advance width="458"/>
  <unicode hex="0199"/>
  <anchor x="229" y="0" name="bottom"/>
  <anchor x="229" y="532" name="top"/>
  <outline>
    <contour>
      <point x="69" y="0" type="line"/>
      <point x="207" y="0" type="line"/>
      <point x="207" y="234" type="line"/>
      <point x="250" y="177"/>
      <point x="287" y="84"/>
      <point x="309" y="0" type="curve"/>
      <point x="455" y="0" type="line"/>
      <point x="425" y="104"/>
      <point x="368" y="217"/>
      <point x="315" y="282" type="curve"/>
      <point x="358" y="352"/>
      <point x="413" y="452"/>
      <point x="450" y="532" type="curve"/>
      <point x="304" y="532" type="line"/>
      <point x="281" y="474"/>
      <point x="238" y="376"/>
      <point x="207" y="317" type="curve"/>
      <point x="207" y="592" type="line"/>
      <point x="207" y="651"/>
      <point x="228" y="666"/>
      <point x="259" y="666" type="curve"/>
      <point x="268" y="666"/>
      <point x="282" y="664"/>
      <point x="293" y="660" type="curve"/>
      <point x="311" y="764" type="line"/>
      <point x="283" y="775"/>
      <point x="255" y="776"/>
      <point x="238" y="776" type="curve" smooth="yes"/>
      <point x="139" y="776"/>
      <point x="69" y="733"/>
      <point x="69" y="599" type="curve"/>
    </contour>
  </outline>
</glyph>
<glyph name="uni019A" format="2">
  <advance width="292"/>
  <unicode hex="019A"/>
  <outline>
    <contour>
      <point x="256" y="-14" type="curve"/>
      <point x="272" y="98" type="line"/>
      <point x="223" y="101"/>
      <point x="207" y="117"/>
      <point x="207" y="160" type="curve" smooth="yes"/>
      <point x="207" y="357" type="line"/>
      <point x="279" y="357" type="line"/>
      <point x="279" y="445" type="line"/>
      <point x="207" y="445" type="line"/>
      <point x="207" y="776" type="line"/>
      <point x="69" y="754" type="line"/>
      <point x="69" y="445" type="line"/>
      <point x="9" y="445" type="line"/>
      <point x="9" y="357" type="line"/>
      <point x="69" y="357" type="line"/>
      <point x="69" y="158" type="line" smooth="yes"/>
      <point x="69" y="44"/>
      <point x="130" y="-10"/>
    </contour>
  </outline>
</glyph>
<glyph name="Mturned" format="2">
  <advance width="794"/>
  <unicode hex="019C"/>
  <unicode hex="026F"/>
  <outline>
    <contour>
      <point x="264" y="-14" type="curve" smooth="yes"/>
      <point x="316" y="-14"/>
      <point x="367" y="-6"/>
      <point x="407" y="18" type="curve"/>
      <point x="436" y="-2"/>
      <point x="473" y="-14"/>
      <point x="521" y="-14" type="curve" smooth="yes"/>
      <point x="572" y="-14"/>
      <point x="653" y="-2"/>
      <point x="716" y="18" type="curve"/>
      <point x="716" y="693" type="line"/>
      <point x="574" y="693" type="line"/>
      <point x="574" y="118" type="line"/>
      <point x="564" y="112"/>
      <point x="548" y="110"/>
      <point x="532" y="110" type="curve" smooth="yes"/>
      <point x="484" y="110"/>
      <point x="463" y="145"/>
      <point x="463" y="210" type="curve" smooth="yes"/>
      <point x="463" y="693" type="line"/>
      <point x="321" y="693" type="line"/>
      <point x="321" y="210" type="line" smooth="yes"/>
      <point x="321" y="181"/>
      <point x="325" y="150"/>
      <point x="334" y="121" type="curve"/>
      <point x="314" y="114"/>
      <point x="294" y="110"/>
      <point x="275" y="110" type="curve" smooth="yes"/>
      <point x="233" y="110"/>
      <point x="210" y="140"/>
      <point x="210" y="210" type="curve" smooth="yes"/>
      <point x="210" y="693" type="line"/>
      <point x="68" y="693" type="line"/>
      <point x="68" y="210" type="line" smooth="yes"/>
      <point x="68" y="65"/>
      <point x="145" y="-14"/>
    </contour>
  </outline>
</glyph>
<glyph name="Nhookleft" format="2">
  <advance width="607"/>
  <unicode hex="019D"/>
  <anchor x="304" y="0" name="bottom"/>
  <anchor x="304" y="693" name="top"/>
  <outline>
    <contour>
      <point x="55" y="-188" type="curve" smooth="yes"/>
      <point x="163" y="-188"/>
      <point x="211" y="-105"/>
      <point x="211" y="-2" type="curve"/>
      <point x="211" y="429" type="line"/>
      <point x="301" y="262"/>
      <point x="375" y="107"/>
      <point x="415" y="0" type="curve"/>
      <point x="529" y="0" type="line"/>
      <point x="529" y="693" type="line"/>
      <point x="396" y="693" type="line"/>
      <point x="396" y="310" type="line"/>
      <point x="339" y="437"/>
      <point x="263" y="575"/>
      <point x="193" y="693" type="curve"/>
      <point x="78" y="693" type="line"/>
      <point x="78" y="-18" type="line"/>
      <point x="78" y="-54"/>
      <point x="68" y="-68"/>
      <point x="38" y="-68" type="curve"/>
      <point x="27" y="-68"/>
      <point x="14" y="-66"/>
      <point x="4" y="-63" type="curve"/>
      <point x="-15" y="-176" type="line"/>
      <point x="7" y="-185"/>
      <point x="31" y="-188"/>
    </contour>
  </outline>
</glyph>
<glyph name="Ocenteredtilde" format="2">
  <advance width="618"/>
  <unicode hex="019F"/>
  <unicode hex="0275"/>
  <anchor x="309" y="683" name="top"/>
  <outline>
    <contour>
      <point x="309" y="-14" type="curve" smooth="yes"/>
      <point x="474" y="-14"/>
      <point x="569" y="117"/>
      <point x="569" y="346" type="curve" smooth="yes"/>
      <point x="569" y="576"/>
      <point x="475" y="707"/>
      <point x="309" y="707" type="curve" smooth="yes"/>
      <point x="144" y="707"/>
      <point x="49" y="576"/>
      <point x="49" y="348" type="curve" smooth="yes"/>
      <point x="49" y="118"/>
      <point x="144" y="-14"/>
    </contour>
    <contour>
      <point x="309" y="110" type="curve" smooth="yes"/>
      <point x="241" y="110"/>
      <point x="207" y="169"/>
      <point x="200" y="298" type="curve"/>
      <point x="418" y="298" type="line"/>
      <point x="412" y="168"/>
      <point x="378" y="110"/>
    </contour>
    <contour>
      <point x="200" y="395" type="line"/>
      <point x="206" y="525"/>
      <point x="240" y="583"/>
      <point x="309" y="583" type="curve" smooth="yes"/>
      <point x="378" y="583"/>
      <point x="412" y="525"/>
      <point x="418" y="395" type="curve"/>
    </contour>
  </outline>
</glyph>
<glyph name="ohorn" format="2">
  <advance width="486"/>
  <unicode hex="01A1"/>
  <anchor x="243" y="0" name="bottom"/>
  <anchor x="243" y="532" name="top"/>
  <outline>
    <contour>
      <point x="243" y="-14" type="curve" smooth="yes"/>
      <point x="370" y="-14"/>
      <point x="443" y="88"/>
      <point x="443" y="266" type="curve" smooth="yes"/>
      <point x="443" y="331"/>
      <point x="433" y="386"/>
      <point x="415" y="429" type="curve"/>
      <point x="460" y="482"/>
      <point x="480" y="546"/>
      <point x="480" y="608" type="curve" smooth="yes"/>
      <point x="480" y="618"/>
      <point x="479" y="628"/>
      <point x="478" y="638" type="curve"/>
      <point x="349" y="638" type="line"/>
      <point x="350" y="622"/>
      <point x="351" y="607"/>
      <point x="351" y="591" type="curve" smooth="yes"/>
      <point x="351" y="564"/>
      <point x="348" y="540"/>
      <point x="343" y="519" type="curve"/>
      <point x="315" y="537"/>
      <point x="281" y="546"/>
      <point x="243" y="546" type="curve" smooth="yes"/>
      <point x="116" y="546"/>
      <point x="43" y="444"/>
      <point x="43" y="266" type="curve" smooth="yes"/>
      <point x="43" y="88"/>
      <point x="116" y="-14"/>
    </contour>
    <contour>
      <point x="243" y="105" type="curve" smooth="yes"/>
      <point x="203" y="105"/>
      <point x="187" y="150"/>
      <point x="187" y="266" type="curve" smooth="yes"/>
      <point x="187" y="382"/>
      <point x="203" y="427"/>
      <point x="243" y="427" type="curve" smooth="yes"/>
      <point x="283" y="427"/>
      <point x="299" y="382"/>
      <point x="299" y="266" type="curve" smooth="yes"/>
      <point x="299" y="149"/>
      <point x="284" y="105"/>
    </contour>
  </outline>
</glyph>
<glyph name="oi" format="2">
  <advance width="732"/>
  <unicode hex="01A3"/>
  <outline>
    <contour>
      <point x="531" y="-185" type="line"/>
      <point x="669" y="-185" type="line"/>
      <point x="669" y="313" type="line" smooth="yes"/>
      <point x="669" y="467"/>
      <point x="602" y="542"/>
      <point x="480" y="542" type="curve"/>
      <point x="432" y="542"/>
      <point x="394" y="528"/>
      <point x="359" y="503" type="curve"/>
      <point x="328" y="531"/>
      <point x="288" y="546"/>
      <point x="240" y="546" type="curve" smooth="yes"/>
      <point x="115" y="546"/>
      <point x="43" y="444"/>
      <point x="43" y="266" type="curve" smooth="yes"/>
      <point x="43" y="88"/>
      <point x="115" y="-14"/>
      <point x="240" y="-14" type="curve" smooth="yes"/>
      <point x="365" y="-14"/>
      <point x="437" y="88"/>
      <point x="437" y="266" type="curve" smooth="yes"/>
      <point x="437" y="323"/>
      <point x="430" y="372"/>
      <point x="416" y="413" type="curve"/>
      <point x="432" y="422"/>
      <point x="447" y="425"/>
      <point x="461" y="425" type="curve" smooth="yes"/>
      <point x="513" y="425"/>
      <point x="531" y="394"/>
      <point x="531" y="307" type="curve" smooth="yes"/>
    </contour>
    <contour>
      <point x="240" y="105" type="curve" smooth="yes"/>
      <point x="203" y="105"/>
      <point x="187" y="150"/>
      <point x="187" y="266" type="curve" smooth="yes"/>
      <point x="187" y="382"/>
      <point x="203" y="427"/>
      <point x="240" y="427" type="curve" smooth="yes"/>
      <point x="277" y="427"/>
      <point x="293" y="382"/>
      <point x="293" y="266" type="curve" smooth="yes"/>
      <point x="293" y="149"/>
      <point x="278" y="105"/>
    </contour>
  </outline>
</glyph>
<glyph name="Yr" format="2">
  <advance width="544"/>
  <unicode hex="01A6"/>
  <unicode hex="0280"/>
  <outline>
    <contour>
      <point x="407" y="-105" type="curve"/>
      <point x="554" y="-105" type="line"/>
      <point x="518" y="34"/>
      <point x="460" y="189"/>
      <point x="392" y="296" type="curve"/>
      <point x="453" y="347"/>
      <point x="483" y="409"/>
      <point x="483" y="483" type="curve" smooth="yes"/>
      <point x="483" y="631"/>
      <point x="394" y="707"/>
      <point x="226" y="707" type="curve"/>
      <point x="219" y="707"/>
      <point x="210" y="707"/>
      <point x="203" y="707" type="curve"/>
      <point x="203" y="780" type="line"/>
      <point x="55" y="780" type="line"/>
      <point x="55" y="4" type="line"/>
      <point x="203" y="4" type="line"/>
      <point x="203" y="259" type="line"/>
      <point x="222" y="259" type="line"/>
      <point x="235" y="259"/>
      <point x="254" y="259"/>
      <point x="260" y="259" type="curve"/>
      <point x="316" y="171"/>
      <point x="372" y="21"/>
    </contour>
    <contour>
      <point x="203" y="373" type="line"/>
      <point x="203" y="581" type="line"/>
      <point x="210" y="584"/>
      <point x="222" y="585"/>
      <point x="232" y="585" type="curve"/>
      <point x="297" y="585"/>
      <point x="330" y="551"/>
      <point x="330" y="483" type="curve"/>
      <point x="330" y="410"/>
      <point x="295" y="373"/>
      <point x="228" y="373" type="curve"/>
    </contour>
  </outline>
</glyph>
<glyph name="uni01A6" format="2">
  <advance width="544"/>
  <unicode hex="01A6"/>
  <outline>
    <contour>
      <point x="407" y="-105" type="curve"/>
      <point x="554" y="-105" type="line"/>
      <point x="518" y="34"/>
      <point x="460" y="189"/>
      <point x="392" y="296" type="curve"/>
      <point x="453" y="347"/>
      <point x="483" y="409"/>
      <point x="483" y="483" type="curve" smooth="yes"/>
      <point x="483" y="631"/>
      <point x="394" y="707"/>
      <point x="226" y="707" type="curve"/>
      <point x="219" y="707"/>
      <point x="210" y="707"/>
      <point x="203" y="707" type="curve"/>
      <point x="203" y="780" type="line"/>
      <point x="55" y="780" type="line"/>
      <point x="55" y="4" type="line"/>
      <point x="203" y="4" type="line"/>
      <point x="203" y="259" type="line"/>
      <point x="222" y="259" type="line"/>
      <point x="235" y="259"/>
      <point x="254" y="259"/>
      <point x="260" y="259" type="curve"/>
      <point x="316" y="171"/>
      <point x="372" y="21"/>
    </contour>
    <contour>
      <point x="203" y="373" type="line"/>
      <point x="203" y="581" type="line"/>
      <point x="210" y="584"/>
      <point x="222" y="585"/>
      <point x="232" y="585" type="curve"/>
      <point x="297" y="585"/>
      <point x="330" y="551"/>
      <point x="330" y="483" type="curve"/>
      <point x="330" y="410"/>
      <point x="295" y="373"/>
      <point x="228" y="373" type="curve"/>
    </contour>
  </outline>
</glyph>
<glyph name="Tonetwo" format="2">
  <advance width="431"/>
  <unicode hex="01A7"/>
  <outline>
    <contour>
      <point x="247" y="-14" type="curve" smooth="yes"/>
      <point x="307" y="-14"/>
      <point x="375" y="6"/>
      <point x="413" y="34" type="curve"/>
      <point x="370" y="151" type="line"/>
      <point x="335" y="123"/>
      <point x="289" y="106"/>
      <point x="253" y="106" type="curve" smooth="yes"/>
      <point x="204" y="106"/>
      <point x="172" y="133"/>
      <point x="172" y="177" type="curve" smooth="yes"/>
      <point x="172" y="229"/>
      <point x="200" y="262"/>
      <point x="283" y="317" type="curve" smooth="yes"/>
      <point x="366" y="372"/>
      <point x="404" y="431"/>
      <point x="404" y="507" type="curve" smooth="yes"/>
      <point x="404" y="618"/>
      <point x="321" y="707"/>
      <point x="196" y="707" type="curve" smooth="yes"/>
      <point x="139" y="707"/>
      <point x="88" y="693"/>
      <point x="42" y="666" type="curve"/>
      <point x="85" y="556" type="line"/>
      <point x="112" y="575"/>
      <point x="150" y="587"/>
      <point x="186" y="587" type="curve" smooth="yes"/>
      <point x="233" y="587"/>
      <point x="259" y="563"/>
      <point x="259" y="521" type="curve" smooth="yes"/>
      <point x="259" y="479"/>
      <point x="239" y="460"/>
      <point x="148" y="399" type="curve" smooth="yes"/>
      <point x="57" y="338"/>
      <point x="27" y="268"/>
      <point x="27" y="201" type="curve"/>
      <point x="27" y="83"/>
      <point x="110" y="-14"/>
    </contour>
  </outline>
</glyph>
<glyph name="uni01A8" format="2">
  <advance width="376"/>
  <unicode hex="01A8"/>
  <outline>
    <contour>
      <point x="211" y="-14" type="curve" smooth="yes"/>
      <point x="266" y="-14"/>
      <point x="316" y="3"/>
      <point x="340" y="17" type="curve"/>
      <point x="314" y="124" type="line"/>
      <point x="286" y="108"/>
      <point x="250" y="98"/>
      <point x="223" y="98" type="curve"/>
      <point x="182" y="98"/>
      <point x="166" y="116"/>
      <point x="166" y="142" type="curve"/>
      <point x="166" y="175"/>
      <point x="185" y="192"/>
      <point x="247" y="231" type="curve" smooth="yes"/>
      <point x="309" y="270"/>
      <point x="335" y="310"/>
      <point x="335" y="379" type="curve" smooth="yes"/>
      <point x="335" y="475"/>
      <point x="265" y="546"/>
      <point x="158" y="546" type="curve" smooth="yes"/>
      <point x="107" y="546"/>
      <point x="64" y="533"/>
      <point x="46" y="524" type="curve"/>
      <point x="68" y="418" type="line"/>
      <point x="98" y="430"/>
      <point x="122" y="434"/>
      <point x="146" y="434" type="curve" smooth="yes"/>
      <point x="182" y="434"/>
      <point x="201" y="420"/>
      <point x="201" y="393" type="curve"/>
      <point x="201" y="361"/>
      <point x="181" y="347"/>
      <point x="122" y="307" type="curve" smooth="yes"/>
      <point x="63" y="267"/>
      <point x="28" y="219"/>
      <point x="28" y="154" type="curve" smooth="yes"/>
      <point x="28" y="52"/>
      <point x="101" y="-14"/>
    </contour>
  </outline>
</glyph>
<glyph name="uni01AA" format="2">
  <advance width="347"/>
  <unicode hex="01AA"/>
  <outline>
    <contour>
      <point x="337" y="-187" type="curve"/>
      <point x="353" y="-75" type="line"/>
      <point x="304" y="-72"/>
      <point x="288" y="-56"/>
      <point x="288" y="-13" type="curve"/>
      <point x="288" y="579" type="line"/>
      <point x="288" y="708"/>
      <point x="238" y="778"/>
      <point x="124" y="778" type="curve" smooth="yes"/>
      <point x="34" y="778"/>
      <point x="-35" y="712"/>
      <point x="-35" y="606" type="curve" smooth="yes"/>
      <point x="-35" y="498"/>
      <point x="26" y="439"/>
      <point x="100" y="439" type="curve" smooth="yes"/>
      <point x="116" y="439"/>
      <point x="135" y="442"/>
      <point x="146" y="448" type="curve"/>
      <point x="146" y="-1" type="line"/>
      <point x="146" y="-125"/>
      <point x="208" y="-183"/>
    </contour>
    <contour>
      <point x="115" y="540" type="curve"/>
      <point x="89" y="540"/>
      <point x="73" y="560"/>
      <point x="73" y="612" type="curve" smooth="yes"/>
      <point x="73" y="661"/>
      <point x="87" y="681"/>
      <point x="114" y="681" type="curve" smooth="yes"/>
      <point x="138" y="681"/>
      <point x="149" y="658"/>
      <point x="149" y="618" type="curve" smooth="yes"/>
      <point x="149" y="553" type="line"/>
      <point x="141" y="544"/>
      <point x="128" y="540"/>
    </contour>
  </outline>
</glyph>
<glyph name="uni01AB" format="2">
  <advance width="363"/>
  <unicode hex="01AB"/>
  <outline>
    <contour>
      <point x="181" y="-188" type="curve" smooth="yes"/>
      <point x="283" y="-188"/>
      <point x="331" y="-126"/>
      <point x="331" y="0" type="curve" smooth="yes"/>
      <point x="331" y="36"/>
      <point x="326" y="86"/>
      <point x="317" y="121" type="curve"/>
      <point x="298" y="110"/>
      <point x="281" y="106"/>
      <point x="257" y="106" type="curve"/>
      <point x="220" y="106"/>
      <point x="201" y="131"/>
      <point x="201" y="192" type="curve" smooth="yes"/>
      <point x="201" y="419" type="line"/>
      <point x="328" y="419" type="line"/>
      <point x="328" y="532" type="line"/>
      <point x="201" y="532" type="line"/>
      <point x="201" y="681" type="line"/>
      <point x="63" y="659" type="line"/>
      <point x="63" y="194" type="line"/>
      <point x="63" y="50"/>
      <point x="125" y="-13"/>
      <point x="216" y="-13" type="curve"/>
      <point x="216" y="-13"/>
      <point x="217" y="-13"/>
      <point x="217" y="-13" type="curve"/>
      <point x="217" y="-14"/>
      <point x="217" y="-14"/>
      <point x="217" y="-15" type="curve"/>
      <point x="217" y="-65"/>
      <point x="202" y="-84"/>
      <point x="164" y="-84" type="curve" smooth="yes"/>
      <point x="151" y="-84"/>
      <point x="132" y="-83"/>
      <point x="118" y="-77" type="curve"/>
      <point x="105" y="-176" type="line"/>
      <point x="131" y="-185"/>
      <point x="166" y="-188"/>
    </contour>
  </outline>
</glyph>
<glyph name="Thook" format="2">
  <advance width="526"/>
  <unicode hex="01AC"/>
  <anchor x="263" y="0" name="bottom"/>
  <anchor x="263" y="693" name="top"/>
  <outline>
    <contour>
      <point x="223" y="0" type="line"/>
      <point x="365" y="0" type="line"/>
      <point x="365" y="574" type="line"/>
      <point x="510" y="574" type="line"/>
      <point x="510" y="693" type="line"/>
      <point x="244" y="693" type="line" smooth="yes"/>
      <point x="100" y="693"/>
      <point x="5" y="631"/>
      <point x="5" y="529" type="curve" smooth="yes"/>
      <point x="5" y="506"/>
      <point x="8" y="482"/>
      <point x="12" y="461" type="curve"/>
      <point x="120" y="475" type="line"/>
      <point x="117" y="489"/>
      <point x="115" y="501"/>
      <point x="115" y="513" type="curve" smooth="yes"/>
      <point x="115" y="553"/>
      <point x="143" y="574"/>
      <point x="195" y="574" type="curve" smooth="yes"/>
      <point x="223" y="574" type="line"/>
    </contour>
  </outline>
</glyph>
<glyph name="thook" format="2">
  <advance width="363"/>
  <unicode hex="01AD"/>
  <anchor x="182" y="0" name="bottom"/>
  <anchor x="182" y="532" name="top"/>
  <outline>
    <contour>
      <point x="230" y="-14" type="curve" smooth="yes"/>
      <point x="268" y="-14"/>
      <point x="315" y="-2"/>
      <point x="338" y="15" type="curve"/>
      <point x="317" y="121" type="line"/>
      <point x="298" y="110"/>
      <point x="281" y="106"/>
      <point x="257" y="106" type="curve"/>
      <point x="220" y="106"/>
      <point x="201" y="131"/>
      <point x="201" y="192" type="curve" smooth="yes"/>
      <point x="201" y="419" type="line"/>
      <point x="328" y="419" type="line"/>
      <point x="328" y="532" type="line"/>
      <point x="201" y="532" type="line"/>
      <point x="201" y="588" type="line" smooth="yes"/>
      <point x="201" y="639"/>
      <point x="220" y="659"/>
      <point x="265" y="659" type="curve"/>
      <point x="283" y="659"/>
      <point x="305" y="654"/>
      <point x="319" y="647" type="curve"/>
      <point x="345" y="758" type="line"/>
      <point x="323" y="768"/>
      <point x="284" y="776"/>
      <point x="244" y="776" type="curve"/>
      <point x="125" y="776"/>
      <point x="63" y="711"/>
      <point x="63" y="578" type="curve" smooth="yes"/>
      <point x="63" y="200" type="line" smooth="yes"/>
      <point x="63" y="59"/>
      <point x="112" y="-14"/>
    </contour>
  </outline>
</glyph>
<glyph name="Tretroflexhook" format="2">
  <advance width="464"/>
  <unicode hex="01AE"/>
  <unicode hex="0288"/>
  <anchor x="232" y="0" name="bottom"/>
  <anchor x="232" y="693" name="top"/>
  <outline>
    <contour>
      <point x="326" y="-188" type="curve" smooth="yes"/>
      <point x="350" y="-188"/>
      <point x="374" y="-185"/>
      <point x="396" y="-176" type="curve"/>
      <point x="377" y="-63" type="line"/>
      <point x="367" y="-66"/>
      <point x="354" y="-68"/>
      <point x="343" y="-68" type="curve"/>
      <point x="313" y="-68"/>
      <point x="303" y="-54"/>
      <point x="303" y="-18" type="curve"/>
      <point x="303" y="574" type="line"/>
      <point x="448" y="574" type="line"/>
      <point x="448" y="693" type="line"/>
      <point x="16" y="693" type="line"/>
      <point x="16" y="574" type="line"/>
      <point x="161" y="574" type="line"/>
      <point x="161" y="-2" type="line"/>
      <point x="161" y="-105"/>
      <point x="212" y="-188"/>
    </contour>
  </outline>
</glyph>
<glyph name="uni01B4" format="2">
  <advance width="498"/>
  <unicode hex="01B4"/>
  <anchor x="252" y="0" name="bottom"/>
  <anchor x="252" y="527" name="top"/>
  <outline>
    <contour>
      <point x="85" y="-188" type="curve" smooth="yes"/>
      <point x="191" y="-188"/>
      <point x="243" y="-149"/>
      <point x="289" y="0" type="curve" smooth="yes"/>
      <point x="333" y="143"/>
      <point x="361" y="270"/>
      <point x="385" y="381" type="curve" smooth="yes"/>
      <point x="394" y="423"/>
      <point x="406" y="435"/>
      <point x="430" y="435" type="curve" smooth="yes"/>
      <point x="444" y="435"/>
      <point x="456" y="432"/>
      <point x="470" y="423" type="curve"/>
      <point x="503" y="518" type="line"/>
      <point x="476" y="534"/>
      <point x="431" y="542"/>
      <point x="399" y="542" type="curve"/>
      <point x="335" y="542"/>
      <point x="290" y="512"/>
      <point x="275" y="430" type="curve" smooth="yes"/>
      <point x="260" y="347"/>
      <point x="246" y="270"/>
      <point x="222" y="163" type="curve"/>
      <point x="194" y="286"/>
      <point x="169" y="430"/>
      <point x="158" y="532" type="curve"/>
      <point x="13" y="532" type="line"/>
      <point x="46" y="368"/>
      <point x="92" y="195"/>
      <point x="153" y="3" type="curve"/>
      <point x="138" y="-53"/>
      <point x="110" y="-71"/>
      <point x="80" y="-71" type="curve" smooth="yes"/>
      <point x="62" y="-71"/>
      <point x="41" y="-68"/>
      <point x="25" y="-60" type="curve"/>
      <point x="3" y="-169" type="line"/>
      <point x="16" y="-179"/>
      <point x="47" y="-188"/>
    </contour>
  </outline>
</glyph>
<glyph name="uni01B5" format="2">
  <advance width="458"/>
  <unicode hex="01B5"/>
  <outline>
    <contour>
      <point x="30" y="0" type="line"/>
      <point x="428" y="0" type="line"/>
      <point x="428" y="119" type="line"/>
      <point x="187" y="119" type="line"/>
      <point x="211" y="176"/>
      <point x="241" y="240"/>
      <point x="274" y="306" type="curve"/>
      <point x="429" y="306" type="line"/>
      <point x="429" y="405" type="line"/>
      <point x="326" y="405" type="line"/>
      <point x="356" y="462"/>
      <point x="388" y="518"/>
      <point x="421" y="572" type="curve"/>
      <point x="421" y="693" type="line"/>
      <point x="45" y="693" type="line"/>
      <point x="45" y="574" type="line"/>
      <point x="278" y="574" type="line"/>
      <point x="246" y="520"/>
      <point x="215" y="464"/>
      <point x="184" y="405" type="curve"/>
      <point x="56" y="405" type="line"/>
      <point x="56" y="306" type="line"/>
      <point x="133" y="306" type="line"/>
      <point x="97" y="234"/>
      <point x="62" y="160"/>
      <point x="30" y="87" type="curve"/>
    </contour>
  </outline>
</glyph>
<glyph name="uni01B6" format="2">
  <advance width="369"/>
  <unicode hex="01B6"/>
  <outline>
    <contour>
      <point x="32" y="0" type="line"/>
      <point x="344" y="0" type="line"/>
      <point x="344" y="113" type="line"/>
      <point x="173" y="113" type="line"/>
      <point x="190" y="152"/>
      <point x="209" y="192"/>
      <point x="228" y="231" type="curve"/>
      <point x="334" y="231" type="line"/>
      <point x="334" y="313" type="line"/>
      <point x="269" y="313" type="line"/>
      <point x="294" y="361"/>
      <point x="317" y="403"/>
      <point x="336" y="434" type="curve"/>
      <point x="336" y="532" type="line"/>
      <point x="44" y="532" type="line"/>
      <point x="44" y="419" type="line"/>
      <point x="194" y="419" type="line"/>
      <point x="175" y="386"/>
      <point x="156" y="350"/>
      <point x="137" y="313" type="curve"/>
      <point x="50" y="313" type="line"/>
      <point x="50" y="231" type="line"/>
      <point x="97" y="231" type="line"/>
      <point x="71" y="178"/>
      <point x="48" y="127"/>
      <point x="32" y="85" type="curve"/>
    </contour>
  </outline>
</glyph>
<glyph name="zstroke" format="2">
  <advance width="369"/>
  <unicode hex="01B6"/>
  <outline>
    <contour>
      <point x="32" y="0" type="line"/>
      <point x="344" y="0" type="line"/>
      <point x="344" y="113" type="line"/>
      <point x="173" y="113" type="line"/>
      <point x="190" y="152"/>
      <point x="209" y="192"/>
      <point x="228" y="231" type="curve"/>
      <point x="334" y="231" type="line"/>
      <point x="334" y="313" type="line"/>
      <point x="269" y="313" type="line"/>
      <point x="294" y="361"/>
      <point x="317" y="403"/>
      <point x="336" y="434" type="curve"/>
      <point x="336" y="532" type="line"/>
      <point x="44" y="532" type="line"/>
      <point x="44" y="419" type="line"/>
      <point x="194" y="419" type="line"/>
      <point x="175" y="386"/>
      <point x="156" y="350"/>
      <point x="137" y="313" type="curve"/>
      <point x="50" y="313" type="line"/>
      <point x="50" y="231" type="line"/>
      <point x="97" y="231" type="line"/>
      <point x="71" y="178"/>
      <point x="48" y="127"/>
      <point x="32" y="85" type="curve"/>
    </contour>
  </outline>
</glyph>
<glyph name="Ezh" format="2">
  <advance width="465"/>
  <unicode hex="01B7"/>
  <anchor x="233" y="0" name="bottom"/>
  <anchor x="220" y="683" name="top"/>
  <outline>
    <contour>
      <point x="174" y="-14" type="curve"/>
      <point x="341" y="-14"/>
      <point x="423" y="82"/>
      <point x="423" y="210" type="curve"/>
      <point x="423" y="299"/>
      <point x="374" y="376"/>
      <point x="276" y="407" type="curve"/>
      <point x="327" y="480"/>
      <point x="376" y="559"/>
      <point x="403" y="612" type="curve"/>
      <point x="403" y="693" type="line"/>
      <point x="46" y="693" type="line"/>
      <point x="46" y="574" type="line"/>
      <point x="244" y="574" type="line"/>
      <point x="216" y="522"/>
      <point x="164" y="442"/>
      <point x="127" y="390" type="curve"/>
      <point x="127" y="312" type="line"/>
      <point x="169" y="312" type="line" smooth="yes"/>
      <point x="247" y="312"/>
      <point x="278" y="280"/>
      <point x="278" y="210" type="curve"/>
      <point x="278" y="145"/>
      <point x="241" y="106"/>
      <point x="172" y="106" type="curve"/>
      <point x="124" y="106"/>
      <point x="89" y="113"/>
      <point x="42" y="137" type="curve"/>
      <point x="16" y="26" type="line"/>
      <point x="63" y="-2"/>
      <point x="111" y="-14"/>
    </contour>
  </outline>
</glyph>
<glyph name="uni01B8" format="2">
  <advance width="465"/>
  <unicode hex="01B8"/>
  <anchor x="232" y="0" name="bottom"/>
  <anchor x="232" y="693" name="top"/>
  <outline>
    <contour>
      <point x="291" y="-14" type="curve"/>
      <point x="354" y="-14"/>
      <point x="402" y="-2"/>
      <point x="449" y="26" type="curve"/>
      <point x="423" y="137" type="line"/>
      <point x="376" y="113"/>
      <point x="341" y="106"/>
      <point x="293" y="106" type="curve"/>
      <point x="224" y="106"/>
      <point x="187" y="145"/>
      <point x="187" y="210" type="curve"/>
      <point x="187" y="280"/>
      <point x="218" y="312"/>
      <point x="296" y="312" type="curve" smooth="yes"/>
      <point x="338" y="312" type="line"/>
      <point x="338" y="390" type="line"/>
      <point x="301" y="442"/>
      <point x="249" y="522"/>
      <point x="221" y="574" type="curve"/>
      <point x="419" y="574" type="line"/>
      <point x="419" y="693" type="line"/>
      <point x="62" y="693" type="line"/>
      <point x="62" y="612" type="line"/>
      <point x="89" y="559"/>
      <point x="138" y="480"/>
      <point x="189" y="407" type="curve"/>
      <point x="91" y="376"/>
      <point x="42" y="299"/>
      <point x="42" y="210" type="curve"/>
      <point x="42" y="82"/>
      <point x="124" y="-14"/>
    </contour>
  </outline>
</glyph>
<glyph name="uni01B9" format="2">
  <advance width="377"/>
  <unicode hex="01B9"/>
  <anchor x="189" y="0" name="bottom"/>
  <anchor x="189" y="532" name="top"/>
  <outline>
    <contour>
      <point x="235" y="-185" type="curve" smooth="yes"/>
      <point x="286" y="-185"/>
      <point x="336" y="-175"/>
      <point x="375" y="-156" type="curve"/>
      <point x="349" y="-45" type="line"/>
      <point x="326" y="-58"/>
      <point x="295" y="-66"/>
      <point x="266" y="-66" type="curve" smooth="yes"/>
      <point x="214" y="-66"/>
      <point x="174" y="-41"/>
      <point x="174" y="40" type="curve"/>
      <point x="174" y="117"/>
      <point x="211" y="144"/>
      <point x="286" y="144" type="curve" smooth="yes"/>
      <point x="304" y="144" type="line"/>
      <point x="304" y="217" type="line"/>
      <point x="267" y="285"/>
      <point x="233" y="347"/>
      <point x="198" y="419" type="curve"/>
      <point x="355" y="419" type="line"/>
      <point x="355" y="532" type="line"/>
      <point x="54" y="532" type="line"/>
      <point x="54" y="434" type="line"/>
      <point x="81" y="378"/>
      <point x="119" y="304"/>
      <point x="156" y="237" type="curve"/>
      <point x="77" y="209"/>
      <point x="35" y="134"/>
      <point x="35" y="42" type="curve"/>
      <point x="35" y="-96"/>
      <point x="127" y="-185"/>
    </contour>
  </outline>
</glyph>
<glyph name="uni01BB" format="2">
  <advance width="436"/>
  <unicode hex="01BB"/>
  <anchor x="218" y="0" name="bottom"/>
  <anchor x="218" y="776" name="top"/>
  <outline>
    <contour>
      <point x="35" y="0" type="curve"/>
      <point x="412" y="0" type="line"/>
      <point x="412" y="114" type="line"/>
      <point x="190" y="114" type="line"/>
      <point x="200" y="176"/>
      <point x="223" y="213"/>
      <point x="279" y="293" type="curve"/>
      <point x="405" y="293" type="line"/>
      <point x="405" y="401" type="line"/>
      <point x="353" y="401" type="line"/>
      <point x="380" y="446"/>
      <point x="397" y="488"/>
      <point x="397" y="537" type="curve"/>
      <point x="397" y="638"/>
      <point x="328" y="707"/>
      <point x="217" y="707" type="curve"/>
      <point x="140" y="707"/>
      <point x="71" y="686"/>
      <point x="22" y="645" type="curve"/>
      <point x="84" y="550" type="line"/>
      <point x="114" y="576"/>
      <point x="147" y="588"/>
      <point x="186" y="588" type="curve" smooth="yes"/>
      <point x="225" y="588"/>
      <point x="253" y="571"/>
      <point x="253" y="520" type="curve" smooth="yes"/>
      <point x="253" y="482"/>
      <point x="234" y="446"/>
      <point x="203" y="401" type="curve"/>
      <point x="54" y="401" type="line"/>
      <point x="54" y="293" type="line"/>
      <point x="127" y="293" type="line"/>
      <point x="77" y="217"/>
      <point x="35" y="129"/>
      <point x="35" y="19" type="curve"/>
      <point x="35" y="13"/>
      <point x="35" y="6"/>
    </contour>
  </outline>
</glyph>
<glyph name="uni01BC" format="2">
  <advance width="433"/>
  <unicode hex="01BC"/>
  <anchor x="217" y="0" name="bottom"/>
  <anchor x="217" y="693" name="top"/>
  <outline>
    <contour>
      <point x="174" y="-14" type="curve" smooth="yes"/>
      <point x="312" y="-14"/>
      <point x="408" y="69"/>
      <point x="408" y="214" type="curve" smooth="yes"/>
      <point x="408" y="339"/>
      <point x="336" y="413"/>
      <point x="211" y="434" type="curve"/>
      <point x="213" y="469"/>
      <point x="215" y="490"/>
      <point x="220" y="575" type="curve"/>
      <point x="389" y="575" type="line"/>
      <point x="389" y="693" type="line"/>
      <point x="16" y="693" type="line"/>
      <point x="16" y="574" type="line"/>
      <point x="85" y="574" type="line"/>
      <point x="81" y="494"/>
      <point x="75" y="428"/>
      <point x="67" y="336" type="curve"/>
      <point x="206" y="332"/>
      <point x="263" y="296"/>
      <point x="263" y="211" type="curve" smooth="yes"/>
      <point x="263" y="149"/>
      <point x="224" y="110"/>
      <point x="161" y="110" type="curve"/>
      <point x="127" y="110"/>
      <point x="89" y="121"/>
      <point x="59" y="140" type="curve"/>
      <point x="27" y="19" type="line"/>
      <point x="70" y="-2"/>
      <point x="123" y="-14"/>
    </contour>
  </outline>
</glyph>
<glyph name="glottalinvertedstroke" format="2">
  <advance width="376"/>
  <unicode hex="01BE"/>
  <anchor x="188" y="0" name="bottom"/>
  <anchor x="188" y="532" name="top"/>
  <outline>
    <contour>
      <point x="165" y="-14" type="curve" smooth="yes"/>
      <point x="275" y="-14"/>
      <point x="348" y="52"/>
      <point x="348" y="154" type="curve" smooth="yes"/>
      <point x="348" y="219"/>
      <point x="313" y="267"/>
      <point x="254" y="307" type="curve" smooth="yes"/>
      <point x="195" y="347"/>
      <point x="179" y="361"/>
      <point x="179" y="393" type="curve"/>
      <point x="179" y="419" type="line"/>
      <point x="306" y="419" type="line"/>
      <point x="306" y="532" type="line"/>
      <point x="179" y="532" type="line"/>
      <point x="179" y="681" type="line"/>
      <point x="41" y="659" type="line"/>
      <point x="41" y="379" type="line"/>
      <point x="41" y="310"/>
      <point x="67" y="270"/>
      <point x="129" y="231" type="curve" smooth="yes"/>
      <point x="191" y="192"/>
      <point x="210" y="175"/>
      <point x="210" y="142" type="curve"/>
      <point x="210" y="116"/>
      <point x="194" y="98"/>
      <point x="153" y="98" type="curve"/>
      <point x="126" y="98"/>
      <point x="90" y="108"/>
      <point x="62" y="124" type="curve"/>
      <point x="36" y="17" type="line"/>
      <point x="60" y="3"/>
      <point x="110" y="-14"/>
    </contour>
  </outline>
</glyph>
<glyph name="wynn" format="2">
  <advance width="493"/>
  <unicode hex="01BF"/>
  <outline>
    <contour>
      <point x="69" y="-185" type="line"/>
      <point x="207" y="-185" type="line"/>
      <point x="207" y="-52" type="line"/>
      <point x="344" y="1"/>
      <point x="450" y="131"/>
      <point x="450" y="301" type="curve" smooth="yes"/>
      <point x="450" y="459"/>
      <point x="359" y="542"/>
      <point x="233" y="542" type="curve" smooth="yes"/>
      <point x="174" y="542"/>
      <point x="114" y="525"/>
      <point x="69" y="504" type="curve"/>
    </contour>
    <contour>
      <point x="207" y="86" type="curve"/>
      <point x="207" y="419" type="line"/>
      <point x="215" y="422"/>
      <point x="221" y="423"/>
      <point x="233" y="423" type="curve" smooth="yes"/>
      <point x="277" y="423"/>
      <point x="306" y="384"/>
      <point x="306" y="303" type="curve" smooth="yes"/>
      <point x="306" y="197"/>
      <point x="265" y="120"/>
    </contour>
  </outline>
</glyph>
<glyph name="clickalveolar" format="2">
  <advance width="445"/>
  <unicode hex="01C2"/>
  <outline>
    <contour>
      <point x="160" y="-185" type="line"/>
      <point x="286" y="-185" type="line"/>
      <point x="286" y="162" type="line"/>
      <point x="419" y="162" type="line"/>
      <point x="419" y="260" type="line"/>
      <point x="286" y="260" type="line"/>
      <point x="286" y="348" type="line"/>
      <point x="419" y="348" type="line"/>
      <point x="419" y="446" type="line"/>
      <point x="286" y="446" type="line"/>
      <point x="286" y="783" type="line"/>
      <point x="160" y="783" type="line"/>
      <point x="160" y="446" type="line"/>
      <point x="26" y="446" type="line"/>
      <point x="26" y="348" type="line"/>
      <point x="160" y="348" type="line"/>
      <point x="160" y="260" type="line"/>
      <point x="26" y="260" type="line"/>
      <point x="26" y="162" type="line"/>
      <point x="160" y="162" type="line"/>
    </contour>
  </outline>
</glyph>
<glyph name="uni01C2" format="2">
  <advance width="445"/>
  <unicode hex="01C2"/>
  <outline>
    <contour>
      <point x="160" y="-185" type="line"/>
      <point x="286" y="-185" type="line"/>
      <point x="286" y="162" type="line"/>
      <point x="419" y="162" type="line"/>
      <point x="419" y="260" type="line"/>
      <point x="286" y="260" type="line"/>
      <point x="286" y="348" type="line"/>
      <point x="419" y="348" type="line"/>
      <point x="419" y="446" type="line"/>
      <point x="286" y="446" type="line"/>
      <point x="286" y="783" type="line"/>
      <point x="160" y="783" type="line"/>
      <point x="160" y="446" type="line"/>
      <point x="26" y="446" type="line"/>
      <point x="26" y="348" type="line"/>
      <point x="160" y="348" type="line"/>
      <point x="160" y="260" type="line"/>
      <point x="26" y="260" type="line"/>
      <point x="26" y="162" type="line"/>
      <point x="160" y="162" type="line"/>
    </contour>
  </outline>
</glyph>
<glyph name="uni01DD" format="2">
  <advance width="462"/>
  <unicode hex="01DD"/>
  <outline>
    <contour>
      <point x="224" y="-14" type="curve" smooth="yes"/>
      <point x="343" y="-14"/>
      <point x="419" y="92"/>
      <point x="419" y="273" type="curve" smooth="yes"/>
      <point x="419" y="447"/>
      <point x="338" y="546"/>
      <point x="197" y="546" type="curve" smooth="yes"/>
      <point x="147" y="546"/>
      <point x="103" y="539"/>
      <point x="65" y="521" type="curve"/>
      <point x="81" y="413" type="line"/>
      <point x="103" y="423"/>
      <point x="137" y="426"/>
      <point x="172" y="426" type="curve" smooth="yes"/>
      <point x="240" y="426"/>
      <point x="276" y="387"/>
      <point x="277" y="317" type="curve"/>
      <point x="45" y="317" type="line"/>
      <point x="44" y="299"/>
      <point x="43" y="281"/>
      <point x="43" y="260" type="curve"/>
      <point x="43" y="93"/>
      <point x="105" y="-14"/>
    </contour>
    <contour>
      <point x="228" y="97" type="curve"/>
      <point x="194" y="97"/>
      <point x="177" y="130"/>
      <point x="175" y="220" type="curve"/>
      <point x="278" y="220" type="line"/>
      <point x="276" y="132"/>
      <point x="262" y="97"/>
    </contour>
  </outline>
</glyph>
<glyph name="uni01E5" format="2">
  <advance width="500"/>
  <unicode hex="01E5"/>
  <outline>
    <contour>
      <point x="227" y="-188" type="curve" smooth="yes"/>
      <point x="367" y="-188"/>
      <point x="428" y="-93"/>
      <point x="428" y="48" type="curve" smooth="yes"/>
      <point x="428" y="237" type="line"/>
      <point x="479" y="237" type="line"/>
      <point x="479" y="325" type="line"/>
      <point x="428" y="325" type="line"/>
      <point x="428" y="521" type="line"/>
      <point x="369" y="535"/>
      <point x="316" y="542"/>
      <point x="258" y="542" type="curve"/>
      <point x="118" y="542"/>
      <point x="43" y="453"/>
      <point x="43" y="288" type="curve" smooth="yes"/>
      <point x="43" y="108"/>
      <point x="103" y="20"/>
      <point x="227" y="20" type="curve"/>
      <point x="249" y="20"/>
      <point x="271" y="23"/>
      <point x="290" y="32" type="curve"/>
      <point x="290" y="15" type="line"/>
      <point x="290" y="-38"/>
      <point x="258" y="-71"/>
      <point x="205" y="-72" type="curve"/>
      <point x="170" y="-72"/>
      <point x="135" y="-64"/>
      <point x="101" y="-48" type="curve"/>
      <point x="76" y="-163" type="line"/>
      <point x="116" y="-180"/>
      <point x="165" y="-188"/>
    </contour>
    <contour>
      <point x="255" y="137" type="curve"/>
      <point x="206" y="137"/>
      <point x="187" y="168"/>
      <point x="187" y="288" type="curve" smooth="yes"/>
      <point x="187" y="397"/>
      <point x="215" y="425"/>
      <point x="256" y="425" type="curve"/>
      <point x="271" y="425"/>
      <point x="280" y="424"/>
      <point x="290" y="421" type="curve"/>
      <point x="290" y="325" type="line"/>
      <point x="237" y="325" type="line"/>
      <point x="237" y="237" type="line"/>
      <point x="290" y="237" type="line"/>
      <point x="290" y="144" type="line"/>
      <point x="282" y="139"/>
      <point x="271" y="137"/>
    </contour>
  </outline>
</glyph>
<glyph name="uni01EA" format="2">
  <advance width="618"/>
  <unicode hex="01EA"/>
  <anchor x="309" y="683" name="top"/>
  <outline>
    <contour>
      <point x="355" y="-208" type="curve" smooth="yes"/>
      <point x="384" y="-208"/>
      <point x="417" y="-204"/>
      <point x="444" y="-193" type="curve"/>
      <point x="435" y="-100" type="line"/>
      <point x="416" y="-107"/>
      <point x="403" y="-108"/>
      <point x="391" y="-108" type="curve" smooth="yes"/>
      <point x="367" y="-108"/>
      <point x="355" y="-94"/>
      <point x="355" y="-73" type="curve"/>
      <point x="355" y="-55"/>
      <point x="362" y="-40"/>
      <point x="387" y="-20" type="curve" smooth="yes"/>
      <point x="412" y="0"/>
      <point x="441" y="21"/>
      <point x="465" y="41" type="curve" smooth="yes"/>
      <point x="533" y="97"/>
      <point x="569" y="204"/>
      <point x="569" y="346" type="curve" smooth="yes"/>
      <point x="569" y="576"/>
      <point x="475" y="707"/>
      <point x="309" y="707" type="curve" smooth="yes"/>
      <point x="144" y="707"/>
      <point x="49" y="576"/>
      <point x="49" y="348" type="curve" smooth="yes"/>
      <point x="49" y="127"/>
      <point x="137" y="-4"/>
      <point x="291" y="-13" type="curve" smooth="yes"/>
      <point x="291" y="-13"/>
      <point x="291" y="-13"/>
      <point x="291" y="-13" type="curve"/>
      <point x="256" y="-45"/>
      <point x="239" y="-80"/>
      <point x="239" y="-113" type="curve" smooth="yes"/>
      <point x="239" y="-172"/>
      <point x="285" y="-208"/>
    </contour>
    <contour>
      <point x="309" y="110" type="curve" smooth="yes"/>
      <point x="233" y="110"/>
      <point x="199" y="184"/>
      <point x="199" y="348" type="curve" smooth="yes"/>
      <point x="199" y="511"/>
      <point x="232" y="583"/>
      <point x="309" y="583" type="curve" smooth="yes"/>
      <point x="386" y="583"/>
      <point x="419" y="511"/>
      <point x="419" y="346" type="curve" smooth="yes"/>
      <point x="419" y="182"/>
      <point x="386" y="110"/>
    </contour>
  </outline>
</glyph>
<glyph name="oogonek" format="2">
  <advance width="486"/>
  <unicode hex="01EB"/>
  <anchor x="243" y="532" name="top"/>
  <outline>
    <contour>
      <point x="282" y="-208" type="curve" smooth="yes"/>
      <point x="311" y="-208"/>
      <point x="344" y="-204"/>
      <point x="371" y="-193" type="curve"/>
      <point x="362" y="-100" type="line"/>
      <point x="343" y="-107"/>
      <point x="330" y="-108"/>
      <point x="318" y="-108" type="curve" smooth="yes"/>
      <point x="294" y="-108"/>
      <point x="282" y="-97"/>
      <point x="282" y="-75" type="curve"/>
      <point x="282" y="-56"/>
      <point x="291" y="-41"/>
      <point x="306" y="-24" type="curve" smooth="yes"/>
      <point x="320" y="-8"/>
      <point x="337" y="8"/>
      <point x="361" y="28" type="curve" smooth="yes"/>
      <point x="420" y="79"/>
      <point x="443" y="160"/>
      <point x="443" y="266" type="curve" smooth="yes"/>
      <point x="443" y="444"/>
      <point x="370" y="546"/>
      <point x="243" y="546" type="curve" smooth="yes"/>
      <point x="116" y="546"/>
      <point x="43" y="444"/>
      <point x="43" y="266" type="curve" smooth="yes"/>
      <point x="43" y="103"/>
      <point x="103" y="4"/>
      <point x="213" y="-12" type="curve" smooth="yes"/>
      <point x="213" y="-12"/>
      <point x="213" y="-12"/>
      <point x="213" y="-12" type="curve"/>
      <point x="182" y="-42"/>
      <point x="166" y="-75"/>
      <point x="166" y="-113" type="curve" smooth="yes"/>
      <point x="166" y="-172"/>
      <point x="212" y="-208"/>
    </contour>
    <contour>
      <point x="243" y="105" type="curve" smooth="yes"/>
      <point x="203" y="105"/>
      <point x="187" y="150"/>
      <point x="187" y="266" type="curve" smooth="yes"/>
      <point x="187" y="382"/>
      <point x="203" y="427"/>
      <point x="243" y="427" type="curve" smooth="yes"/>
      <point x="283" y="427"/>
      <point x="299" y="382"/>
      <point x="299" y="266" type="curve" smooth="yes"/>
      <point x="299" y="149"/>
      <point x="284" y="105"/>
    </contour>
  </outline>
</glyph>
<glyph name="uni01EB" format="2">
  <advance width="486"/>
  <unicode hex="01EB"/>
  <anchor x="243" y="532" name="top"/>
  <outline>
    <contour>
      <point x="282" y="-208" type="curve" smooth="yes"/>
      <point x="311" y="-208"/>
      <point x="344" y="-204"/>
      <point x="371" y="-193" type="curve"/>
      <point x="362" y="-100" type="line"/>
      <point x="343" y="-107"/>
      <point x="330" y="-108"/>
      <point x="318" y="-108" type="curve" smooth="yes"/>
      <point x="294" y="-108"/>
      <point x="282" y="-97"/>
      <point x="282" y="-75" type="curve"/>
      <point x="282" y="-56"/>
      <point x="291" y="-41"/>
      <point x="306" y="-24" type="curve" smooth="yes"/>
      <point x="320" y="-8"/>
      <point x="337" y="8"/>
      <point x="361" y="28" type="curve" smooth="yes"/>
      <point x="420" y="79"/>
      <point x="443" y="160"/>
      <point x="443" y="266" type="curve" smooth="yes"/>
      <point x="443" y="444"/>
      <point x="370" y="546"/>
      <point x="243" y="546" type="curve" smooth="yes"/>
      <point x="116" y="546"/>
      <point x="43" y="444"/>
      <point x="43" y="266" type="curve" smooth="yes"/>
      <point x="43" y="103"/>
      <point x="103" y="4"/>
      <point x="213" y="-12" type="curve" smooth="yes"/>
      <point x="213" y="-12"/>
      <point x="213" y="-12"/>
      <point x="213" y="-12" type="curve"/>
      <point x="182" y="-42"/>
      <point x="166" y="-75"/>
      <point x="166" y="-113" type="curve" smooth="yes"/>
      <point x="166" y="-172"/>
      <point x="212" y="-208"/>
    </contour>
    <contour>
      <point x="243" y="105" type="curve" smooth="yes"/>
      <point x="203" y="105"/>
      <point x="187" y="150"/>
      <point x="187" y="266" type="curve" smooth="yes"/>
      <point x="187" y="382"/>
      <point x="203" y="427"/>
      <point x="243" y="427" type="curve" smooth="yes"/>
      <point x="283" y="427"/>
      <point x="299" y="382"/>
      <point x="299" y="266" type="curve" smooth="yes"/>
      <point x="299" y="149"/>
      <point x="284" y="105"/>
    </contour>
  </outline>
</glyph>
<glyph name="Aringacute" format="2">
  <advance width="518"/>
  <unicode hex="01FA"/>
  <outline>
    <contour>
      <point x="8" y="0" type="curve"/>
      <point x="151" y="0" type="line"/>
      <point x="157" y="44"/>
      <point x="165" y="93"/>
      <point x="175" y="146" type="curve"/>
      <point x="339" y="146" type="line"/>
      <point x="348" y="92"/>
      <point x="356" y="42"/>
      <point x="362" y="0" type="curve"/>
      <point x="510" y="0" type="line"/>
      <point x="467" y="215"/>
      <point x="406" y="445"/>
      <point x="335" y="677" type="curve"/>
      <point x="349" y="693"/>
      <point x="357" y="715"/>
      <point x="357" y="740" type="curve" smooth="yes"/>
      <point x="357" y="795"/>
      <point x="314" y="837"/>
      <point x="257" y="837" type="curve" smooth="yes"/>
      <point x="202" y="837"/>
      <point x="160" y="795"/>
      <point x="160" y="740" type="curve" smooth="yes"/>
      <point x="160" y="715"/>
      <point x="168" y="693"/>
      <point x="183" y="676" type="curve"/>
      <point x="112" y="445"/>
      <point x="51" y="215"/>
    </contour>
    <contour>
      <point x="197" y="261" type="line"/>
      <point x="215" y="354"/>
      <point x="237" y="451"/>
      <point x="258" y="539" type="curve"/>
      <point x="279" y="448"/>
      <point x="299" y="352"/>
      <point x="317" y="261" type="curve"/>
    </contour>
    <contour>
      <point x="259" y="701" type="curve" smooth="yes"/>
      <point x="235" y="701"/>
      <point x="220" y="716"/>
      <point x="220" y="740" type="curve" smooth="yes"/>
      <point x="220" y="764"/>
      <point x="235" y="779"/>
      <point x="259" y="779" type="curve" smooth="yes"/>
      <point x="284" y="779"/>
      <point x="299" y="764"/>
      <point x="299" y="740" type="curve" smooth="yes"/>
      <point x="299" y="716"/>
      <point x="284" y="701"/>
    </contour>
    <contour>
      <point x="180" y="830" type="line"/>
      <point x="343" y="888" type="line"/>
      <point x="314" y="964" type="line"/>
      <point x="156" y="884" type="line"/>
    </contour>
  </outline>
</glyph>
<glyph name="yogh" format="2">
  <advance width="389"/>
  <unicode hex="021D"/>
  <outline>
    <contour>
      <point x="13" y="-185" type="line"/>
      <point x="238" y="-185"/>
      <point x="356" y="-97"/>
      <point x="356" y="46" type="curve" smooth="yes"/>
      <point x="356" y="106"/>
      <point x="327" y="178"/>
      <point x="258" y="218" type="curve"/>
      <point x="316" y="263"/>
      <point x="338" y="320"/>
      <point x="338" y="371" type="curve" smooth="yes"/>
      <point x="338" y="473"/>
      <point x="263" y="546"/>
      <point x="144" y="546" type="curve" smooth="yes"/>
      <point x="92" y="546"/>
      <point x="43" y="529"/>
      <point x="6" y="512" type="curve"/>
      <point x="39" y="402" type="line"/>
      <point x="65" y="418"/>
      <point x="95" y="426"/>
      <point x="120" y="426" type="curve"/>
      <point x="165" y="426"/>
      <point x="194" y="400"/>
      <point x="194" y="350" type="curve"/>
      <point x="194" y="295"/>
      <point x="159" y="263"/>
      <point x="107" y="263" type="curve" smooth="yes"/>
      <point x="81" y="263" type="line"/>
      <point x="81" y="153" type="line"/>
      <point x="115" y="153" type="line" smooth="yes"/>
      <point x="190" y="153"/>
      <point x="212" y="107"/>
      <point x="212" y="50" type="curve"/>
      <point x="212" y="-27"/>
      <point x="147" y="-71"/>
      <point x="6" y="-70" type="curve"/>
    </contour>
  </outline>
</glyph>
<glyph name="uni0220" format="2">
  <advance width="578"/>
  <unicode hex="0220"/>
  <outline>
    <contour>
      <point x="364" y="-185" type="line"/>
      <point x="506" y="-185" type="line"/>
      <point x="506" y="439" type="line" smooth="yes"/>
      <point x="506" y="631"/>
      <point x="417" y="707"/>
      <point x="282" y="707" type="curve" smooth="yes"/>
      <point x="218" y="707"/>
      <point x="145" y="695"/>
      <point x="78" y="676" type="curve"/>
      <point x="78" y="0" type="line"/>
      <point x="220" y="0" type="line"/>
      <point x="220" y="576" type="line"/>
      <point x="236" y="581"/>
      <point x="252" y="583"/>
      <point x="271" y="583" type="curve" smooth="yes"/>
      <point x="334" y="583"/>
      <point x="364" y="546"/>
      <point x="364" y="440" type="curve" smooth="yes"/>
    </contour>
  </outline>
</glyph>
<glyph name="OU" format="2">
  <advance width="568"/>
  <unicode hex="0222"/>
  <outline>
    <contour>
      <point x="284" y="-12" type="curve"/>
      <point x="448" y="-12"/>
      <point x="523" y="76"/>
      <point x="523" y="201" type="curve" smooth="yes"/>
      <point x="523" y="281"/>
      <point x="493" y="344"/>
      <point x="435" y="380" type="curve"/>
      <point x="483" y="426"/>
      <point x="495" y="494"/>
      <point x="495" y="543" type="curve" smooth="yes"/>
      <point x="495" y="595"/>
      <point x="489" y="637"/>
      <point x="474" y="692" type="curve"/>
      <point x="341" y="692" type="line"/>
      <point x="349" y="648"/>
      <point x="355" y="597"/>
      <point x="355" y="548" type="curve" smooth="yes"/>
      <point x="355" y="473"/>
      <point x="333" y="430"/>
      <point x="284" y="430" type="curve"/>
      <point x="235" y="430"/>
      <point x="213" y="473"/>
      <point x="213" y="548" type="curve" smooth="yes"/>
      <point x="213" y="597"/>
      <point x="219" y="648"/>
      <point x="227" y="692" type="curve"/>
      <point x="94" y="692" type="line"/>
      <point x="79" y="637"/>
      <point x="73" y="595"/>
      <point x="73" y="543" type="curve" smooth="yes"/>
      <point x="73" y="494"/>
      <point x="85" y="426"/>
      <point x="133" y="380" type="curve"/>
      <point x="75" y="344"/>
      <point x="45" y="281"/>
      <point x="45" y="201" type="curve" smooth="yes"/>
      <point x="45" y="76"/>
      <point x="119" y="-12"/>
    </contour>
    <contour>
      <point x="284" y="108" type="curve"/>
      <point x="225" y="108"/>
      <point x="189" y="142"/>
      <point x="189" y="208" type="curve"/>
      <point x="189" y="280"/>
      <point x="221" y="311"/>
      <point x="284" y="311" type="curve"/>
      <point x="346" y="311"/>
      <point x="379" y="280"/>
      <point x="379" y="208" type="curve"/>
      <point x="379" y="142"/>
      <point x="343" y="108"/>
    </contour>
  </outline>
</glyph>
